<svg width="160" height="91" viewBox="0 0 160 91" fill="none" xmlns="http://www.w3.org/2000/svg">
<circle cx="80" cy="52" r="39" fill="url(#paint0_linear_2_3369)"/>
<rect y="90" width="160" height="1" fill="#2652A7"/>
<path d="M107.026 52.2581H82.3488H77.6514H52.974L47.1675 63.871H52.4195V90H107.581V63.871H112.833L107.026 52.2581ZM105.232 55.1613L108.135 60.9677H85.2521L82.3488 55.1613H105.232ZM54.7682 55.1613H77.6514L74.7482 60.9677H51.865L54.7682 55.1613ZM104.678 87.0968H81.4517V76.9355H78.5485V87.0968H55.3227V63.871H76.5424L78.5485 59.8587V72.5806H81.4517V59.8587L83.4579 63.871H104.678V87.0968Z" fill="#2652A7"/>
<path d="M72.7419 81.2903H69.8387V84.1935H72.7419V81.2903Z" fill="#2652A7"/>
<path d="M66.9355 81.2903H58.2258V84.1935H66.9355V81.2903Z" fill="#2652A7"/>
<path d="M66.9355 75.4839H58.2258V78.3871H66.9355V75.4839Z" fill="#2652A7"/>
<path d="M40.8064 50.8064H37.9032V53.7096H40.8064V50.8064Z" fill="#EF5A56"/>
<path d="M43.7097 47.9033H40.8065V50.8065H43.7097V47.9033Z" fill="#EF5A56"/>
<path d="M37.9032 47.9033H35V50.8065H37.9032V47.9033Z" fill="#EF5A56"/>
<path d="M122.097 45H119.194V47.9032H122.097V45Z" fill="#EF5A56"/>
<path d="M40.8064 45H37.9032V47.9032H40.8064V45Z" fill="#EF5A56"/>
<path d="M125 42.0967H122.097V44.9999H125V42.0967Z" fill="#EF5A56"/>
<path d="M119.194 42.0967H116.29V44.9999H119.194V42.0967Z" fill="#EF5A56"/>
<path d="M122.097 39.1936H119.194V42.0968H122.097V39.1936Z" fill="#EF5A56"/>
<path d="M81.4516 30.4839H78.5484V49.3549H81.4516V30.4839Z" fill="#2652A7"/>
<path d="M117.713 26.5717L119.822 22.9702L116.086 21.3517L113.387 18.0144L110.688 21.3502L106.952 22.9688L109.061 26.5702L109.373 30.8655L113.387 29.845L117.402 30.867L117.713 26.5717ZM114.868 25.6862L114.757 27.1973L113.387 26.8489L112.018 27.1973L111.908 25.6862L111.114 24.3289L112.497 23.7294L113.387 22.6305L114.277 23.7309L115.66 24.3304L114.868 25.6862Z" fill="#F5BE00"/>
<path d="M50.9385 26.5717L53.0477 22.9702L49.3113 21.3517L46.6127 18.0144L43.9142 21.3502L40.1777 22.9688L42.2869 26.5702L42.599 30.8655L46.6127 29.845L50.6279 30.867L50.9385 26.5717ZM48.0934 25.6862L47.9831 27.1973L46.6127 26.8489L45.2439 27.1973L45.1321 25.6862L44.3381 24.3289L45.7214 23.7294L46.6127 22.6305L47.5026 23.7309L48.886 24.3304L48.0934 25.6862Z" fill="#F5BE00"/>
<path d="M53.0653 34.5949C55.8292 36.4385 58.2853 38.6885 60.3596 41.284L66.1095 48.468L64.9206 38.957C64.2993 33.9911 61.6472 29.4199 57.6437 26.418L56.253 25.3757L51.9984 33.8836L53.0653 34.5949ZM57.2488 29.8772C59.7035 32.1998 61.3685 35.2917 61.939 38.6362C60.1056 36.4835 58.0254 34.5644 55.7319 32.9111L57.2488 29.8772Z" fill="#2652A7"/>
<path d="M95.0795 38.957L93.8906 48.468L99.6405 41.2825C101.716 38.687 104.171 36.437 106.935 34.5935L108 33.8822L103.746 25.3743L102.355 26.4194C98.3529 29.4214 95.6993 33.991 95.0795 38.957ZM104.268 32.911C101.975 34.5644 99.893 36.482 98.0611 38.6362C98.633 35.2917 100.297 32.1998 102.751 29.8772L104.268 32.911Z" fill="#2652A7"/>
<path d="M81.4516 24.6775H78.5484V27.5807H81.4516V24.6775Z" fill="#EF5A56"/>
<path d="M73.2964 23.6091L79.9999 21.9006L86.7035 23.6077L87.2289 16.4091L90.7897 10.3269L84.4912 7.60075L79.9999 2.04688L75.5072 7.60075L69.2086 10.3269L72.7694 16.4091L73.2964 23.6091ZM77.3159 9.97994L79.9999 6.663L82.6839 9.98139L86.6294 11.6899L84.3838 15.5266L84.0615 19.9409L79.9999 18.9059L75.9383 19.9395L75.616 15.5251L73.3704 11.6885L77.3159 9.97994Z" fill="#F5BE00"/>
<path d="M85.8065 49.3549H88.7097V43.2727C88.7097 36.3006 91.1673 29.5128 95.6324 24.1549L93.4013 22.2969C88.5036 28.1745 85.8065 35.6241 85.8065 43.2727V49.3549Z" fill="#2652A7"/>
<path d="M71.2902 49.3549H74.1935V43.2727C74.1935 35.6227 71.4964 28.1745 66.6001 22.2969L64.369 24.1549C68.8327 29.5128 71.2902 36.3006 71.2902 43.2727V49.3549Z" fill="#2652A7"/>
<path d="M98.871 17.4194H95.9678V20.3227H98.871V17.4194Z" fill="#EF5A56"/>
<path d="M64.0323 17.4194H61.129V20.3227H64.0323V17.4194Z" fill="#EF5A56"/>
<path d="M103.226 11.6128H100.323V14.516H103.226V11.6128Z" fill="#EF5A56"/>
<path d="M59.6774 11.6128H56.7742V14.516H59.6774V11.6128Z" fill="#EF5A56"/>
<path d="M117.742 5.8064H114.839V8.70962H117.742V5.8064Z" fill="#EF5A56"/>
<path d="M40.8064 5.8064H37.9032V8.70962H40.8064V5.8064Z" fill="#EF5A56"/>
<path d="M120.645 2.90332H117.742V5.80655H120.645V2.90332Z" fill="#EF5A56"/>
<path d="M114.839 2.90332H111.935V5.80655H114.839V2.90332Z" fill="#EF5A56"/>
<path d="M43.7097 2.90332H40.8065V5.80655H43.7097V2.90332Z" fill="#EF5A56"/>
<path d="M37.9032 2.90332H35V5.80655H37.9032V2.90332Z" fill="#EF5A56"/>
<path d="M117.742 0H114.839V2.90323H117.742V0Z" fill="#EF5A56"/>
<path d="M40.8064 0H37.9032V2.90323H40.8064V0Z" fill="#EF5A56"/>
<defs>
<linearGradient id="paint0_linear_2_3369" x1="80" y1="13" x2="80" y2="91" gradientUnits="userSpaceOnUse">
<stop stop-color="#EFD7DE"/>
<stop offset="1" stop-color="#ECDADF" stop-opacity="0"/>
</linearGradient>
</defs>
</svg>
