<svg width="327" height="145" viewBox="0 0 327 145" fill="none" xmlns="http://www.w3.org/2000/svg">
<g clip-path="url(#clip0_35_1982)">
<rect width="327" height="145" rx="20" fill="url(#paint0_linear_35_1982)"/>
<ellipse cx="24.1571" cy="-68.0772" rx="366.26" ry="373.58" fill="url(#paint1_radial_35_1982)"/>
<path d="M207.32 -51.917C205.827 -51.6127 205.1 -50.7944 204.958 -49.2498C204.935 -48.8867 204.889 -22.3275 204.863 9.77573C204.827 61.8329 204.804 68.2182 204.64 68.9189C204.242 70.6041 203.384 71.76 202.055 72.3916C200.681 73.036 200.891 73.0233 190.106 73.0923L180.06 73.1613L179.448 73.4299C178.719 73.77 178.449 74.0385 178.097 74.798L177.827 75.3836V97.8384L178.097 98.424C178.449 99.1835 178.719 99.452 179.448 99.7922L180.06 100.061L189.931 100.13C198.602 100.189 199.907 100.224 200.624 100.398C202.998 100.961 204.162 102.234 204.632 104.738C204.797 105.638 204.833 107.182 204.902 115.322L204.971 124.853L205.323 125.554C205.639 126.172 205.757 126.29 206.382 126.607L207.086 126.957L218.131 126.993C225.792 127.016 229.364 126.98 229.798 126.888C230.692 126.712 231.337 126.175 231.702 125.321L231.995 124.62L232.054 114.445C232.123 103.147 232.067 103.848 232.912 102.528C233.77 101.183 234.993 100.61 237.341 100.457C238.21 100.398 245.437 100.362 253.381 100.362C268.408 100.385 269.184 100.375 273.475 99.8714C286.848 98.3269 298.245 93.2508 308.139 84.4335C318.856 74.867 325.965 61.6513 328.056 47.3719C328.644 43.3008 328.855 37.5701 328.539 33.8647C327.234 18.5776 320.207 4.04246 309.234 -6.08666C301.22 -13.4898 292.431 -18.3792 282.573 -20.9287C279.307 -21.7598 276.427 -22.261 272.655 -22.6472C269.824 -22.9387 262.492 -22.9387 259.907 -22.6472C253.702 -21.9567 248.615 -20.6346 242.67 -18.1669C239.461 -16.8346 235.162 -14.5894 232.74 -12.9502L232.059 -12.495L232.036 -31.0093C232 -48.4469 231.989 -49.5593 231.789 -50.1423C231.53 -50.8916 230.977 -51.4644 230.214 -51.7559C229.675 -51.9656 229.099 -51.9784 218.722 -52.0014C212.718 -52.0014 207.582 -51.9656 207.325 -51.9196L207.32 -51.917ZM270.009 4.34932C277.73 5.06278 285.214 8.72215 291.347 14.8058C297.199 20.6055 300.324 27.4026 301.04 35.9155C301.228 38.1147 301.11 41.9736 300.794 44.0321C299.735 50.9801 296.483 57.3296 291.228 62.687C285.353 68.676 278.667 71.8572 269.773 72.8852C269.033 72.9798 262.828 73.0488 251.382 73.0949L234.109 73.1639L233.51 73.4324C232.771 73.7725 232.383 74.1587 232.031 74.9181L231.761 75.5037L231.702 85.6201C231.632 95.5037 231.632 95.7492 231.386 96.4627C231.093 97.3526 230.54 98.2399 229.965 98.7309C229.425 99.2117 228.297 99.7359 227.486 99.8893C226.627 100.053 210.107 100.053 209.249 99.8893C207.733 99.5978 206.3 98.5903 205.655 97.3398C204.961 96.0535 204.974 96.1711 204.974 86.6737C204.974 78.7079 204.997 77.9024 205.185 77.212C205.691 75.3887 206.76 74.2891 208.614 73.6805C208.979 73.5628 211.328 73.5168 219.308 73.458C230.787 73.3889 230.201 73.435 231.129 72.5118C232.056 71.5887 231.987 72.967 232.056 53.343C232.138 34.2917 232.103 35.3095 232.819 31.7652C234.076 25.5537 237.002 19.8588 241.326 15.2175C245.637 10.5864 251.796 7.05485 258.586 5.33385C262.44 4.35188 266.389 4.01177 270.007 4.35187L270.009 4.34932Z" fill="white" fill-opacity="0.05"/>
</g>
<defs>
<linearGradient id="paint0_linear_35_1982" x1="267.731" y1="14.9028" x2="181.132" y2="135.965" gradientUnits="userSpaceOnUse">
<stop stop-color="#4874C8"/>
<stop offset="0.5" stop-color="#164DB6"/>
<stop offset="1" stop-color="#0A3281"/>
</linearGradient>
<radialGradient id="paint1_radial_35_1982" cx="0" cy="0" r="1" gradientUnits="userSpaceOnUse" gradientTransform="translate(24.1571 -68.0772) rotate(90) scale(373.58 366.26)">
<stop stop-color="#072359"/>
<stop offset="0.755208" stop-color="#0E51D2" stop-opacity="0"/>
</radialGradient>
<clipPath id="clip0_35_1982">
<rect width="327" height="145" rx="20" fill="white"/>
</clipPath>
</defs>
</svg>
