<svg width="352" height="352" viewBox="0 0 352 352" fill="none" xmlns="http://www.w3.org/2000/svg">
<path d="M178.105 173.24L173.466 261.571L114.689 258.488L115.181 249.125L119.328 170.15L156.337 172.093L178.105 173.24Z" fill="white"/>
<mask id="mask0_2_2017" style="mask-type:luminance" maskUnits="userSpaceOnUse" x="114" y="170" width="65" height="92">
<path d="M178.105 173.24L173.466 261.571L114.689 258.488L115.181 249.125L119.328 170.15L156.337 172.093L178.105 173.24Z" fill="white"/>
</mask>
<g mask="url(#mask0_2_2017)">
<path opacity="0.2" d="M159.759 224.991L146.516 226.083L150.381 242.76L115.181 249.125L119.328 170.15L156.337 172.093L159.759 224.991Z" fill="black" fill-opacity="0.7"/>
</g>
<path d="M178.105 173.24L173.466 261.571L114.689 258.488L115.181 249.125L119.328 170.15L156.337 172.093L178.105 173.24Z" stroke="#263238" stroke-linecap="round" stroke-linejoin="round"/>
<path d="M123.475 176.19L138.772 176.993" stroke="#263238" stroke-width="2" stroke-linecap="round" stroke-linejoin="round"/>
<path d="M123.32 179.126L133.725 179.675" stroke="#263238" stroke-width="2" stroke-linecap="round" stroke-linejoin="round"/>
<path d="M126.685 186.257L170.685 188.566" stroke="#263238" stroke-width="2" stroke-linecap="round" stroke-linejoin="round"/>
<path d="M126.53 189.193L170.53 191.502" stroke="#263238" stroke-width="2" stroke-linecap="round" stroke-linejoin="round"/>
<path d="M126.354 192.622L163.877 194.586" stroke="#263238" stroke-width="2" stroke-linecap="round" stroke-linejoin="round"/>
<path d="M126.369 195.749L126.181 199.328L129.759 199.516L129.948 195.937L126.369 195.749Z" stroke="#263238" stroke-linecap="round" stroke-linejoin="round"/>
<path d="M132.856 196.092L132.667 199.671L136.246 199.859L136.434 196.281L132.856 196.092Z" stroke="#263238" stroke-linecap="round" stroke-linejoin="round"/>
<path d="M139.334 196.436L139.146 200.015L142.724 200.203L142.912 196.624L139.334 196.436Z" stroke="#263238" stroke-linecap="round" stroke-linejoin="round"/>
<path d="M145.82 196.78L145.632 200.358L149.21 200.547L149.398 196.968L145.82 196.78Z" stroke="#263238" stroke-linecap="round" stroke-linejoin="round"/>
<path d="M124.34 186.131C124.336 186.247 124.308 186.362 124.26 186.468C124.211 186.574 124.142 186.669 124.056 186.748C123.97 186.827 123.87 186.889 123.76 186.929C123.651 186.969 123.535 186.987 123.418 186.983C123.181 186.971 122.959 186.865 122.799 186.688C122.64 186.512 122.558 186.28 122.57 186.043C122.582 185.806 122.688 185.583 122.864 185.424C123.04 185.265 123.273 185.182 123.51 185.195C123.626 185.2 123.741 185.228 123.846 185.278C123.952 185.328 124.046 185.398 124.125 185.484C124.203 185.57 124.264 185.671 124.303 185.781C124.343 185.891 124.36 186.007 124.355 186.124L124.34 186.131Z" fill="#263238"/>
<path d="M125.784 203.386L169.784 205.695" stroke="#263238" stroke-width="2" stroke-linecap="round" stroke-linejoin="round"/>
<path d="M125.629 206.321L169.629 208.63" stroke="#263238" stroke-width="2" stroke-linecap="round" stroke-linejoin="round"/>
<path d="M125.453 209.75L162.976 211.714" stroke="#263238" stroke-width="2" stroke-linecap="round" stroke-linejoin="round"/>
<path d="M125.46 212.888L125.272 216.467L128.851 216.655L129.039 213.077L125.46 212.888Z" stroke="#263238" stroke-linecap="round" stroke-linejoin="round"/>
<path d="M131.953 213.225L131.765 216.803L135.344 216.991L135.532 213.413L131.953 213.225Z" stroke="#263238" stroke-linecap="round" stroke-linejoin="round"/>
<path d="M138.432 213.562L138.244 217.14L141.823 217.328L142.011 213.75L138.432 213.562Z" stroke="#263238" stroke-linecap="round" stroke-linejoin="round"/>
<path d="M144.911 213.905L144.723 217.483L148.301 217.672L148.49 214.093L144.911 213.905Z" stroke="#263238" stroke-linecap="round" stroke-linejoin="round"/>
<path d="M123.446 203.259C123.441 203.376 123.412 203.492 123.362 203.598C123.312 203.704 123.242 203.8 123.155 203.879C123.068 203.958 122.966 204.019 122.856 204.059C122.745 204.099 122.628 204.116 122.51 204.111C122.332 204.102 122.161 204.041 122.017 203.935C121.874 203.829 121.766 203.683 121.705 203.516C121.645 203.348 121.636 203.166 121.679 202.993C121.722 202.821 121.815 202.664 121.947 202.544C122.078 202.424 122.243 202.346 122.419 202.32C122.595 202.293 122.775 202.319 122.936 202.395C123.098 202.471 123.233 202.593 123.325 202.745C123.417 202.898 123.462 203.074 123.453 203.252L123.446 203.259Z" fill="#263238"/>
<path d="M124.89 220.514L168.883 222.823" stroke="#263238" stroke-width="2" stroke-linecap="round" stroke-linejoin="round"/>
<path d="M124.735 223.45L168.728 225.759" stroke="#263238" stroke-width="2" stroke-linecap="round" stroke-linejoin="round"/>
<path d="M124.552 226.871L162.075 228.842" stroke="#263238" stroke-width="2" stroke-linecap="round" stroke-linejoin="round"/>
<path d="M124.566 230.007L124.378 233.585L127.956 233.773L128.145 230.195L124.566 230.007Z" stroke="#263238" stroke-linecap="round" stroke-linejoin="round"/>
<path d="M131.812 230.328L131.632 233.914L135.218 234.093L135.397 230.507L131.812 230.328Z" stroke="#263238" stroke-width="1.00125" stroke-linecap="round" stroke-linejoin="round"/>
<path d="M137.531 230.694L137.343 234.272L140.921 234.461L141.109 230.882L137.531 230.694Z" stroke="#263238" stroke-linecap="round" stroke-linejoin="round"/>
<path d="M144.024 231.03L143.836 234.608L147.414 234.797L147.602 231.218L144.024 231.03Z" stroke="#263238" stroke-linecap="round" stroke-linejoin="round"/>
<path d="M122.545 220.387C122.54 220.505 122.511 220.62 122.461 220.727C122.411 220.833 122.341 220.928 122.254 221.008C122.167 221.087 122.065 221.148 121.954 221.188C121.844 221.227 121.726 221.245 121.609 221.239C121.37 221.239 121.141 221.144 120.972 220.975C120.803 220.806 120.708 220.577 120.708 220.338C120.708 220.099 120.803 219.87 120.972 219.701C121.141 219.532 121.37 219.437 121.609 219.437H121.736C121.853 219.442 121.968 219.471 122.075 219.521C122.181 219.571 122.277 219.641 122.356 219.728C122.435 219.815 122.496 219.917 122.536 220.028C122.576 220.138 122.593 220.256 122.588 220.373L122.545 220.387Z" fill="#263238"/>
<path d="M123.96 238.128L167.953 240.444" stroke="#263238" stroke-width="2" stroke-linecap="round" stroke-linejoin="round"/>
<path d="M123.805 241.064L167.805 243.38" stroke="#263238" stroke-width="2" stroke-linecap="round" stroke-linejoin="round"/>
<path d="M123.629 244.492L161.153 246.463" stroke="#263238" stroke-width="2" stroke-linecap="round" stroke-linejoin="round"/>
<path d="M123.634 247.629L123.445 251.208L127.024 251.396L127.212 247.817L123.634 247.629Z" stroke="#263238" stroke-linecap="round" stroke-linejoin="round"/>
<path d="M130.128 247.966L129.939 251.544L133.518 251.732L133.706 248.154L130.128 247.966Z" stroke="#263238" stroke-linecap="round" stroke-linejoin="round"/>
<path d="M136.621 248.302L136.432 251.881L140.011 252.069L140.199 248.491L136.621 248.302Z" stroke="#263238" stroke-linecap="round" stroke-linejoin="round"/>
<path d="M143.099 248.654L142.911 252.232L146.49 252.42L146.678 248.842L143.099 248.654Z" stroke="#263238" stroke-linecap="round" stroke-linejoin="round"/>
<path d="M121.616 238.009C121.606 238.185 121.544 238.355 121.438 238.496C121.331 238.637 121.186 238.743 121.019 238.802C120.852 238.86 120.672 238.868 120.501 238.824C120.329 238.78 120.175 238.686 120.057 238.555C119.939 238.423 119.863 238.259 119.838 238.084C119.813 237.909 119.841 237.731 119.917 237.572C119.994 237.412 120.115 237.279 120.267 237.189C120.419 237.099 120.595 237.056 120.771 237.065C120.889 237.072 121.004 237.101 121.11 237.152C121.216 237.203 121.311 237.274 121.389 237.362C121.468 237.449 121.528 237.551 121.567 237.663C121.606 237.774 121.623 237.891 121.616 238.009Z" fill="#263238"/>
<path d="M127.586 197.24L128.051 198.042L129.958 195.938" stroke="#263238" stroke-width="2" stroke-linecap="round" stroke-linejoin="round"/>
<path d="M139.667 214.833L140.131 215.635L142.039 213.53" stroke="#263238" stroke-width="2" stroke-linecap="round" stroke-linejoin="round"/>
<path d="M145.728 232.911L146.193 233.714L148.1 231.602" stroke="#263238" stroke-width="2" stroke-linecap="round" stroke-linejoin="round"/>
<path d="M131.366 249.047L131.831 249.843L133.739 247.738" stroke="#263238" stroke-width="2" stroke-linecap="round" stroke-linejoin="round"/>
<path d="M139.047 236.572L82.3398 252.335L58.6573 167.102L82.1357 160.576L115.364 151.346L136.851 228.674L139.047 236.572Z" fill="white"/>
<mask id="mask1_2_2017" style="mask-type:luminance" maskUnits="userSpaceOnUse" x="58" y="151" width="82" height="102">
<path d="M139.047 236.572L82.3398 252.335L58.6573 167.102L82.1357 160.576L115.364 151.346L136.851 228.674L139.047 236.572Z" fill="white"/>
</mask>
<g mask="url(#mask1_2_2017)">
<path opacity="0.2" d="M136.851 228.674L93.0054 231.511L82.1357 160.576L115.364 151.346L136.851 228.674Z" fill="black" fill-opacity="0.7"/>
</g>
<path d="M139.047 236.572L82.3398 252.335L58.6573 167.102L82.1357 160.576L115.364 151.346L136.851 228.674L139.047 236.572Z" stroke="#263238" stroke-linecap="round" stroke-linejoin="round"/>
<path d="M64.5146 171.508L79.2704 167.411" stroke="#263238" stroke-width="2" stroke-linecap="round" stroke-linejoin="round"/>
<path d="M65.296 174.346L75.335 171.558" stroke="#263238" stroke-width="2" stroke-linecap="round" stroke-linejoin="round"/>
<path d="M70.752 180.034L113.203 168.242" stroke="#263238" stroke-width="2" stroke-linecap="round" stroke-linejoin="round"/>
<path d="M71.5405 182.864L113.992 171.072" stroke="#263238" stroke-width="2" stroke-linecap="round" stroke-linejoin="round"/>
<path d="M72.4557 186.173L108.662 176.113" stroke="#263238" stroke-width="2" stroke-linecap="round" stroke-linejoin="round"/>
<path d="M76.9297 188.176L73.4771 189.135L74.4365 192.588L77.8891 191.628L76.9297 188.176Z" stroke="#263238" stroke-linecap="round" stroke-linejoin="round"/>
<path d="M83.1892 186.43L79.7367 187.389L80.6961 190.842L84.1486 189.882L83.1892 186.43Z" stroke="#263238" stroke-linecap="round" stroke-linejoin="round"/>
<path d="M89.4504 184.689L85.9979 185.648L86.9573 189.101L90.4098 188.142L89.4504 184.689Z" stroke="#263238" stroke-linecap="round" stroke-linejoin="round"/>
<path d="M95.7002 182.954L92.2477 183.913L93.2071 187.366L96.6596 186.406L95.7002 182.954Z" stroke="#263238" stroke-linecap="round" stroke-linejoin="round"/>
<path d="M68.4922 180.661C68.5556 180.889 68.5257 181.134 68.4088 181.34C68.292 181.547 68.0978 181.699 67.8691 181.762C67.6404 181.826 67.3958 181.796 67.1892 181.679C66.9826 181.562 66.8308 181.368 66.7674 181.139C66.7039 180.911 66.7339 180.666 66.8507 180.459C66.9675 180.253 67.1617 180.101 67.3904 180.037C67.6191 179.974 67.8637 180.004 68.0703 180.121C68.2769 180.238 68.4287 180.432 68.4922 180.661Z" fill="#263238"/>
<path d="M75.3421 196.557L117.793 184.765" stroke="#263238" stroke-width="2" stroke-linecap="round" stroke-linejoin="round"/>
<path d="M76.1306 199.394L118.582 187.595" stroke="#263238" stroke-width="2" stroke-linecap="round" stroke-linejoin="round"/>
<path d="M77.0528 202.696L113.252 192.636" stroke="#263238" stroke-width="2" stroke-linecap="round" stroke-linejoin="round"/>
<path d="M81.5236 204.695L78.0711 205.654L79.0305 209.107L82.483 208.147L81.5236 204.695Z" stroke="#263238" stroke-linecap="round" stroke-linejoin="round"/>
<path d="M87.7783 202.958L84.3258 203.917L85.2852 207.37L88.7377 206.41L87.7783 202.958Z" stroke="#263238" stroke-linecap="round" stroke-linejoin="round"/>
<path d="M94.0397 201.219L90.5872 202.178L91.5466 205.631L94.9992 204.671L94.0397 201.219Z" stroke="#263238" stroke-linecap="round" stroke-linejoin="round"/>
<path d="M100.306 199.471L96.8536 200.431L97.813 203.883L101.266 202.924L100.306 199.471Z" stroke="#263238" stroke-linecap="round" stroke-linejoin="round"/>
<path d="M73.0893 197.19C73.1369 197.362 73.1326 197.544 73.0769 197.713C73.0212 197.882 72.9167 198.031 72.7764 198.141C72.6362 198.251 72.4666 198.316 72.289 198.33C72.1114 198.343 71.9339 198.304 71.7787 198.216C71.6235 198.129 71.4977 197.998 71.4172 197.839C71.3367 197.68 71.305 197.501 71.3262 197.324C71.3475 197.147 71.4206 196.981 71.5364 196.845C71.6522 196.71 71.8055 196.612 71.977 196.564C72.0902 196.532 72.2087 196.522 72.3256 196.536C72.4425 196.55 72.5556 196.586 72.6583 196.644C72.761 196.702 72.8513 196.779 72.9241 196.871C72.9968 196.964 73.0506 197.07 73.0822 197.183L73.0893 197.19Z" fill="#263238"/>
<path d="M79.9392 213.087L122.383 201.288" stroke="#263238" stroke-width="2" stroke-linecap="round" stroke-linejoin="round"/>
<path d="M80.7277 215.917L123.172 204.125" stroke="#263238" stroke-width="2" stroke-linecap="round" stroke-linejoin="round"/>
<path d="M81.6429 219.226L117.85 209.166" stroke="#263238" stroke-width="2" stroke-linecap="round" stroke-linejoin="round"/>
<path d="M86.1111 221.218L82.6585 222.177L83.6179 225.63L87.0705 224.67L86.1111 221.218Z" stroke="#263238" stroke-linecap="round" stroke-linejoin="round"/>
<path d="M92.3793 219.477L88.9268 220.437L89.8862 223.889L93.3387 222.93L92.3793 219.477Z" stroke="#263238" stroke-linecap="round" stroke-linejoin="round"/>
<path d="M98.6269 217.74L95.1744 218.699L96.1338 222.152L99.5863 221.192L98.6269 217.74Z" stroke="#263238" stroke-linecap="round" stroke-linejoin="round"/>
<path d="M104.888 216.001L101.436 216.96L102.395 220.413L105.848 219.454L104.888 216.001Z" stroke="#263238" stroke-linecap="round" stroke-linejoin="round"/>
<path d="M77.6794 213.713C77.727 213.885 77.7227 214.067 77.667 214.236C77.6113 214.405 77.5067 214.554 77.3665 214.664C77.2263 214.774 77.0567 214.839 76.8791 214.853C76.7015 214.866 76.5239 214.827 76.3688 214.739C76.2136 214.652 76.0878 214.52 76.0073 214.362C75.9268 214.203 75.8951 214.024 75.9163 213.847C75.9375 213.67 76.0107 213.503 76.1265 213.368C76.2423 213.233 76.3956 213.135 76.567 213.087C76.6803 213.055 76.7988 213.045 76.9157 213.059C77.0326 213.073 77.1457 213.109 77.2484 213.167C77.3511 213.224 77.4414 213.302 77.5141 213.394C77.5869 213.487 77.6406 213.593 77.6723 213.706L77.6794 213.713Z" fill="#263238"/>
<path d="M84.663 230.082L127.107 218.29" stroke="#263238" stroke-width="2" stroke-linecap="round" stroke-linejoin="round"/>
<path d="M85.4445 232.919L127.896 221.12" stroke="#263238" stroke-width="2" stroke-linecap="round" stroke-linejoin="round"/>
<path d="M86.3667 236.22L122.573 226.16" stroke="#263238" stroke-width="2" stroke-linecap="round" stroke-linejoin="round"/>
<path d="M90.8356 238.221L87.3831 239.18L88.3425 242.633L91.795 241.673L90.8356 238.221Z" stroke="#263238" stroke-linecap="round" stroke-linejoin="round"/>
<path d="M97.0968 236.48L93.6443 237.439L94.6037 240.892L98.0562 239.933L97.0968 236.48Z" stroke="#263238" stroke-linecap="round" stroke-linejoin="round"/>
<path d="M103.358 234.741L99.9057 235.7L100.865 239.153L104.318 238.193L103.358 234.741Z" stroke="#263238" stroke-linecap="round" stroke-linejoin="round"/>
<path d="M109.613 233.004L106.16 233.963L107.12 237.416L110.572 236.456L109.613 233.004Z" stroke="#263238" stroke-linecap="round" stroke-linejoin="round"/>
<path d="M82.4032 230.708C82.4695 230.938 82.4418 231.184 82.3263 231.394C82.2108 231.603 82.0169 231.758 81.7872 231.824C81.5575 231.89 81.311 231.863 81.1017 231.747C80.8924 231.631 80.7376 231.438 80.6714 231.208C80.606 230.977 80.6345 230.73 80.7506 230.521C80.8666 230.311 81.0608 230.156 81.2909 230.089C81.5186 230.025 81.7621 230.054 81.9689 230.169C82.1756 230.283 82.3291 230.474 82.3962 230.701L82.4032 230.708Z" fill="#263238"/>
<path d="M80.9882 188.517L81.6851 189.13L82.8256 186.525" stroke="#263238" stroke-width="2" stroke-linecap="round" stroke-linejoin="round"/>
<path d="M79.2915 206.955L79.9885 207.568L81.1219 204.963" stroke="#263238" stroke-width="2" stroke-linecap="round" stroke-linejoin="round"/>
<path d="M83.8816 223.309L84.5786 223.921L85.712 221.316" stroke="#263238" stroke-width="2" stroke-linecap="round" stroke-linejoin="round"/>
<path d="M101.108 236.706L101.805 237.319L102.946 234.714" stroke="#263238" stroke-width="2" stroke-linecap="round" stroke-linejoin="round"/>
<path d="M144.585 131.657L86.0003 137.288L94.4632 225.34L153.048 219.709L144.585 131.657Z" fill="white" stroke="#263238" stroke-linecap="round" stroke-linejoin="round"/>
<path d="M90.992 142.659L106.241 141.194" stroke="#263238" stroke-width="2" stroke-linecap="round" stroke-linejoin="round"/>
<path d="M91.2736 145.588L101.644 144.588" stroke="#263238" stroke-width="2" stroke-linecap="round" stroke-linejoin="round"/>
<path d="M95.6525 152.142L139.505 147.925" stroke="#263238" stroke-width="2" stroke-linecap="round" stroke-linejoin="round"/>
<path d="M95.9341 155.063L139.786 150.854" stroke="#263238" stroke-width="2" stroke-linecap="round" stroke-linejoin="round"/>
<path d="M96.265 158.478L133.668 154.887" stroke="#263238" stroke-width="2" stroke-linecap="round" stroke-linejoin="round"/>
<path d="M100.325 161.224L96.758 161.566L97.1008 165.133L100.668 164.79L100.325 161.224Z" stroke="#263238" stroke-linecap="round" stroke-linejoin="round"/>
<path d="M106.79 160.6L103.223 160.943L103.566 164.51L107.133 164.167L106.79 160.6Z" stroke="#263238" stroke-linecap="round" stroke-linejoin="round"/>
<path d="M113.256 159.985L109.689 160.328L110.031 163.895L113.598 163.552L113.256 159.985Z" stroke="#263238" stroke-linecap="round" stroke-linejoin="round"/>
<path d="M119.72 159.355L116.153 159.698L116.496 163.265L120.063 162.922L119.72 159.355Z" stroke="#263238" stroke-linecap="round" stroke-linejoin="round"/>
<path d="M93.3222 152.367C93.3395 152.544 93.3038 152.723 93.2196 152.88C93.1354 153.037 93.0066 153.165 92.8494 153.249C92.6922 153.333 92.5137 153.368 92.3364 153.351C92.1591 153.333 91.991 153.263 91.8534 153.15C91.7157 153.037 91.6146 152.886 91.563 152.715C91.5113 152.545 91.5113 152.363 91.563 152.192C91.6148 152.022 91.7158 151.87 91.8535 151.757C91.9912 151.644 92.1594 151.575 92.3366 151.557C92.4536 151.545 92.5717 151.557 92.6843 151.591C92.7968 151.625 92.9015 151.681 92.9923 151.756C93.0832 151.83 93.1585 151.922 93.2139 152.025C93.2693 152.129 93.3038 152.243 93.3152 152.36L93.3222 152.367Z" fill="#263238"/>
<path d="M97.2928 169.214L141.145 165.004" stroke="#263238" stroke-width="2" stroke-linecap="round" stroke-linejoin="round"/>
<path d="M97.5744 172.142L141.427 167.925" stroke="#263238" stroke-width="2" stroke-linecap="round" stroke-linejoin="round"/>
<path d="M97.9053 175.556L135.309 171.959" stroke="#263238" stroke-width="2" stroke-linecap="round" stroke-linejoin="round"/>
<path d="M101.965 178.292L98.3979 178.635L98.7407 182.202L102.308 181.859L101.965 178.292Z" stroke="#263238" stroke-linecap="round" stroke-linejoin="round"/>
<path d="M108.43 177.676L104.863 178.019L105.206 181.586L108.773 181.243L108.43 177.676Z" stroke="#263238" stroke-linecap="round" stroke-linejoin="round"/>
<path d="M114.895 177.054L111.328 177.396L111.671 180.963L115.238 180.621L114.895 177.054Z" stroke="#263238" stroke-linecap="round" stroke-linejoin="round"/>
<path d="M121.361 176.445L117.794 176.788L118.137 180.355L121.704 180.012L121.361 176.445Z" stroke="#263238" stroke-linecap="round" stroke-linejoin="round"/>
<path d="M94.9626 169.439C94.9798 169.616 94.9441 169.795 94.8599 169.952C94.7758 170.109 94.6469 170.237 94.4897 170.321C94.3325 170.405 94.154 170.44 93.9767 170.423C93.7994 170.405 93.6314 170.336 93.4937 170.222C93.356 170.109 93.255 169.958 93.2033 169.788C93.1516 169.617 93.1516 169.435 93.2033 169.265C93.2551 169.094 93.3562 168.943 93.4939 168.83C93.6316 168.717 93.7997 168.647 93.977 168.629C94.0949 168.618 94.2139 168.629 94.3273 168.664C94.4406 168.698 94.5461 168.755 94.6376 168.83C94.7292 168.905 94.805 168.998 94.8608 169.102C94.9165 169.207 94.9511 169.321 94.9626 169.439Z" fill="#263238"/>
<path d="M98.9331 186.286L142.785 182.076" stroke="#263238" stroke-width="2" stroke-linecap="round" stroke-linejoin="round"/>
<path d="M99.2147 189.214L143.067 184.997" stroke="#263238" stroke-width="2" stroke-linecap="round" stroke-linejoin="round"/>
<path d="M99.5456 192.629L136.949 189.031" stroke="#263238" stroke-width="2" stroke-linecap="round" stroke-linejoin="round"/>
<path d="M103.605 195.369L100.038 195.711L100.381 199.278L103.947 198.936L103.605 195.369Z" stroke="#263238" stroke-linecap="round" stroke-linejoin="round"/>
<path d="M110.07 194.746L106.503 195.089L106.846 198.656L110.413 198.313L110.07 194.746Z" stroke="#263238" stroke-linecap="round" stroke-linejoin="round"/>
<path d="M116.535 194.13L112.968 194.473L113.311 198.04L116.878 197.697L116.535 194.13Z" stroke="#263238" stroke-linecap="round" stroke-linejoin="round"/>
<path d="M123.001 193.507L119.434 193.85L119.777 197.417L123.343 197.074L123.001 193.507Z" stroke="#263238" stroke-linecap="round" stroke-linejoin="round"/>
<path d="M96.5958 186.511C96.6118 186.687 96.5752 186.864 96.4907 187.019C96.4061 187.175 96.2774 187.301 96.1209 187.384C95.9643 187.466 95.7869 187.5 95.6111 187.481C95.4352 187.462 95.2689 187.392 95.133 187.279C94.9972 187.165 94.898 187.015 94.8479 186.845C94.7979 186.675 94.7992 186.495 94.8518 186.326C94.9044 186.157 95.0058 186.008 95.1433 185.897C95.2808 185.785 95.4482 185.717 95.6243 185.701C95.7413 185.691 95.8592 185.703 95.9713 185.738C96.0834 185.773 96.1876 185.83 96.2778 185.905C96.368 185.98 96.4425 186.072 96.4971 186.176C96.5517 186.28 96.5852 186.394 96.5958 186.511Z" fill="#263238"/>
<path d="M100.623 203.85L144.475 199.633" stroke="#263238" stroke-width="2" stroke-linecap="round" stroke-linejoin="round"/>
<path d="M100.904 206.772L144.756 202.562" stroke="#263238" stroke-width="2" stroke-linecap="round" stroke-linejoin="round"/>
<path d="M101.228 210.187L138.632 206.596" stroke="#263238" stroke-width="2" stroke-linecap="round" stroke-linejoin="round"/>
<path d="M105.291 212.931L101.725 213.273L102.067 216.84L105.634 216.498L105.291 212.931Z" stroke="#263238" stroke-linecap="round" stroke-linejoin="round"/>
<path d="M111.764 212.314L108.197 212.657L108.54 216.224L112.107 215.881L111.764 212.314Z" stroke="#263238" stroke-linecap="round" stroke-linejoin="round"/>
<path d="M118.221 211.685L114.655 212.028L114.997 215.595L118.564 215.252L118.221 211.685Z" stroke="#263238" stroke-linecap="round" stroke-linejoin="round"/>
<path d="M124.687 211.062L121.12 211.405L121.463 214.972L125.03 214.629L124.687 211.062Z" stroke="#263238" stroke-linecap="round" stroke-linejoin="round"/>
<path d="M98.2854 204.069C98.3042 204.246 98.2698 204.426 98.1864 204.584C98.103 204.742 97.9744 204.872 97.8171 204.957C97.6598 205.041 97.4807 205.078 97.3028 205.06C97.1249 205.043 96.9561 204.974 96.8179 204.86C96.6797 204.747 96.5783 204.595 96.5266 204.424C96.475 204.253 96.4754 204.07 96.5278 203.899C96.5802 203.728 96.6823 203.577 96.821 203.464C96.9598 203.351 97.1289 203.282 97.3069 203.266C97.4238 203.254 97.542 203.266 97.6545 203.3C97.767 203.334 97.8717 203.39 97.9626 203.464C98.0535 203.539 98.1288 203.631 98.1842 203.734C98.2396 203.838 98.274 203.952 98.2854 204.069Z" fill="#263238"/>
<path d="M98.1658 162.871L98.743 163.596L100.32 161.23" stroke="#263238" stroke-width="2" stroke-linecap="round" stroke-linejoin="round"/>
<path d="M112.717 178.485L113.295 179.21L114.865 176.845" stroke="#263238" stroke-width="2" stroke-linecap="round" stroke-linejoin="round"/>
<path d="M107.923 196.536L108.5 197.261L110.077 194.896" stroke="#263238" stroke-width="2" stroke-linecap="round" stroke-linejoin="round"/>
<path d="M122.447 212.721L123.024 213.446L124.601 211.081" stroke="#263238" stroke-width="2" stroke-linecap="round" stroke-linejoin="round"/>
<path d="M197.071 217.092L225.428 321.693H229.666L201.316 217.092H197.071Z" fill="#757575" stroke="#263238" stroke-linecap="round" stroke-linejoin="round"/>
<path d="M260.938 292.041H207.187V296.419H260.938V292.041Z" fill="#999999" stroke="#263238" stroke-linecap="round" stroke-linejoin="round"/>
<path d="M289.612 193.6L254.883 321.728H250.659L285.38 193.6C286.662 188.876 283.726 185.033 278.833 185.033H248.913C244.028 185.033 239.001 188.876 237.72 193.6L202.984 321.728H198.76L233.489 193.6C235.382 186.61 242.788 180.928 250.026 180.928H279.953C287.169 180.928 291.505 186.602 289.612 193.6Z" fill="#757575" stroke="#263238" stroke-linecap="round" stroke-linejoin="round"/>
<path d="M290.161 193.635L281.544 225.442C281.128 226.781 280.308 227.958 279.196 228.812C278.084 229.665 276.735 230.153 275.334 230.208H226.167C225.574 230.255 224.979 230.152 224.436 229.91C223.893 229.667 223.419 229.293 223.058 228.82C222.697 228.348 222.46 227.792 222.368 227.205C222.277 226.617 222.334 226.016 222.534 225.456L231.158 193.649C231.577 192.314 232.398 191.14 233.51 190.289C234.622 189.438 235.969 188.952 237.368 188.897H286.528C286.997 188.864 287.468 188.923 287.913 189.071C288.359 189.22 288.772 189.455 289.127 189.763C289.482 190.071 289.772 190.446 289.983 190.866C290.193 191.287 290.318 191.744 290.351 192.213C290.383 192.695 290.318 193.179 290.161 193.635Z" fill="#90CAF9"/>
<mask id="mask2_2_2017" style="mask-type:luminance" maskUnits="userSpaceOnUse" x="222" y="188" width="69" height="43">
<path d="M290.161 193.635L281.544 225.442C281.128 226.781 280.308 227.958 279.196 228.812C278.084 229.665 276.735 230.153 275.334 230.208H226.167C225.574 230.255 224.979 230.152 224.436 229.91C223.893 229.667 223.419 229.293 223.058 228.82C222.697 228.348 222.46 227.792 222.368 227.205C222.277 226.617 222.334 226.016 222.534 225.456L231.158 193.649C231.577 192.314 232.398 191.14 233.51 190.289C234.622 189.438 235.969 188.952 237.368 188.897H286.528C286.997 188.864 287.468 188.923 287.913 189.071C288.359 189.22 288.772 189.455 289.127 189.763C289.482 190.071 289.772 190.446 289.983 190.866C290.193 191.287 290.318 191.744 290.351 192.213C290.383 192.695 290.318 193.179 290.161 193.635Z" fill="white"/>
</mask>
<g mask="url(#mask2_2_2017)">
<path opacity="0.2" d="M290.161 193.635L281.544 225.442C281.128 226.781 280.308 227.958 279.196 228.811C278.084 229.665 276.735 230.153 275.334 230.208H226.167C225.574 230.254 224.979 230.152 224.436 229.909C223.893 229.667 223.419 229.292 223.058 228.82C222.697 228.347 222.46 227.792 222.368 227.204C222.277 226.617 222.334 226.016 222.534 225.456L231.158 193.649C231.577 192.313 232.398 191.14 233.51 190.289C234.622 189.438 235.969 188.952 237.368 188.897H262.789C273.779 200.161 272.378 220.922 271.66 227.188C272.806 226.911 273.863 226.343 274.726 225.539C275.589 224.735 276.23 223.722 276.588 222.598L285.19 190.784C285.366 190.168 285.402 189.521 285.296 188.89H286.528C287.119 188.848 287.711 188.953 288.252 189.196C288.792 189.439 289.263 189.813 289.624 190.283C289.984 190.754 290.221 191.306 290.315 191.891C290.409 192.476 290.356 193.076 290.161 193.635Z" fill="black" fill-opacity="0.7"/>
</g>
<path d="M290.161 193.635L281.544 225.442C281.128 226.781 280.308 227.958 279.196 228.812C278.084 229.665 276.735 230.153 275.334 230.208H226.167C225.574 230.255 224.979 230.152 224.436 229.91C223.893 229.667 223.419 229.293 223.058 228.82C222.697 228.348 222.46 227.792 222.368 227.205C222.277 226.617 222.334 226.016 222.534 225.456L231.158 193.649C231.577 192.314 232.398 191.14 233.51 190.289C234.622 189.438 235.969 188.952 237.368 188.897H286.528C286.997 188.864 287.468 188.923 287.913 189.071C288.359 189.22 288.772 189.455 289.127 189.763C289.482 190.071 289.772 190.446 289.983 190.866C290.193 191.287 290.318 191.744 290.351 192.213C290.383 192.695 290.318 193.179 290.161 193.635Z" stroke="#263238" stroke-linecap="round" stroke-linejoin="round"/>
<path d="M261.254 262.388L277.334 321.693H281.572L265.5 262.388H261.254Z" fill="#757575" stroke="#263238" stroke-linecap="round" stroke-linejoin="round"/>
<path d="M265.514 255.552V261.353H202.21V255.552C202.21 254.42 202.659 253.335 203.459 252.535C204.26 251.735 205.345 251.286 206.476 251.286H261.24C261.801 251.284 262.357 251.393 262.876 251.606C263.395 251.82 263.867 252.134 264.264 252.531C264.661 252.927 264.976 253.398 265.19 253.917C265.405 254.435 265.515 254.991 265.514 255.552Z" fill="#90CAF9"/>
<mask id="mask3_2_2017" style="mask-type:luminance" maskUnits="userSpaceOnUse" x="202" y="251" width="64" height="11">
<path d="M265.514 255.552V261.353H202.21V255.552C202.21 254.42 202.659 253.335 203.459 252.535C204.26 251.735 205.345 251.286 206.476 251.286H261.24C261.801 251.284 262.357 251.393 262.876 251.606C263.395 251.82 263.867 252.134 264.264 252.531C264.661 252.927 264.976 253.398 265.19 253.917C265.405 254.435 265.515 254.991 265.514 255.552Z" fill="white"/>
</mask>
<g mask="url(#mask3_2_2017)">
<path opacity="0.2" d="M265.366 254.461C263.317 256.868 259.642 259.318 253.32 261.381H202.21V255.552C202.21 254.42 202.659 253.335 203.459 252.535C204.26 251.735 205.345 251.286 206.476 251.286H261.24C262.182 251.287 263.096 251.598 263.842 252.172C264.588 252.747 265.124 253.551 265.366 254.461Z" fill="black" fill-opacity="0.7"/>
</g>
<path d="M265.514 255.552V261.353H202.21V255.552C202.21 254.42 202.659 253.335 203.459 252.535C204.26 251.735 205.345 251.286 206.476 251.286H261.24C261.801 251.284 262.357 251.393 262.876 251.606C263.395 251.82 263.867 252.134 264.264 252.531C264.661 252.927 264.976 253.398 265.19 253.917C265.405 254.435 265.515 254.991 265.514 255.552Z" stroke="#263238" stroke-linecap="round" stroke-linejoin="round"/>
<path d="M267.661 259.6H200.612C199.947 259.6 199.408 260.139 199.408 260.804V263.838C199.408 264.503 199.947 265.042 200.612 265.042H267.661C268.326 265.042 268.865 264.503 268.865 263.838V260.804C268.865 260.139 268.326 259.6 267.661 259.6Z" fill="#999999" stroke="#263238" stroke-linecap="round" stroke-linejoin="round"/>
<path d="M200.154 259.776C197.12 262.866 211.827 311.428 211.827 311.428C210.221 312.836 207.856 313.484 205.617 313.78C203.559 314.035 201.48 314.066 199.415 313.871C199.415 313.871 178.337 262.747 184.138 250.061C189.939 237.375 225.935 231.616 225.935 231.616L227.469 227.814L246.09 225.195L249.167 247.998C249.167 247.998 246.111 248.294 241.514 248.885C229.187 250.448 205.73 254.144 200.154 259.776Z" fill="#263238"/>
<mask id="mask4_2_2017" style="mask-type:luminance" maskUnits="userSpaceOnUse" x="183" y="225" width="67" height="89">
<path d="M200.154 259.776C197.12 262.866 211.827 311.428 211.827 311.428C210.221 312.836 207.856 313.484 205.617 313.78C203.559 314.035 201.48 314.066 199.415 313.871C199.415 313.871 178.337 262.747 184.138 250.061C189.939 237.375 225.935 231.616 225.935 231.616L227.469 227.814L246.09 225.195L249.167 247.998C249.167 247.998 246.111 248.294 241.514 248.885C229.187 250.448 205.73 254.144 200.154 259.776Z" fill="white"/>
</mask>
<g mask="url(#mask4_2_2017)">
<path opacity="0.3" d="M211.827 311.456C210.221 312.864 207.856 313.512 205.617 313.808C201.527 298.601 191.115 258.023 195.057 253.06C199.922 246.935 223.999 241.366 223.999 241.366C224.097 238.24 232.538 235.424 232.538 235.424L241.507 248.864C229.18 250.448 205.723 254.144 200.147 259.776C197.12 262.894 211.827 311.456 211.827 311.456Z" fill="black"/>
</g>
<path d="M200.154 259.776C197.12 262.866 211.827 311.428 211.827 311.428C210.221 312.836 207.856 313.484 205.617 313.78C203.559 314.035 201.48 314.066 199.415 313.871C199.415 313.871 178.337 262.747 184.138 250.061C189.939 237.375 225.935 231.616 225.935 231.616L227.469 227.814L246.09 225.195L249.167 247.998C249.167 247.998 246.111 248.294 241.514 248.885C229.187 250.448 205.73 254.144 200.154 259.776Z" stroke="#263238" stroke-linecap="round" stroke-linejoin="round"/>
<path d="M189.735 213.812C186.644 213.284 208.644 193.994 208.644 193.994L219.254 201.133C219.254 201.133 201.203 213.847 198.366 214.192C195.529 214.537 189.735 213.812 189.735 213.812Z" fill="white"/>
<mask id="mask5_2_2017" style="mask-type:luminance" maskUnits="userSpaceOnUse" x="189" y="193" width="31" height="22">
<path d="M189.735 213.812C186.644 213.284 208.644 193.994 208.644 193.994L219.254 201.133C219.254 201.133 201.203 213.847 198.366 214.192C195.529 214.537 189.735 213.812 189.735 213.812Z" fill="white"/>
</mask>
<g mask="url(#mask5_2_2017)">
<path opacity="0.2" d="M189.735 213.812C186.644 213.284 208.644 193.994 208.644 193.994L219.254 201.133C219.254 201.133 201.203 213.847 198.366 214.192C195.529 214.537 189.735 213.812 189.735 213.812Z" fill="black" fill-opacity="0.7"/>
</g>
<path d="M189.735 213.812C186.644 213.284 208.644 193.994 208.644 193.994L219.254 201.133C219.254 201.133 201.203 213.847 198.366 214.192C195.529 214.537 189.735 213.812 189.735 213.812Z" stroke="#263238" stroke-linecap="round" stroke-linejoin="round"/>
<path d="M193.6 205.702C193.6 205.702 198.211 206.849 199.626 207.814C201.041 208.778 200.633 212.263 200.633 212.263C200.633 212.263 194.487 210.531 193.6 205.702Z" fill="white" stroke="#263238" stroke-linecap="round" stroke-linejoin="round"/>
<path d="M190.657 196.867L199.232 213.312H200.246L192.1 196.057L190.657 196.867Z" fill="#263238"/>
<path d="M198.387 208.757C198.387 208.757 192.98 204.913 191.657 204.913C190.333 204.913 186.37 209.595 186.37 211.953C186.37 214.311 195.015 215.6 196.705 213.607C197.549 212.615 195.874 210.221 195.874 210.221C196.88 211.292 197.96 212.292 199.105 213.213C199.809 213.607 201.154 213.094 201.154 213.094C201.154 213.094 199.352 210.207 198.387 208.757Z" fill="white" stroke="#263238" stroke-linecap="round" stroke-linejoin="round"/>
<path d="M195.874 214.15C194.627 212.567 193.097 211.23 191.361 210.208" stroke="#263238" stroke-linecap="round" stroke-linejoin="round"/>
<path d="M195.874 210.207C195.874 210.207 194.001 208.574 192.741 208.215" stroke="#263238" stroke-linecap="round" stroke-linejoin="round"/>
<path d="M189.981 212.284C191.29 212.955 192.553 213.712 193.762 214.551" stroke="#263238" stroke-linecap="round" stroke-linejoin="round"/>
<path d="M215.537 185.56C212.77 187.489 200.344 200.267 200.344 200.267C200.344 200.267 206.166 206.891 211.27 207.849L225.104 201.133L215.537 185.56Z" fill="#90CAF9" stroke="#263238" stroke-linecap="round" stroke-linejoin="round"/>
<path opacity="0.4" d="M215.537 185.56C212.77 187.489 200.344 200.267 200.344 200.267C200.344 200.267 206.166 206.891 211.27 207.849L225.104 201.133L215.537 185.56Z" fill="white" stroke="#263238" stroke-linecap="round" stroke-linejoin="round"/>
<path d="M208.856 306.303L214.72 321.728C214.72 321.728 215.692 325.691 198.007 324.438L188.264 323.608L208.856 306.303Z" fill="#90CAF9"/>
<mask id="mask6_2_2017" style="mask-type:luminance" maskUnits="userSpaceOnUse" x="188" y="306" width="27" height="19">
<path d="M208.856 306.303L214.72 321.728C214.72 321.728 215.692 325.691 198.007 324.438L188.264 323.608L208.856 306.303Z" fill="white"/>
</mask>
<g mask="url(#mask6_2_2017)">
<path opacity="0.3" d="M208.856 306.303L214.72 321.728C214.72 321.728 215.692 325.691 198.007 324.438L188.264 323.608L208.856 306.303Z" fill="black"/>
</g>
<path d="M208.856 306.303L214.72 321.728C214.72 321.728 215.692 325.691 198.007 324.438L188.264 323.608L208.856 306.303Z" stroke="#263238" stroke-linecap="round" stroke-linejoin="round"/>
<path d="M206.631 313.682C206.631 313.682 207.884 319.673 206.631 324.129C206.631 324.129 187.968 327.05 183.793 325.938C179.619 324.826 177.084 322.742 176.957 321.714C176.957 321.714 177.105 318.856 181.287 318.018C185.469 317.18 193.783 316.61 197.071 311.893C200.358 307.177 206.631 313.682 206.631 313.682Z" fill="#90CAF9" stroke="#263238" stroke-linecap="round" stroke-linejoin="round"/>
<path d="M231.257 227.195C237.22 218.691 264.634 228.927 264.634 228.927C264.634 228.927 267.245 249.399 256.326 254.862C245.407 260.325 229.666 260.03 225.414 264.458L208.109 315.554C208.109 315.554 201.893 318.152 192.854 314.062C192.854 314.062 203.843 275.475 207.068 261.775C210.257 248.216 230.905 239.015 230.905 239.015C229.841 237.758 229.034 236.304 228.532 234.735" fill="#263238"/>
<path d="M231.257 227.195C237.22 218.691 264.634 228.927 264.634 228.927C264.634 228.927 267.245 249.399 256.326 254.862C245.407 260.325 229.666 260.03 225.414 264.458L208.109 315.554C208.109 315.554 201.893 318.152 192.854 314.062C192.854 314.062 203.843 275.475 207.068 261.775C210.257 248.216 230.905 239.015 230.905 239.015C229.841 237.758 229.034 236.304 228.532 234.735" stroke="#263238" stroke-linecap="round" stroke-linejoin="round"/>
<path d="M259.009 246.766C258.134 247.541 257.215 248.265 256.256 248.934" stroke="white" stroke-linecap="round" stroke-linejoin="round"/>
<path d="M261.254 229.427C263.493 234.284 263.669 240.451 260.55 244.95" stroke="white" stroke-linecap="round" stroke-linejoin="round"/>
<path d="M255.01 230.208C255.01 230.208 254.44 233.953 256.108 235.439C257.777 236.924 262.895 237.677 262.895 237.677" stroke="white" stroke-linecap="round" stroke-linejoin="round"/>
<path d="M232.538 230.377C232.538 230.377 232.771 234.108 231.257 233.932C229.743 233.756 229.666 235.425 229.666 235.425" stroke="white" stroke-linecap="round" stroke-linejoin="round"/>
<path d="M215.903 188.433C215.672 187.492 215.549 186.529 215.537 185.56C215.537 185.56 223.985 178.436 234.861 178.478C247.815 178.52 255.735 182.597 258.903 188.257C263.93 197.212 264.634 228.927 264.634 228.927C264.634 228.927 232.13 233.939 227.469 227.793C226.66 226.723 227.279 219.169 227.279 219.169C227.279 219.169 223.64 209.623 222.872 202.217C221.803 200.743 220.809 199.216 219.894 197.641C218.737 195.703 217.734 193.676 216.895 191.58" fill="#90CAF9"/>
<path d="M215.903 188.433C215.672 187.492 215.549 186.529 215.537 185.56C215.537 185.56 223.985 178.436 234.861 178.478C247.815 178.52 255.735 182.597 258.903 188.257C263.93 197.212 264.634 228.927 264.634 228.927C264.634 228.927 232.13 233.939 227.469 227.793C226.66 226.723 227.279 219.169 227.279 219.169C227.279 219.169 223.64 209.623 222.872 202.217C221.803 200.743 220.809 199.216 219.894 197.641C218.737 195.703 217.734 193.676 216.895 191.58" stroke="#263238" stroke-linecap="round" stroke-linejoin="round"/>
<g opacity="0.6">
<path d="M215.903 188.433C215.672 187.492 215.549 186.529 215.537 185.56C215.537 185.56 223.985 178.436 234.861 178.478C247.815 178.52 255.735 182.597 258.903 188.257C263.93 197.212 264.634 228.927 264.634 228.927C264.634 228.927 232.13 233.939 227.469 227.793C226.66 226.723 227.279 219.169 227.279 219.169C227.279 219.169 223.64 209.623 222.872 202.217C221.803 200.743 220.809 199.216 219.894 197.641C218.737 195.703 217.734 193.676 216.895 191.58" fill="white"/>
<path d="M215.903 188.433C215.672 187.492 215.549 186.529 215.537 185.56C215.537 185.56 223.985 178.436 234.861 178.478C247.815 178.52 255.735 182.597 258.903 188.257C263.93 197.212 264.634 228.927 264.634 228.927C264.634 228.927 232.13 233.939 227.469 227.793C226.66 226.723 227.279 219.169 227.279 219.169C227.279 219.169 223.64 209.623 222.872 202.217C221.803 200.743 220.809 199.216 219.894 197.641C218.737 195.703 217.734 193.676 216.895 191.58" stroke="#263238" stroke-linecap="round" stroke-linejoin="round"/>
</g>
<path d="M228.349 196.057C228.349 196.057 233.313 215.312 232.573 219.55C232.397 221.012 232.641 222.494 233.277 223.823C232.629 224.505 232.212 225.374 232.085 226.307C231.959 227.24 232.13 228.188 232.573 229.018" stroke="#263238" stroke-linecap="round" stroke-linejoin="round"/>
<path d="M241.514 211.988C240.628 211.955 239.767 211.682 239.022 211.2L237.551 204.751C240.47 205.017 243.413 204.81 246.266 204.139L247.843 211.179C246.957 211.426 246.056 211.621 245.147 211.763" stroke="#263238" stroke-linecap="round" stroke-linejoin="round"/>
<path d="M224.822 198.563C224.822 198.563 220.598 180.569 231.257 178.478C241.916 176.387 244.105 181.365 243.478 184.737C242.641 189.235 233.805 200.267 233.805 200.267L228.349 196.043L224.822 198.563Z" fill="#90CAF9" stroke="#263238" stroke-linecap="round" stroke-linejoin="round"/>
<path opacity="0.4" d="M224.822 198.563C224.822 198.563 220.598 180.569 231.257 178.478C241.916 176.387 244.105 181.365 243.478 184.737C242.641 189.235 233.805 200.267 233.805 200.267L228.349 196.043L224.822 198.563Z" fill="white" stroke="#263238" stroke-linecap="round" stroke-linejoin="round"/>
<path d="M210.841 254.144C210.841 254.144 217.726 246.196 233.27 240.191C233.27 240.191 229.244 238.959 228.342 237.283" stroke="white" stroke-linecap="round" stroke-linejoin="round"/>
<path d="M202.745 278.467L196.451 301.319" stroke="white" stroke-linecap="round" stroke-linejoin="round"/>
<path d="M251.377 212.608C251.377 212.608 254.193 217.36 265.788 216.924C263.63 214.613 260.901 212.913 257.875 211.996C253.137 210.728 251.377 212.608 251.377 212.608Z" fill="#90CAF9" stroke="#263238" stroke-linecap="round" stroke-linejoin="round"/>
<path d="M206.392 214.516C206.392 214.516 209.081 210.348 211.545 209.51C214.009 208.673 221.246 208.602 222.365 208.574C223.485 208.546 243.373 213.601 252.708 216.712L251.891 201.133L264.436 202.125C264.436 202.125 263.93 221.133 261.98 226.167C260.029 231.201 257.235 229.976 252.468 227.92C233.721 219.845 222.739 214.22 221.718 214.544C220.697 214.868 206.392 214.516 206.392 214.516Z" fill="white" stroke="#263238" stroke-linecap="round" stroke-linejoin="round"/>
<path d="M248.758 192.079C248.431 193.371 248.326 194.709 248.449 196.036C249.005 200.907 251.377 212.608 251.377 212.608C251.377 212.608 263.071 214.276 265.788 216.923C265.788 216.923 267.717 201.435 263.789 193.572C259.86 185.708 255.798 184.842 255.798 184.842C253.229 184.208 250.87 186.602 249.568 189.679" fill="#90CAF9"/>
<path d="M248.758 192.079C248.431 193.371 248.326 194.709 248.449 196.036C249.005 200.907 251.377 212.608 251.377 212.608C251.377 212.608 263.071 214.276 265.788 216.923C265.788 216.923 267.717 201.435 263.789 193.572C259.86 185.708 255.798 184.842 255.798 184.842C253.229 184.208 250.87 186.602 249.568 189.679" stroke="#263238" stroke-linecap="round" stroke-linejoin="round"/>
<g opacity="0.4">
<path d="M248.758 192.079C248.431 193.371 248.326 194.709 248.449 196.036C249.005 200.907 251.377 212.608 251.377 212.608C251.377 212.608 263.071 214.276 265.788 216.923C265.788 216.923 267.717 201.435 263.789 193.572C259.86 185.708 255.798 184.842 255.798 184.842C253.229 184.208 250.87 186.602 249.568 189.679" fill="white"/>
<path d="M248.758 192.079C248.431 193.371 248.326 194.709 248.449 196.036C249.005 200.907 251.377 212.608 251.377 212.608C251.377 212.608 263.071 214.276 265.788 216.923C265.788 216.923 267.717 201.435 263.789 193.572C259.86 185.708 255.798 184.842 255.798 184.842C253.229 184.208 250.87 186.602 249.568 189.679" stroke="#263238" stroke-linecap="round" stroke-linejoin="round"/>
</g>
<path d="M214.403 198.105C216.154 199.538 218.196 200.571 220.387 201.133" stroke="#263238" stroke-linecap="round" stroke-linejoin="round"/>
<path d="M251.377 198.105C251.377 198.105 255.601 206.089 260.938 207.849" stroke="#263238" stroke-linecap="round" stroke-linejoin="round"/>
<path d="M224.006 259.6C224.006 259.6 224.787 260.191 225.104 262.325" stroke="white" stroke-linecap="round" stroke-linejoin="round"/>
<path d="M221.112 262.324C221.793 262.398 222.45 262.613 223.043 262.954C223.635 263.296 224.15 263.758 224.555 264.31" stroke="white" stroke-linecap="round" stroke-linejoin="round"/>
<path d="M197.824 254.144C197.824 254.144 200.077 255.285 199.591 258.516" stroke="white" stroke-linecap="round" stroke-linejoin="round"/>
<path d="M195.452 256.89C195.452 256.89 198.528 258.713 198.746 260.346" stroke="white" stroke-linecap="round" stroke-linejoin="round"/>
<path d="M231.109 237.192C231.109 237.192 237.959 238.149 239.494 237.192" stroke="white" stroke-linecap="round" stroke-linejoin="round"/>
<path d="M228.349 195.282C227.758 193.606 227.518 191.825 227.645 190.052C227.674 189.45 227.737 188.851 227.836 188.256L226.646 186.37L225.118 183.941L226.885 176.901C226.885 176.901 238.149 179.069 238.994 182.209C239.839 185.349 228.349 195.282 228.349 195.282Z" fill="white"/>
<mask id="mask7_2_2017" style="mask-type:luminance" maskUnits="userSpaceOnUse" x="225" y="176" width="15" height="20">
<path d="M228.349 195.282C227.758 193.606 227.518 191.825 227.645 190.052C227.674 189.45 227.737 188.851 227.836 188.256L226.646 186.37L225.118 183.941L226.885 176.901C226.885 176.901 238.149 179.069 238.994 182.209C239.839 185.349 228.349 195.282 228.349 195.282Z" fill="white"/>
</mask>
<g mask="url(#mask7_2_2017)">
<path opacity="0.2" d="M227.631 190.08C227.659 189.478 227.723 188.879 227.821 188.285L226.632 186.398C228.776 186.066 230.729 184.971 232.13 183.314C232.189 184.772 231.786 186.212 230.978 187.427C230.17 188.642 228.999 189.57 227.631 190.08Z" fill="black" fill-opacity="0.7"/>
</g>
<path d="M228.349 195.282C227.758 193.606 227.518 191.825 227.645 190.052C227.674 189.45 227.737 188.851 227.836 188.256L226.646 186.37L225.118 183.941L226.885 176.901C226.885 176.901 238.149 179.069 238.994 182.209C239.839 185.349 228.349 195.282 228.349 195.282Z" stroke="#263238" stroke-linecap="round" stroke-linejoin="round"/>
<path d="M235.418 177.492C238.938 168.34 236.6 152.761 219.704 155.746C209.792 157.506 208.595 169.488 211.904 174.81C215.213 180.132 211.7 180.301 216.677 184.244C218.698 185.842 220.324 188.552 222.732 188.728C225.597 188.925 229.265 186.215 232.003 183.286" fill="white"/>
<path d="M235.418 177.492C238.938 168.34 236.6 152.761 219.704 155.746C209.792 157.506 208.595 169.488 211.904 174.81C215.213 180.132 211.7 180.301 216.677 184.244C218.698 185.842 220.324 188.552 222.732 188.728C225.597 188.925 229.265 186.215 232.003 183.286" stroke="#263238" stroke-linecap="round" stroke-linejoin="round"/>
<path d="M218.768 174.81C218.768 174.81 221.26 172.543 224.224 173.48" stroke="#263238" stroke-linecap="round" stroke-linejoin="round"/>
<path d="M214.1 174.81C213.766 174.222 213.301 173.719 212.74 173.341C212.18 172.962 211.539 172.718 210.869 172.628" stroke="#263238" stroke-linecap="round" stroke-linejoin="round"/>
<path d="M215.748 178.112C215.748 178.112 215.389 179.935 214.917 181.78C214.445 183.624 217.874 182.617 217.733 182.336" fill="white"/>
<path d="M215.748 178.112C215.748 178.112 215.389 179.935 214.917 181.78C214.445 183.624 217.874 182.617 217.733 182.336" stroke="#263238" stroke-linecap="round" stroke-linejoin="round"/>
<path d="M219.5 184.638C220.954 184.222 222.247 183.375 223.21 182.209" stroke="#263238" stroke-linecap="round" stroke-linejoin="round"/>
<path d="M222.239 177.126C222.289 177.215 222.321 177.313 222.333 177.414C222.345 177.515 222.337 177.617 222.31 177.716C222.283 177.814 222.236 177.905 222.173 177.985C222.11 178.065 222.032 178.132 221.943 178.182C221.763 178.281 221.551 178.304 221.353 178.248C221.155 178.191 220.988 178.059 220.887 177.879C220.823 177.771 220.789 177.647 220.788 177.52C220.738 177.432 220.706 177.334 220.694 177.233C220.682 177.132 220.69 177.029 220.717 176.931C220.745 176.833 220.791 176.741 220.854 176.661C220.917 176.581 220.995 176.514 221.084 176.464C221.265 176.366 221.477 176.342 221.674 176.399C221.872 176.456 222.039 176.588 222.14 176.767C222.205 176.876 222.239 177 222.239 177.126Z" fill="#263238"/>
<path d="M214.72 176.971C214.861 177.478 214.762 177.957 214.495 178.027C214.227 178.098 213.896 177.746 213.791 177.232C213.685 176.718 213.756 176.246 214.023 176.176C214.291 176.106 214.565 176.458 214.72 176.971Z" fill="#263238"/>
<path d="M224.998 165.384C224.998 165.384 222.38 172.234 215.903 172.079C215.903 172.079 218.148 170.368 218.768 168.735C218.768 168.735 213.784 173.663 208.806 171.156C203.829 168.65 206.272 156.992 213.91 152.388C221.549 147.784 229.363 149.016 232.01 153.416C232.01 153.416 237.361 152.923 239.719 160.787C241.831 167.827 238.452 178.499 235.15 178.619C230.032 178.809 229.004 173.254 229.004 173.254C226.891 171.105 225.492 168.357 224.998 165.384Z" fill="#263238" stroke="#263238" stroke-linecap="round" stroke-linejoin="round"/>
<path d="M230.609 177.528C230.609 177.528 230.447 171.065 234.129 171.846C237.811 172.628 235.143 180.097 232.376 180.02" fill="white"/>
<path d="M230.609 177.528C230.609 177.528 230.447 171.065 234.129 171.846C237.811 172.628 235.143 180.097 232.376 180.02" stroke="#263238" stroke-linecap="round" stroke-linejoin="round"/>
<path d="M219.24 213.812H162.476C161.842 213.812 161.329 214.326 161.329 214.96V216.938C161.329 217.572 161.842 218.085 162.476 218.085H219.24C219.873 218.085 220.387 217.572 220.387 216.938V214.96C220.387 214.326 219.873 213.812 219.24 213.812Z" fill="#90CAF9" stroke="#263238" stroke-linecap="round" stroke-linejoin="round"/>
</svg>
