<svg width="250" height="196" viewBox="0 0 250 196" fill="none" xmlns="http://www.w3.org/2000/svg">
<path d="M208.46 9.57529C208.46 9.57529 206.315 10.6645 208.057 15.7207C209.798 20.7769 205.851 23.3049 204.829 21.3147C204.829 21.3147 204.897 24.5219 208.79 24.5219C212.683 24.5219 213.375 21.3013 213.375 21.3013C213.375 21.3013 214.774 22.8343 214.774 27.1509C214.774 31.4674 210.659 47.6781 225.068 47.6781C239.476 47.6781 239.221 35.4008 239.221 35.4008C239.221 35.4008 242.912 35.468 242.912 29.9412C242.912 29.9412 237.298 33.4307 237.298 25.638C237.298 17.8454 238.582 7.97507 232.665 7.97507C232.665 7.97507 234.716 3.74591 230.648 1.03629C226.58 -1.67334 214.364 2.01121 214.364 2.01121C214.364 2.01121 210.692 -0.19414 208.063 2.41463C204.829 5.61508 208.46 9.57529 208.46 9.57529Z" fill="#263238"/>
<path d="M212.024 176.778L209.644 175.239V172.166L211.936 172.368L212.024 176.778Z" fill="#263238"/>
<path d="M215.271 168.945L215.184 174.869L212.023 176.778L211.66 171.722C211.66 171.722 214.128 168.905 215.271 168.945Z" fill="#263238"/>
<path d="M206.644 161.993C206.644 161.993 206.476 162.121 204.473 167.5C202.469 172.879 200.385 174.855 199.175 175.864C197.964 176.873 195.208 178.728 195.208 180.167C195.208 181.606 197.527 182.736 200.923 182.44C204.318 182.144 209.099 181.317 210.336 177.242C210.732 175.898 210.806 173.517 212.353 171.863C213.899 170.209 215.278 168.945 215.278 168.945C215.278 168.945 215.432 163.513 213.933 162.054L206.644 161.993Z" fill="#37474F"/>
<path d="M206.488 155.383L206.656 162.537C206.656 162.537 206.912 164.716 210.267 164.272C213.622 163.828 213.837 162.275 213.837 162.275L215.35 155.363L206.488 155.383Z" fill="#FFA8A7"/>
<path d="M208.554 72.5283C208.554 72.5283 206.302 102.173 206.214 118.088C206.127 134.002 206.49 155.384 206.49 155.384C207.858 156.104 209.381 156.481 210.927 156.481C212.474 156.481 213.997 156.104 215.365 155.384L219.89 133.707C220.428 131.096 220.428 128.403 219.89 125.793C219.547 124.094 219.561 122.343 219.93 120.649L225.377 95.7114V72.5283H208.554Z" fill="#455A64"/>
<path d="M212.985 78.5996C212.985 78.5996 213.657 85.7603 219.036 89.3574L223.016 106.59L225.37 95.7112V78.5996H212.985Z" fill="#37474F"/>
<path d="M236.187 169.255C236.187 169.255 235.327 169.47 235.569 171.447C235.811 173.424 236.114 175.952 236.114 175.952C236.114 175.952 236.396 180.046 236.376 182.722C236.356 185.398 236.201 188.989 236.746 190.898C237.29 192.808 238.42 194.838 240.168 194.778C241.916 194.717 246.004 192.156 245.607 185.365C245.5 183.522 243.59 177.296 243.59 177.296C243.59 177.296 243.899 171.245 243.852 169.746C243.866 169.507 243.81 169.27 243.69 169.064C243.571 168.857 243.393 168.69 243.18 168.583L236.187 169.255Z" fill="#37474F"/>
<path d="M235.213 163.761L236.282 169.812C236.282 169.812 236.8 171.635 240.054 171.635C240.795 171.652 241.517 171.403 242.09 170.933C242.662 170.463 243.047 169.803 243.174 169.073L243.369 163.291L235.213 163.761Z" fill="#FFA8A7"/>
<path d="M208.553 72.5288C208.553 72.5288 212.507 85.1087 220.716 87.3208L227.487 120.381L235.213 163.762C236.441 164.575 237.9 164.967 239.371 164.88C240.842 164.793 242.245 164.23 243.368 163.278L244.511 130.332C244.598 127.89 244.155 125.459 243.214 123.205C242.444 121.361 242.053 119.38 242.064 117.382C242.104 110.06 242.198 91.6306 242.205 87.0653C242.205 81.3367 240.605 72.8246 239.354 69.8662L208.553 72.5288Z" fill="#455A64"/>
<path d="M199.644 56.237L189.861 52.0078L186.418 58.6508L196.564 64.1103C196.564 64.1103 200.753 60.7485 199.644 56.237Z" fill="#FFA8A7"/>
<path d="M214.37 33.1011L213.267 33.2692C212.038 33.4531 210.883 33.9703 209.928 34.7645C208.972 35.5587 208.253 36.5996 207.848 37.774L201.245 56.9834L199.645 56.2371C199.645 56.2371 199.47 60.9436 196.565 64.1306L200.761 66.1477C201.984 66.7507 203.388 66.8761 204.698 66.4993C206.009 66.1226 207.132 65.2709 207.848 64.1104L211.317 58.4223L214.37 33.1011Z" fill="#407BFF"/>
<path opacity="0.2" d="M214.37 33.1011L213.267 33.2692C212.038 33.4531 210.883 33.9703 209.928 34.7645C208.972 35.5587 208.253 36.5996 207.848 37.774L201.245 56.9834L199.645 56.2371C199.645 56.2371 199.47 60.9436 196.565 64.1306L200.761 66.1477C201.984 66.7507 203.388 66.8761 204.698 66.4993C206.009 66.1226 207.132 65.2709 207.848 64.1104L211.317 58.4223L214.37 33.1011Z" fill="black"/>
<path d="M201.246 56.9836L205.045 58.752L201.824 55.3027L201.246 56.9836Z" fill="#407BFF"/>
<path opacity="0.4" d="M201.246 56.9836L205.045 58.752L201.824 55.3027L201.246 56.9836Z" fill="black"/>
<path d="M215.31 33.0543C221.09 32.7263 226.886 32.8297 232.651 33.3636C231.253 35.2529 229.378 36.7375 227.219 37.6659C225.06 38.5944 222.693 38.9334 220.36 38.6484C216.01 38.1979 214.638 34.5604 215.31 33.0543Z" fill="#FFAAA8"/>
<path d="M228.321 33.545L219.419 33.4643V20.3667H228.321V33.545Z" fill="#FFAAA8"/>
<path d="M219.419 31.1648C221.239 30.4903 222.903 29.4529 224.31 28.1156C225.716 26.7783 226.836 25.1691 227.602 23.3856V20.3667H219.419V31.1648Z" fill="#FF9090"/>
<path d="M217.342 5.7696C217.342 5.7696 209.2 6.24698 210.208 20.1649C210.672 26.6061 212.185 29.941 217.14 29.699C222.755 29.4166 230.729 25.5572 230.204 14.5439C229.68 3.53063 217.342 5.7696 217.342 5.7696Z" fill="#FFAAA8"/>
<path d="M228.321 20.3667C228.321 20.3667 226.089 20.9517 226.089 17.758C226.089 17.758 216.172 17.0856 213.986 7.2422C213.986 7.2422 214.968 4.29053 221.16 4.29053C227.353 4.29053 232.557 9.77029 230.943 17.294L228.321 20.3667Z" fill="#263238"/>
<path d="M216.178 17.3745V22.1617L213.374 21.3011L216.178 17.3745Z" fill="#FF9090"/>
<path d="M220.394 17.8856C220.394 18.0784 220.337 18.2669 220.23 18.4272C220.123 18.5875 219.971 18.7125 219.792 18.7863C219.614 18.8601 219.418 18.8794 219.229 18.8418C219.04 18.8041 218.866 18.7113 218.73 18.5749C218.594 18.4386 218.501 18.2649 218.463 18.0758C218.426 17.8867 218.445 17.6906 218.519 17.5125C218.592 17.3343 218.717 17.1821 218.878 17.0749C219.038 16.9678 219.227 16.9106 219.419 16.9106C219.678 16.9106 219.926 17.0134 220.109 17.1962C220.292 17.379 220.394 17.627 220.394 17.8856Z" fill="#263238"/>
<path d="M213.98 17.2064C213.98 17.3992 213.923 17.5877 213.815 17.748C213.708 17.9083 213.556 18.0333 213.378 18.1071C213.2 18.1809 213.004 18.2002 212.815 18.1626C212.626 18.1249 212.452 18.0321 212.315 17.8957C212.179 17.7594 212.086 17.5857 212.049 17.3966C212.011 17.2075 212.03 17.0114 212.104 16.8333C212.178 16.6551 212.303 16.5029 212.463 16.3958C212.624 16.2886 212.812 16.2314 213.005 16.2314C213.133 16.2314 213.26 16.2567 213.378 16.3057C213.496 16.3547 213.604 16.4265 213.694 16.517C213.785 16.6075 213.857 16.715 213.906 16.8333C213.955 16.9516 213.98 17.0783 213.98 17.2064Z" fill="#263238"/>
<path d="M211.821 15.1761L213.73 14.0398C213.73 14.0398 212.997 13.28 212.271 13.7372C212.061 13.9046 211.906 14.1311 211.825 14.3876C211.745 14.644 211.744 14.9187 211.821 15.1761Z" fill="#263238"/>
<path d="M216.421 23.7687C217.532 23.8469 218.638 23.551 219.561 22.9282C219.561 22.9282 219.776 24.5822 218.391 24.8982C217.006 25.2143 216.421 23.7687 216.421 23.7687Z" fill="#FF9090"/>
<path d="M227.536 20.7294C227.504 19.9278 227.648 19.1291 227.959 18.3896C228.115 17.9266 228.403 17.5194 228.788 17.2183C229.173 16.9172 229.637 16.7353 230.124 16.6952C232.625 16.628 232.968 19.0351 232.935 19.889C232.84 22.1414 231.018 24.5955 227.63 24.6694L227.536 20.7294Z" fill="#FFAAA8"/>
<path d="M215.31 33.0537C215.31 33.0537 216.621 36.8324 221.852 37.2829C227.083 37.7334 231.783 34.3715 232.65 33.363L236.012 33.753L237.202 49.5737L235.306 56.1897C234.675 58.4169 234.953 60.8035 236.08 62.8259C237.338 65.0869 238.443 67.4297 239.388 69.8387C239.388 69.8387 233.195 75.3184 220.75 75.3184C213.118 75.3184 208.587 72.5281 208.587 72.5281C208.587 72.5281 210.2 62.4427 210.395 60.123C210.602 58.113 210.672 56.0913 210.604 54.0718C210.604 54.0718 206.697 52.5455 206.697 46.6085C206.697 41.4851 214.403 33.1277 214.403 33.1277L215.31 33.0537Z" fill="#407BFF"/>
<path d="M239.523 76.4078L238.414 85.2965L245.191 86.5538L247.329 78.5997C246.968 77.9362 246.477 77.3517 245.886 76.8808C245.295 76.4099 244.616 76.062 243.889 75.8578C243.161 75.6535 242.4 75.5969 241.65 75.6914C240.901 75.7859 240.177 76.0295 239.523 76.4078Z" fill="#FFA8A7"/>
<path d="M233.296 33.4375C233.296 33.4375 230.735 36.0732 234.325 45.7619C237.915 55.4507 240.995 64.5881 240.995 64.5881L239.522 76.4284C239.522 76.4284 244.498 75.2585 247.328 78.6203L249.628 68.9719C250.172 66.6953 250.119 64.3167 249.473 62.0667L243.119 39.8182C242.68 38.2325 241.782 36.812 240.538 35.7353C239.294 34.6586 237.759 33.9738 236.127 33.767H236.026L233.296 33.4375Z" fill="#407BFF"/>
<path opacity="0.2" d="M233.296 33.4375C233.296 33.4375 230.735 36.0732 234.325 45.7619C237.915 55.4507 240.995 64.5881 240.995 64.5881L239.522 76.4284C239.522 76.4284 244.498 75.2585 247.328 78.6203L249.628 68.9719C250.172 66.6953 250.119 64.3167 249.473 62.0667L243.119 39.8182C242.68 38.2325 241.782 36.812 240.538 35.7353C239.294 34.6586 237.759 33.9738 236.127 33.767H236.026L233.296 33.4375Z" fill="black"/>
<path d="M240.996 64.568C242.275 64.224 243.623 64.224 244.902 64.568C243.667 63.744 242.16 63.433 240.7 63.7006L240.996 64.568Z" fill="#407BFF"/>
<path opacity="0.4" d="M240.996 64.568C242.275 64.224 243.623 64.224 244.902 64.568C243.667 63.744 242.16 63.433 240.7 63.7006L240.996 64.568Z" fill="black"/>
<path d="M238.412 85.2964C237.248 86.819 236.621 88.6846 236.63 90.6013C236.63 91.6771 235.286 93.5799 236.422 94.0506C236.899 94.2523 238.345 92.9412 238.836 91.3208C239.16 92.7261 239.137 94.1891 238.768 95.5835C238.15 97.9301 237.841 98.468 239.293 98.5487C240.745 98.6293 245.055 97.3653 245.653 94.454C246.252 91.5426 245.189 86.5537 245.189 86.5537L238.412 85.2964Z" fill="#FFA8A7"/>
<path d="M190.063 53.2384C190.063 53.2384 189.814 50.8111 188.96 49.6345C188.16 48.637 187.464 47.5601 186.883 46.4206C186.607 45.6541 186.143 44.6926 185.377 46.0441C184.61 47.3955 185.773 49.2311 186.351 50.1657H180.556V54.8722C180.556 54.8722 181.416 58.5702 186.419 58.671L190.063 53.2384Z" fill="#FFA8A7"/>
<path d="M39.4606 164.191L39.5547 170.565L43.2191 172.898L47.8315 170.357V164.548L39.4606 164.191Z" fill="#FFA8A7"/>
<path d="M14.154 168.643L14.0598 175.824L15.4315 178.157H21.6844L22.693 168.287L14.154 168.643Z" fill="#FFA8A7"/>
<path d="M48.9064 83.6424L49.4174 128.234L48.3685 166.309C48.3685 166.309 45.7732 169.422 38.7066 166.76C38.7066 166.76 34.9548 140.585 35.5398 130.486C35.633 128.672 35.5609 126.854 35.3246 125.053L29.9457 83.2524L48.9064 83.6424Z" fill="#455A64"/>
<path d="M42.3454 91.321C41.6122 94.6725 39.7369 97.6649 37.0404 99.786L33.8333 113.401L30.9959 91.2739L42.3454 91.321Z" fill="#37474F"/>
<path d="M16.3513 83.2661C16.3513 83.2661 16.0353 99.6516 16.0084 111.109C16.0084 117.496 16.0487 122.082 16.0958 124.892C16.1279 126.891 15.8812 128.885 15.3629 130.816C14.5359 133.942 13.3458 139.973 13.3458 149.205C13.3458 163.566 13.4803 169.792 13.4803 169.792C13.4803 169.792 19.3635 173.329 23.3304 169.792L29.3817 129.747L35.0026 98.1455C35.0026 98.1455 46.5202 94.2592 46.5202 83.5283L16.3513 83.2661Z" fill="#455A64"/>
<path d="M54.8375 53.003L57.2647 59.7266C57.2647 59.7266 64.7145 55.5983 68.9639 53.2316L72.6081 58.6105C72.6081 58.6105 61.3863 67.4991 56.0881 68.6959C50.7899 69.8928 46.5607 56.9498 46.5607 56.9498C46.5607 56.9498 48.8064 52.2634 54.8375 53.003Z" fill="#FFA8A7"/>
<path d="M42.0759 35.0176H43.4677C45.057 35.0447 46.5987 35.5644 47.8801 36.505C49.1615 37.4456 50.1194 38.7606 50.6216 40.2687L54.8373 52.9831C53.1053 53.1603 51.4349 53.7233 49.9491 54.6309C48.4633 55.5384 47.1997 56.7674 46.2513 58.2275L42.0759 35.0176Z" fill="#407BFF"/>
<path d="M9.19792 91.0047C9.19792 91.0047 10.5427 92.7663 9.70892 96.8005C9.39291 98.3536 10.0317 99.8665 9.33912 100.391C8.64659 100.915 7.42289 99.2075 7.42289 97.056C6.75107 98.2694 6.33678 99.6085 6.20591 100.989C6.0311 103.208 6.84465 104.99 3.89298 103.544C0.941309 102.099 0 100.855 0 99.1941C0 97.0022 1.87589 92.7596 2.9584 90.7021L9.19792 91.0047Z" fill="#FFA8A7"/>
<path d="M31.6269 34.6812L20.4051 35.5216L15.6986 57.2053C15.6986 57.2053 17.6417 66.9949 17.7157 68.6691C17.7445 71.1956 17.5533 73.7197 17.1442 76.213C16.8215 78.4452 16.3508 83.2728 16.3508 83.2728C16.3508 83.2728 18.3679 88.2416 34.6122 88.2416C41.8266 88.2416 46.829 85.7202 48.9066 83.6493C48.9066 83.6493 47.1248 47.967 47.0038 44.9212C46.8828 41.8754 45.5582 36.9403 42.0754 35.0241L31.6269 34.6812Z" fill="#407BFF"/>
<path opacity="0.2" d="M31.6269 34.6812L20.4051 35.5216L15.6986 57.2053C15.6986 57.2053 17.6417 66.9949 17.7157 68.6691C17.7445 71.1956 17.5533 73.7197 17.1442 76.213C16.8215 78.4452 16.3508 83.2728 16.3508 83.2728C16.3508 83.2728 18.3679 88.2416 34.6122 88.2416C41.8266 88.2416 46.829 85.7202 48.9066 83.6493C48.9066 83.6493 47.1248 47.967 47.0038 44.9212C46.8828 41.8754 45.5582 36.9403 42.0754 35.0241L31.6269 34.6812Z" fill="black"/>
<path d="M24.0232 7.92124C24.0232 7.92124 19.7739 8.24397 19.7739 15.8887C19.7019 18.6709 20.3854 21.4206 21.7517 23.8453C23.118 26.27 25.1159 28.279 27.533 29.6587L34.9289 28.314C34.9289 28.314 46.8768 23.984 46.2717 12.8026C46.0229 8.21708 42.762 6.50928 42.762 6.50928L24.0232 7.92124Z" fill="#263238"/>
<path d="M26.7 35.5755C26.7 35.5755 32.8387 39.7374 34.8491 40.8065C36.8124 37.485 35.8173 35.4948 35.8173 35.4948V22.0879H26.7V35.5755Z" fill="#FFAAA8"/>
<path d="M35.8168 33.1146C33.9539 32.4244 32.2508 31.3628 30.8106 29.9943C29.3705 28.6259 28.2235 26.9791 27.4391 25.1539V22.0879H35.8168V33.1146Z" fill="#FF9090"/>
<path d="M37.935 7.14134C37.935 7.14134 46.6152 7.4708 45.0486 21.4358C44.309 28.0048 43.7711 31.6355 38.1501 31.6355C32.5292 31.6355 24.2322 27.3996 24.7701 16.1241C25.308 4.84858 37.935 7.14134 37.935 7.14134Z" fill="#FFAAA8"/>
<path d="M39.0041 19.4316V24.3332L41.875 23.4524L39.0041 19.4316Z" fill="#FF9090"/>
<path d="M34.8152 20.2795C34.8152 20.547 34.9214 20.8036 35.1106 20.9927C35.2997 21.1818 35.5562 21.2881 35.8237 21.2881C36.0912 21.2881 36.3477 21.1818 36.5369 20.9927C36.726 20.8036 36.8323 20.547 36.8323 20.2795C36.8323 20.0121 36.726 19.7555 36.5369 19.5664C36.3477 19.3773 36.0912 19.271 35.8237 19.271C35.5562 19.271 35.2997 19.3773 35.1106 19.5664C34.9214 19.7555 34.8152 20.0121 34.8152 20.2795Z" fill="#263238"/>
<path d="M41.3853 19.5867C41.3853 19.8542 41.4915 20.1107 41.6806 20.2998C41.8698 20.489 42.1263 20.5952 42.3938 20.5952C42.6613 20.5952 42.9178 20.489 43.1069 20.2998C43.2961 20.1107 43.4023 19.8542 43.4023 19.5867C43.4023 19.3192 43.2961 19.0627 43.1069 18.8735C42.9178 18.6844 42.6613 18.5781 42.3938 18.5781C42.1263 18.5781 41.8698 18.6844 41.6806 18.8735C41.4915 19.0627 41.3853 19.3192 41.3853 19.5867Z" fill="#263238"/>
<path d="M43.596 17.5024L41.6461 16.3729C41.6461 16.3729 42.3924 15.5929 43.1388 16.0636C43.3502 16.2301 43.5068 16.4563 43.5883 16.7128C43.6699 16.9693 43.6725 17.2444 43.596 17.5024Z" fill="#263238"/>
<path d="M35.2916 17.1663L33.53 18.5984C33.53 18.5984 33.0593 17.6302 33.7519 17.0923C33.9851 16.9453 34.2579 16.8736 34.5334 16.8868C34.8088 16.9 35.0735 16.9976 35.2916 17.1663Z" fill="#263238"/>
<path d="M40.3691 26.3166C39.4172 26.3861 38.4697 26.1327 37.6797 25.5972C37.6797 25.5972 37.4981 27.0159 38.6815 27.2848C39.0312 27.3423 39.3901 27.2774 39.6976 27.101C40.0051 26.9246 40.2422 26.6476 40.3691 26.3166Z" fill="#FF9090"/>
<path d="M26.4909 20.5817C26.4909 20.5817 29.3417 19.795 28.6693 11.5653C28.6693 11.5653 38.432 14.3892 43.3806 10.5029C48.3292 6.61668 47.166 4.45167 46.0701 5.08369L44.248 6.15275C44.248 6.15275 46.4668 1.12348 44.6178 0.175445C42.7688 -0.772587 41.256 2.42786 37.6454 2.48164C34.0348 2.53543 24.0973 1.29157 23.9292 7.92106V20.5817H26.4909Z" fill="#263238"/>
<path d="M27.5252 21.7511C27.5252 21.7511 27.1689 18.3893 24.8358 18.3288C22.2741 18.2548 21.9312 20.7224 21.9648 21.5965C22.0589 23.9027 23.9214 26.3904 27.3975 26.4913L27.5252 21.7511Z" fill="#FFAAA8"/>
<path d="M26.666 33.1147C26.666 33.1147 28.515 37.1489 34.8486 40.8066C34.8486 40.8066 32.6366 39.9796 29.7252 41.8958C26.6794 43.9129 26.0609 44.0205 24.9784 39.3341C23.8958 34.6477 25.4221 34.0426 26.666 33.1147Z" fill="#407BFF"/>
<path d="M34.8486 40.8063C35.331 38.8976 35.6549 36.9524 35.8168 34.9903V33.1145C35.8168 33.1145 37.76 32.8993 40.4494 40.0869C40.9806 41.519 37.6591 40.4634 36.8052 40.2146C36.4557 40.1369 36.0921 40.1505 35.7494 40.2541C35.4067 40.3578 35.0965 40.5479 34.8486 40.8063Z" fill="#407BFF"/>
<path d="M7.63786 54.731L4.16847 68.1782C3.84207 69.4267 3.6549 70.7075 3.61041 71.9972L2.93805 90.7427L9.1843 91.0117C9.1843 91.0117 12.2503 76.1188 12.9428 70.9685L16.977 57.3061L7.63786 54.731Z" fill="#FFA8A7"/>
<path d="M21.259 35.4546C21.259 35.4546 23.7535 38.4937 20.8556 46.515C17.9577 54.5363 17.0097 57.2728 17.0097 57.2728C17.0097 57.2728 11.2139 58.5503 7.63693 54.7245L11.6711 41.0419C12.0713 39.6897 12.8499 38.48 13.9148 37.5556C14.9798 36.6312 16.2869 36.0305 17.682 35.8244C18.8923 35.663 20.1967 35.5151 21.259 35.4546Z" fill="#407BFF"/>
<path d="M68.9648 53.2384C68.9648 53.2384 69.2136 50.8111 70.0675 49.6345C70.8704 48.6387 71.5668 47.5615 72.1451 46.4206C72.4208 45.6541 72.8847 44.6926 73.6512 46.0441C74.4177 47.3955 73.2545 49.2311 72.6763 50.1657H78.4721V54.8722C78.4721 54.8722 77.6114 58.5702 72.609 58.671L68.9648 53.2384Z" fill="#FFA8A7"/>
<path d="M14.0655 175.373C14.4532 176.329 14.9024 177.259 15.4102 178.157C15.4102 178.157 14.8791 174.869 17.7366 174.58C20.5942 174.291 22.1137 174.351 22.1473 175.925C22.1809 177.498 22.1137 178.984 22.1137 178.984C22.1137 178.984 22.9071 182.621 24.2518 184.538C25.5965 186.454 26.4841 187.429 27.1968 188.37C27.9095 189.311 29.4088 191.12 27.7884 193.964C27.0018 195.309 18.1938 195.981 16.0086 192.458C13.8235 188.935 15.5918 187.805 13.8167 185.102C12.0417 182.4 11.8938 181.815 12.1829 180.248C12.472 178.681 13.1108 176.153 13.1847 175.649C13.3528 174.6 14.0386 174.889 14.0386 174.889L14.0655 175.373Z" fill="#37474F"/>
<path d="M27.8095 193.944C27.9388 193.728 28.0534 193.503 28.1524 193.271C28.1524 193.271 18.867 193.682 17.2735 192.808C15.68 191.933 15.4649 188.928 15.3506 187.745C15.2363 186.561 15.1623 185.519 13.4411 182.857C12.8839 182.068 12.4655 181.19 12.2039 180.261C11.9148 181.828 12.056 182.413 13.8378 185.116C15.6195 187.819 13.8378 188.921 16.0297 192.471C18.2216 196.021 27.0228 195.322 27.8095 193.944Z" fill="#263238"/>
<path d="M16.714 181.162C16.6223 181.16 16.5354 181.121 16.4719 181.055C16.4404 181.023 16.4154 180.986 16.3984 180.945C16.3813 180.904 16.3725 180.86 16.3725 180.816C16.3725 180.772 16.3813 180.728 16.3984 180.687C16.4154 180.646 16.4404 180.609 16.4719 180.577C16.4719 180.577 19.3967 177.888 22.577 179.804C22.6538 179.85 22.7094 179.925 22.7321 180.011C22.7547 180.098 22.7425 180.19 22.698 180.268C22.6507 180.344 22.5759 180.398 22.4892 180.419C22.4026 180.441 22.3111 180.427 22.2341 180.382C19.4841 178.742 16.956 181.055 16.9291 181.055C16.8735 181.116 16.7967 181.155 16.714 181.162Z" fill="#EBEBEB"/>
<path d="M17.4609 183.549C17.4142 183.55 17.3679 183.541 17.325 183.522C17.2821 183.504 17.2436 183.476 17.2122 183.442C17.1809 183.411 17.156 183.374 17.139 183.334C17.122 183.293 17.1133 183.25 17.1133 183.206C17.1133 183.162 17.122 183.119 17.139 183.079C17.156 183.038 17.1809 183.002 17.2122 182.971C17.2122 182.971 20.1437 180.281 23.3239 182.198C23.4006 182.244 23.4557 182.319 23.4772 182.406C23.4986 182.493 23.4846 182.585 23.4382 182.662C23.3919 182.738 23.317 182.793 23.23 182.815C23.143 182.836 23.051 182.822 22.9743 182.776C20.2311 181.135 17.777 183.368 17.6761 183.448C17.619 183.507 17.5425 183.543 17.4609 183.549Z" fill="#EBEBEB"/>
<path d="M18.8528 185.768C18.8066 185.769 18.7608 185.76 18.7181 185.743C18.6754 185.725 18.6365 185.7 18.604 185.667C18.5725 185.636 18.5475 185.599 18.5304 185.558C18.5133 185.517 18.5045 185.473 18.5045 185.428C18.5045 185.384 18.5133 185.34 18.5304 185.299C18.5475 185.258 18.5725 185.221 18.604 185.19C18.604 185.19 21.5288 182.5 24.709 184.416C24.7841 184.463 24.8379 184.537 24.859 184.622C24.8801 184.708 24.8667 184.798 24.8217 184.874C24.7768 184.95 24.7038 185.005 24.6186 185.028C24.5334 185.05 24.4427 185.038 24.3661 184.995C21.6229 183.361 19.162 185.586 19.0612 185.667C19.0059 185.724 18.932 185.76 18.8528 185.768Z" fill="#EBEBEB"/>
<path d="M27.2164 188.35C26.8533 187.873 26.4499 187.388 25.9591 186.77C24.9891 186.506 23.9732 186.457 22.9822 186.626C21.9913 186.795 21.0493 187.179 20.222 187.75C19.3948 188.321 18.7022 189.066 18.1927 189.933C17.6831 190.799 17.369 191.767 17.2722 192.767C17.2722 192.767 19.4237 194.199 23.3974 194.199C25.0273 194.166 26.6377 193.838 28.151 193.231V193.171C29.1461 190.77 27.8619 189.17 27.2164 188.35Z" fill="#EBEBEB"/>
<path d="M39.5338 169.51C40.5323 170.859 41.7837 172.001 43.2184 172.872C43.2184 172.872 43.1377 171.157 43.642 170.552C44.1462 169.947 47.9316 168.743 48.3485 169.483C48.691 170.368 48.9455 171.285 49.1083 172.22C49.1083 172.22 54.0838 175.958 55.7916 176.785C57.4994 177.612 61.9168 178.943 62.3404 181.135C62.5272 182.004 62.4043 182.912 61.993 183.7C61.5817 184.488 60.9078 185.108 60.088 185.452C56.1076 186.884 50.2782 185.21 47.0038 182.903C45.4019 181.666 43.4529 180.96 41.4299 180.886C40.4684 180.718 37.7722 180.18 37.584 177.988C37.3957 175.797 38.216 173.954 38.2563 172.892C38.2967 171.83 38.0143 168.965 39.5607 168.965L39.5338 169.51Z" fill="#37474F"/>
<path d="M55.5098 185.136C52.4118 184.902 49.4384 183.818 46.917 182.003C44.6242 180.248 43.6762 180.551 40.6774 179.946C39.989 179.82 39.3424 179.526 38.7956 179.09C38.2488 178.653 37.8188 178.088 37.5442 177.444C37.5442 177.626 37.5442 177.807 37.5442 177.989C37.7325 180.181 40.4287 180.719 41.3901 180.887C43.4131 180.961 45.3622 181.666 46.964 182.904C50.2384 185.21 56.0678 186.884 60.0482 185.452C60.566 185.262 61.0282 184.945 61.3929 184.531C59.473 185.025 57.49 185.229 55.5098 185.136Z" fill="#263238"/>
<path d="M62.3155 181.162C61.9927 179.508 59.3974 178.345 57.4072 177.518C51.8871 179.535 52.5259 184.537 52.5393 184.638C53.5122 184.898 54.5071 185.066 55.5111 185.142C57.4859 185.24 59.4643 185.043 61.3809 184.557C61.2277 184.727 61.0589 184.883 60.8766 185.021C61.4552 184.578 61.8971 183.981 62.1516 183.299C62.4061 182.616 62.4629 181.875 62.3155 181.162Z" fill="#EBEBEB"/>
<path d="M47.0124 175.461C46.9614 175.459 46.9111 175.448 46.8645 175.427C46.7898 175.386 46.7341 175.317 46.7091 175.236C46.684 175.154 46.6915 175.066 46.73 174.99C47.0589 174.384 47.5074 173.851 48.0483 173.424C48.5891 172.996 49.2111 172.683 49.8766 172.502C49.9181 172.493 49.961 172.493 50.0027 172.5C50.0445 172.508 50.0843 172.524 50.1199 172.547C50.1555 172.57 50.1862 172.6 50.2102 172.635C50.2342 172.67 50.2511 172.709 50.2599 172.751C50.276 172.835 50.2591 172.921 50.2127 172.993C50.1663 173.064 50.0941 173.115 50.0111 173.134C48.8657 173.468 47.8989 174.242 47.3217 175.286C47.2936 175.343 47.2491 175.39 47.1939 175.421C47.1388 175.452 47.0755 175.466 47.0124 175.461Z" fill="#EBEBEB"/>
<path d="M49.2711 177.202C49.2192 177.201 49.1683 177.187 49.1232 177.161C49.049 177.121 48.9935 177.054 48.9683 176.974C48.9432 176.893 48.9505 176.806 48.9887 176.731C49.3176 176.125 49.7661 175.592 50.307 175.165C50.8478 174.737 51.4699 174.424 52.1354 174.243C52.2192 174.226 52.3066 174.242 52.3785 174.288C52.4504 174.335 52.5008 174.408 52.5186 174.492C52.5364 174.576 52.5202 174.663 52.4736 174.735C52.4269 174.807 52.3536 174.858 52.2698 174.875C51.7016 175.038 51.1713 175.313 50.7096 175.682C50.248 176.051 49.8642 176.508 49.5804 177.027C49.5497 177.082 49.5047 177.127 49.4501 177.158C49.3956 177.188 49.3337 177.204 49.2711 177.202Z" fill="#EBEBEB"/>
<path d="M51.6239 178.735C51.572 178.734 51.5211 178.72 51.476 178.695C51.4018 178.655 51.3462 178.587 51.3211 178.507C51.296 178.427 51.3033 178.34 51.3415 178.264C51.6682 177.657 52.116 177.123 52.6572 176.695C53.1984 176.267 53.8215 175.954 54.4881 175.777C54.5296 175.768 54.5725 175.767 54.6142 175.775C54.656 175.783 54.6958 175.798 54.7314 175.822C54.767 175.845 54.7977 175.875 54.8217 175.91C54.8457 175.945 54.8626 175.984 54.8714 176.025C54.8802 176.067 54.8807 176.109 54.8729 176.15C54.8652 176.192 54.8492 176.231 54.8261 176.266C54.8029 176.301 54.773 176.331 54.738 176.354C54.7031 176.378 54.6639 176.394 54.6226 176.402C54.0542 176.567 53.524 176.842 53.0625 177.213C52.6009 177.583 52.2171 178.041 51.9332 178.56C51.9025 178.615 51.8574 178.66 51.8029 178.691C51.7484 178.722 51.6865 178.737 51.6239 178.735Z" fill="#EBEBEB"/>
<path d="M192.329 50.1655H61.6956C60.6521 50.1655 59.8062 51.0114 59.8062 52.0549V123.809C59.8062 124.853 60.6521 125.699 61.6956 125.699H192.329C193.372 125.699 194.218 124.853 194.218 123.809V52.0549C194.218 51.0114 193.372 50.1655 192.329 50.1655Z" fill="#407BFF"/>
<path opacity="0.7" d="M192.329 50.1655H61.6956C60.6521 50.1655 59.8062 51.0114 59.8062 52.0549V123.809C59.8062 124.853 60.6521 125.699 61.6956 125.699H192.329C193.372 125.699 194.218 124.853 194.218 123.809V52.0549C194.218 51.0114 193.372 50.1655 192.329 50.1655Z" fill="white"/>
<path d="M189.378 123.554H64.6479C64.0178 123.554 63.4134 123.304 62.9672 122.859C62.521 122.414 62.2695 121.811 62.2677 121.18V54.6972C62.2695 54.0671 62.521 53.4634 62.9672 53.0185C63.4134 52.5736 64.0178 52.3237 64.6479 52.3237H189.378C190.007 52.3237 190.611 52.5738 191.056 53.0189C191.501 53.464 191.751 54.0677 191.751 54.6972V121.194C191.748 121.821 191.496 122.421 191.051 122.863C190.607 123.306 190.005 123.554 189.378 123.554ZM64.6479 53.0163C64.205 53.0163 63.7802 53.1917 63.4664 53.5042C63.1526 53.8168 62.9755 54.2409 62.9737 54.6837V121.18C62.9755 121.623 63.1526 122.047 63.4664 122.36C63.7802 122.672 64.205 122.848 64.6479 122.848H189.378C189.82 122.848 190.244 122.672 190.557 122.359C190.87 122.047 191.045 121.623 191.045 121.18V54.6972C191.045 54.2549 190.87 53.8308 190.557 53.5181C190.244 53.2054 189.82 53.0297 189.378 53.0297L64.6479 53.0163Z" fill="#407BFF"/>
<g opacity="0.5">
<path d="M189.377 123.554H64.6466C64.0165 123.554 63.4121 123.304 62.9659 122.859C62.5197 122.414 62.2682 121.811 62.2664 121.18V54.6972C62.2682 54.0671 62.5197 53.4634 62.9659 53.0185C63.4121 52.5736 64.0165 52.3237 64.6466 52.3237H189.377C190.006 52.3237 190.61 52.5738 191.055 53.0189C191.5 53.464 191.75 54.0677 191.75 54.6972V121.194C191.746 121.821 191.495 122.421 191.05 122.863C190.605 123.306 190.004 123.554 189.377 123.554ZM64.6466 53.0163C64.2037 53.0163 63.7789 53.1917 63.4651 53.5042C63.1513 53.8168 62.9742 54.2409 62.9724 54.6837V121.18C62.9742 121.623 63.1513 122.047 63.4651 122.36C63.7789 122.672 64.2037 122.848 64.6466 122.848H189.377C189.819 122.848 190.243 122.672 190.556 122.359C190.868 122.047 191.044 121.623 191.044 121.18V54.6972C191.044 54.2549 190.868 53.8308 190.556 53.5181C190.243 53.2054 189.819 53.0297 189.377 53.0297L64.6466 53.0163Z" fill="white"/>
</g>
<path d="M180.254 85.1758H73.7784C72.9615 85.1758 72.2992 85.838 72.2992 86.655V109.845C72.2992 110.662 72.9615 111.324 73.7784 111.324H180.254C181.071 111.324 181.733 110.662 181.733 109.845V86.655C181.733 85.838 181.071 85.1758 180.254 85.1758Z" fill="white"/>
<path d="M85.1268 91.9868V102.711H82.3298V94.2863H80.2589V91.9868H85.1268Z" fill="#407BFF"/>
<path d="M97.21 97.3458C97.21 100.849 95.7106 102.792 93.0212 102.792C90.3317 102.792 88.8122 100.849 88.8122 97.3458C88.8122 93.8428 90.2981 91.9131 93.0212 91.9131C95.7443 91.9131 97.21 93.8428 97.21 97.3458ZM91.4882 97.3458C91.4882 99.7932 91.932 100.815 93.0212 100.815C94.1104 100.815 94.534 99.7932 94.534 97.3458C94.534 94.8984 94.0902 93.8697 93.0212 93.8697C91.9521 93.8697 91.468 94.8782 91.468 97.3458H91.4882Z" fill="#407BFF"/>
<path d="M106.651 97.3458C106.651 100.849 105.152 102.792 102.462 102.792C99.773 102.792 98.2534 100.849 98.2534 97.3458C98.2534 93.8428 99.7393 91.9131 102.462 91.9131C105.185 91.9131 106.651 93.8428 106.651 97.3458ZM100.929 97.3458C100.929 99.7932 101.373 100.815 102.462 100.815C103.552 100.815 103.975 99.7932 103.975 97.3458C103.975 94.8984 103.531 93.8697 102.462 93.8697C101.393 93.8697 100.929 94.8782 100.929 97.3458Z" fill="#407BFF"/>
<path d="M110.356 101.507C110.365 101.686 110.337 101.865 110.273 102.033C110.209 102.2 110.11 102.352 109.983 102.479C109.857 102.606 109.704 102.705 109.537 102.769C109.369 102.833 109.19 102.861 109.011 102.852C108.745 102.852 108.485 102.773 108.264 102.625C108.043 102.477 107.87 102.267 107.769 102.021C107.667 101.776 107.64 101.505 107.692 101.244C107.744 100.984 107.872 100.744 108.06 100.556C108.248 100.368 108.488 100.24 108.749 100.188C109.009 100.136 109.28 100.163 109.526 100.264C109.771 100.366 109.981 100.539 110.129 100.76C110.277 100.981 110.356 101.241 110.356 101.507Z" fill="#407BFF"/>
<path d="M119.835 97.3458C119.835 100.849 118.335 102.792 115.646 102.792C112.957 102.792 111.437 100.849 111.437 97.3458C111.437 93.8428 112.923 91.9131 115.646 91.9131C118.369 91.9131 119.835 93.8428 119.835 97.3458ZM114.113 97.3458C114.113 99.7932 114.557 100.815 115.646 100.815C116.735 100.815 117.159 99.7932 117.159 97.3458C117.159 94.8984 116.715 93.8697 115.646 93.8697C114.577 93.8697 114.113 94.8782 114.113 97.3458Z" fill="#407BFF"/>
<path d="M129.274 97.3458C129.274 100.849 127.775 102.792 125.086 102.792C122.396 102.792 120.877 100.849 120.877 97.3458C120.877 93.8428 122.363 91.9131 125.086 91.9131C127.809 91.9131 129.274 93.8428 129.274 97.3458ZM123.553 97.3458C123.553 99.7932 123.996 100.815 125.086 100.815C126.175 100.815 126.598 99.7932 126.598 97.3458C126.598 94.8984 126.155 93.8697 125.086 93.8697C124.017 93.8697 123.553 94.8782 123.553 97.3458Z" fill="#407BFF"/>
<path d="M138.716 97.3458C138.716 100.849 137.216 102.792 134.52 102.792C131.824 102.792 130.318 100.849 130.318 97.3458C130.318 93.8428 131.797 91.9131 134.52 91.9131C137.243 91.9131 138.716 93.8428 138.716 97.3458ZM132.994 97.3458C132.994 99.7932 133.438 100.815 134.52 100.815C135.603 100.815 136.04 99.7932 136.04 97.3458C136.04 94.8984 135.596 93.8697 134.52 93.8697C133.444 93.8697 132.994 94.8782 132.994 97.3458Z" fill="#407BFF"/>
<path d="M142.413 101.507C142.426 101.687 142.402 101.867 142.342 102.037C142.282 102.207 142.188 102.363 142.065 102.495C141.942 102.626 141.794 102.732 141.629 102.803C141.464 102.875 141.285 102.912 141.105 102.912C140.925 102.912 140.747 102.875 140.582 102.803C140.417 102.732 140.268 102.626 140.146 102.495C140.023 102.363 139.929 102.207 139.869 102.037C139.809 101.867 139.785 101.687 139.798 101.507C139.785 101.328 139.809 101.148 139.869 100.978C139.929 100.808 140.023 100.652 140.146 100.52C140.268 100.389 140.417 100.283 140.582 100.212C140.747 100.14 140.925 100.103 141.105 100.103C141.285 100.103 141.464 100.14 141.629 100.212C141.794 100.283 141.942 100.389 142.065 100.52C142.188 100.652 142.282 100.808 142.342 100.978C142.402 101.148 142.426 101.328 142.413 101.507Z" fill="#407BFF"/>
<path d="M151.899 97.3458C151.899 100.849 150.4 102.792 147.71 102.792C145.021 102.792 143.501 100.849 143.501 97.3458C143.501 93.8428 144.987 91.9131 147.71 91.9131C150.434 91.9131 151.899 93.8428 151.899 97.3458ZM146.177 97.3458C146.177 99.7932 146.621 100.815 147.71 100.815C148.8 100.815 149.223 99.7932 149.223 97.3458C149.223 94.8984 148.779 93.8697 147.71 93.8697C146.641 93.8697 146.177 94.8782 146.177 97.3458Z" fill="#407BFF"/>
<path d="M161.341 97.3458C161.341 100.849 159.841 102.792 157.145 102.792C154.449 102.792 152.943 100.849 152.943 97.3458C152.943 93.8428 154.422 91.9131 157.145 91.9131C159.868 91.9131 161.341 93.8428 161.341 97.3458ZM155.619 97.3458C155.619 99.7932 156.062 100.815 157.145 100.815C158.227 100.815 158.665 99.7932 158.665 97.3458C158.665 94.8984 158.221 93.8697 157.145 93.8697C156.069 93.8697 155.619 94.8782 155.619 97.3458Z" fill="#407BFF"/>
<path d="M170.807 97.3458C170.807 100.849 169.308 102.792 166.611 102.792C163.915 102.792 162.402 100.849 162.402 97.3458C162.402 93.8428 163.888 91.9131 166.611 91.9131C169.334 91.9131 170.807 93.8428 170.807 97.3458ZM165.085 97.3458C165.085 99.7932 165.529 100.815 166.611 100.815C167.694 100.815 168.124 99.7932 168.124 97.3458C168.124 94.8984 167.68 93.8697 166.611 93.8697C165.542 93.8697 165.058 94.8782 165.058 97.3458H165.085Z" fill="#407BFF"/>
<path d="M100.163 69.4897H95.503L94.7567 71.3857H91.879L96.4847 60.6279H99.3624L103.86 71.3857H100.882L100.163 69.4897ZM99.3355 67.3448L97.8698 63.5191L96.3704 67.3448H99.3355Z" fill="#407BFF"/>
<path d="M105.943 60.6743L107.96 68.4267L109.977 60.6743H112.714L114.731 68.4267L116.748 60.6743H119.626L116.089 71.4321H113.198L111.268 64.1975L109.285 71.4321H106.407L102.89 60.6743H105.943Z" fill="#407BFF"/>
<path d="M126.901 69.4897H122.268L121.515 71.3857H118.638L123.243 60.6279H126.121L130.619 71.3857H127.634L126.901 69.4897ZM126.074 67.3448L124.608 63.5191L123.109 67.3448H126.074Z" fill="#407BFF"/>
<path d="M138.022 71.3989L136.462 68.4271H134.384V71.3989H131.58V60.6411H136.401C139.245 60.6411 140.866 62.0195 140.866 64.4063C140.915 65.1052 140.761 65.8034 140.422 66.4166C140.083 67.0298 139.574 67.5319 138.956 67.8623L141.188 71.3653L138.022 71.3989ZM134.384 66.1948H136.401C137.531 66.1948 138.19 65.6166 138.19 64.5274C138.19 63.4381 137.517 62.907 136.401 62.907H134.384V66.1948Z" fill="#407BFF"/>
<path d="M152.983 66.0269C152.983 69.2273 150.643 71.4058 147.174 71.4058H142.655V60.6479H147.274C150.677 60.6748 152.983 62.8466 152.983 66.0269ZM150.125 66.0605C150.157 65.6609 150.105 65.2592 149.973 64.8809C149.84 64.5026 149.63 64.1561 149.356 63.8637C149.082 63.5712 148.75 63.3393 148.381 63.1826C148.012 63.026 147.615 62.9482 147.214 62.9541H145.459V69.1332H147.355C148.976 69.1332 150.125 67.896 150.125 66.0605Z" fill="#407BFF"/>
<path d="M158.308 62.833C157.636 62.833 157.192 63.0751 157.192 63.5659C157.192 65.3409 162.833 64.3324 162.833 68.185C162.833 70.3702 160.91 71.4863 158.523 71.4863C156.732 71.4814 154.994 70.8806 153.581 69.7785L154.664 67.5866C155.757 68.5213 157.117 69.0882 158.55 69.207C159.377 69.207 159.895 68.9044 159.895 68.3397C159.895 66.5176 154.254 67.6202 154.254 63.8281C154.254 61.811 155.955 60.5537 158.537 60.5537C160.047 60.5568 161.529 60.973 162.82 61.7572L161.764 63.976C160.71 63.3459 159.53 62.9557 158.308 62.833Z" fill="#407BFF"/>
<path d="M111.64 77.0669C111.418 77.0862 111.212 77.1877 111.062 77.3514C110.912 77.5151 110.829 77.729 110.829 77.951C110.829 78.1731 110.912 78.387 111.062 78.5507C111.212 78.7144 111.418 78.8159 111.64 78.8352C111.938 78.8193 112.218 78.6865 112.419 78.4654L112.897 78.9831C112.729 79.16 112.528 79.3021 112.306 79.4013C112.083 79.5005 111.843 79.5549 111.599 79.5613C111.381 79.5755 111.162 79.5447 110.956 79.4709C110.75 79.3971 110.561 79.2818 110.401 79.1321C110.242 78.9824 110.114 78.8016 110.027 78.6007C109.94 78.3999 109.895 78.1834 109.895 77.9645C109.895 77.7456 109.94 77.5291 110.027 77.3282C110.114 77.1274 110.242 76.9465 110.401 76.7969C110.561 76.6472 110.75 76.5319 110.956 76.4581C111.162 76.3842 111.381 76.3534 111.599 76.3676C112.077 76.3727 112.534 76.5659 112.87 76.9055L112.393 77.477C112.302 77.3601 112.189 77.2632 112.059 77.1926C111.93 77.122 111.787 77.0792 111.64 77.0669Z" fill="#407BFF"/>
<path d="M115.62 78.3175C115.642 78.587 115.582 78.8567 115.448 79.0915C115.314 79.3264 115.112 79.5153 114.869 79.6338C114.626 79.7523 114.353 79.7947 114.086 79.7556C113.818 79.7165 113.569 79.5977 113.37 79.4147C113.171 79.2316 113.031 78.9928 112.97 78.7295C112.909 78.4661 112.929 78.1904 113.026 77.9384C113.124 77.6864 113.296 77.4697 113.519 77.3166C113.742 77.1635 114.005 77.0812 114.276 77.0803C114.448 77.061 114.622 77.0789 114.787 77.1327C114.951 77.1865 115.103 77.2751 115.23 77.3923C115.358 77.5096 115.458 77.6529 115.526 77.8125C115.593 77.9721 115.625 78.1443 115.62 78.3175ZM113.778 78.3175C113.792 78.4171 113.835 78.5105 113.901 78.5866C113.967 78.6627 114.053 78.7183 114.15 78.7467C114.246 78.775 114.349 78.775 114.445 78.7467C114.542 78.7183 114.628 78.6627 114.694 78.5866C114.76 78.5105 114.802 78.4171 114.817 78.3175C114.831 78.2178 114.816 78.1162 114.774 78.0248C114.732 77.9333 114.665 77.8559 114.58 77.8017C114.495 77.7474 114.397 77.7188 114.296 77.7191C114.221 77.7213 114.147 77.7391 114.08 77.7715C114.012 77.8039 113.952 77.85 113.903 77.907C113.854 77.964 113.818 78.0306 113.797 78.1024C113.775 78.1742 113.769 78.2498 113.778 78.3242V78.3175Z" fill="#407BFF"/>
<path d="M118.497 78.0013V79.5275H117.69V78.2299C117.696 78.1724 117.689 78.1145 117.67 78.0598C117.652 78.0051 117.622 77.9551 117.582 77.913C117.543 77.8709 117.495 77.8379 117.441 77.816C117.388 77.7941 117.331 77.7839 117.273 77.7861C117.15 77.7878 117.032 77.837 116.944 77.9235C116.857 78.0099 116.806 78.1269 116.802 78.25V79.5275H116.009V77.107H116.802V77.5037C116.885 77.3678 117.003 77.2568 117.144 77.1822C117.285 77.1077 117.443 77.0724 117.602 77.0801C117.724 77.0717 117.847 77.09 117.961 77.1337C118.075 77.1774 118.178 77.2455 118.263 77.3332C118.348 77.4209 118.413 77.5261 118.454 77.6415C118.494 77.7568 118.509 77.8796 118.497 78.0013Z" fill="#407BFF"/>
<path d="M121.361 77.1069V79.3123C121.361 79.9846 120.83 80.4284 120.016 80.4284C119.633 80.4281 119.257 80.3185 118.934 80.1124L119.216 79.561C119.434 79.7168 119.695 79.8013 119.962 79.8031C120.325 79.8031 120.541 79.6148 120.541 79.3392V79.0769C120.462 79.1792 120.36 79.2612 120.243 79.3162C120.126 79.3711 119.997 79.3974 119.868 79.3929C119.722 79.3919 119.577 79.3601 119.443 79.2996C119.309 79.2391 119.19 79.1511 119.092 79.0415C118.994 78.9319 118.921 78.803 118.876 78.6631C118.832 78.5233 118.817 78.3757 118.833 78.2298C118.817 78.0862 118.831 77.9409 118.875 77.8031C118.918 77.6654 118.99 77.5383 119.086 77.43C119.181 77.3217 119.299 77.2346 119.43 77.1744C119.561 77.1141 119.704 77.0819 119.848 77.08C119.983 77.0758 120.116 77.1027 120.239 77.1587C120.361 77.2147 120.469 77.2982 120.554 77.4028V77.1069H121.361ZM120.568 78.2499C120.577 78.18 120.572 78.1088 120.552 78.041C120.532 77.9733 120.498 77.9104 120.453 77.8565C120.407 77.8027 120.351 77.759 120.287 77.7283C120.223 77.6976 120.154 77.6806 120.083 77.6784C119.943 77.6937 119.814 77.7601 119.72 77.865C119.626 77.9698 119.574 78.1057 119.574 78.2466C119.574 78.3874 119.626 78.5233 119.72 78.6282C119.814 78.733 119.943 78.7995 120.083 78.8147C120.155 78.8128 120.226 78.7955 120.291 78.764C120.355 78.7325 120.412 78.6875 120.458 78.6321C120.504 78.5767 120.538 78.5122 120.556 78.4428C120.575 78.3734 120.579 78.3007 120.568 78.2298V78.2499Z" fill="#407BFF"/>
<path d="M123.518 77.08V77.8061C123.075 77.7591 122.779 77.9608 122.739 78.297V79.5274H121.945V77.1069H122.739V77.5103C122.818 77.3753 122.932 77.2641 123.07 77.1883C123.207 77.1126 123.362 77.0752 123.518 77.08Z" fill="#407BFF"/>
<path d="M125.954 77.9544V79.5277H125.174V79.2587C125.083 79.3693 124.966 79.4559 124.834 79.5109C124.701 79.566 124.557 79.5879 124.414 79.5748C124.309 79.5873 124.202 79.5771 124.101 79.5447C124 79.5124 123.907 79.4587 123.829 79.3872C123.75 79.3158 123.688 79.2283 123.647 79.1307C123.605 79.0332 123.585 78.9278 123.587 78.8217C123.587 78.3645 123.917 78.0956 124.515 78.0888H125.147C125.147 77.8602 124.986 77.7258 124.683 77.7258C124.43 77.7375 124.182 77.804 123.957 77.9207L123.742 77.3829C124.093 77.2153 124.476 77.1258 124.865 77.1206C125.564 77.0803 125.954 77.3963 125.954 77.9544ZM125.174 78.7074V78.499H124.697C124.475 78.499 124.361 78.5797 124.361 78.7478C124.361 78.9158 124.482 79.0234 124.69 79.0234C124.794 79.0309 124.898 79.0041 124.985 78.947C125.073 78.8899 125.139 78.8058 125.174 78.7074Z" fill="#407BFF"/>
<path d="M128.065 79.4065C127.858 79.5156 127.626 79.5689 127.392 79.5611C127.287 79.5721 127.18 79.5598 127.079 79.5253C126.979 79.4908 126.887 79.4348 126.81 79.3613C126.733 79.2877 126.673 79.1983 126.635 79.0993C126.596 79.0003 126.579 78.894 126.586 78.7879V77.7525H126.249V77.228H126.586V76.5557H127.379V77.228H128.004V77.7525H127.379V78.6669C127.379 78.8417 127.46 78.9224 127.594 78.9224C127.699 78.9136 127.801 78.8863 127.897 78.8417L128.065 79.4065Z" fill="#407BFF"/>
<path d="M130.815 77.1074V79.5279H130.015V79.138C129.913 79.3058 129.759 79.435 129.576 79.5052C129.393 79.5754 129.192 79.5825 129.004 79.5254C128.816 79.4683 128.653 79.3502 128.54 79.1899C128.428 79.0296 128.371 78.8362 128.381 78.6404V77.1074H129.174V78.4118C129.167 78.4668 129.173 78.5226 129.189 78.5755C129.206 78.6284 129.233 78.6772 129.27 78.7185C129.307 78.7599 129.353 78.7929 129.403 78.8154C129.454 78.8378 129.509 78.8492 129.564 78.8488C129.847 78.8488 130.015 78.6202 130.015 78.3042V77.1074H130.815Z" fill="#407BFF"/>
<path d="M132.24 76.2129V79.5276H131.447V76.2129H132.24Z" fill="#407BFF"/>
<path d="M135.024 77.9542V79.5276H134.244V79.2586C134.154 79.3628 134.041 79.4445 133.914 79.497C133.786 79.5496 133.649 79.5715 133.511 79.5612C133.406 79.5737 133.299 79.5635 133.198 79.5312C133.097 79.4988 133.004 79.4451 132.926 79.3736C132.847 79.3022 132.785 79.2147 132.743 79.1172C132.702 79.0196 132.682 78.9142 132.684 78.8081C132.684 78.3509 133.014 78.082 133.612 78.0753H134.244C134.244 77.8467 134.083 77.7122 133.78 77.7122C133.527 77.7239 133.279 77.7905 133.054 77.9072L132.839 77.3693C133.192 77.2008 133.577 77.1113 133.968 77.1071C134.634 77.0802 135.017 77.3962 135.024 77.9542ZM134.244 78.7073V78.4988H133.767C133.545 78.4988 133.431 78.5795 133.431 78.7476C133.431 78.9157 133.552 79.0233 133.76 79.0233C133.864 79.0308 133.968 79.004 134.055 78.9469C134.143 78.8898 134.209 78.8057 134.244 78.7073Z" fill="#407BFF"/>
<path d="M137.135 79.4065C136.928 79.5156 136.696 79.5689 136.462 79.5611C136.357 79.5721 136.25 79.5598 136.149 79.5253C136.049 79.4908 135.957 79.4348 135.88 79.3613C135.803 79.2877 135.743 79.1983 135.705 79.0993C135.666 79.0003 135.649 78.894 135.656 78.7879V77.7525H135.319V77.228H135.656V76.5557H136.449V77.228H137.074V77.7525H136.449V78.6669C136.449 78.8417 136.53 78.9224 136.664 78.9224C136.769 78.9136 136.871 78.8863 136.967 78.8417L137.135 79.4065Z" fill="#407BFF"/>
<path d="M138.312 77.1075V79.528H137.518V77.1075H138.312ZM138.278 76.4351C138.278 76.5072 138.257 76.5777 138.216 76.6375C138.176 76.6974 138.119 76.7439 138.052 76.7712C137.986 76.7984 137.912 76.8052 137.842 76.7907C137.771 76.7761 137.706 76.7408 137.656 76.6894C137.605 76.6379 137.571 76.5726 137.558 76.5018C137.545 76.4309 137.553 76.3577 137.582 76.2915C137.61 76.2253 137.658 76.169 137.718 76.1299C137.779 76.0909 137.85 76.0707 137.922 76.0721C137.969 76.0702 138.016 76.0781 138.06 76.0953C138.104 76.1126 138.144 76.1387 138.178 76.1722C138.211 76.2057 138.238 76.2457 138.255 76.2898C138.272 76.3339 138.28 76.3811 138.278 76.4284V76.4351Z" fill="#407BFF"/>
<path d="M141.371 78.3175C141.392 78.587 141.332 78.8567 141.198 79.0915C141.064 79.3264 140.863 79.5153 140.619 79.6338C140.376 79.7523 140.103 79.7947 139.836 79.7556C139.568 79.7165 139.319 79.5977 139.12 79.4147C138.921 79.2316 138.782 78.9928 138.72 78.7295C138.659 78.4661 138.679 78.1904 138.777 77.9384C138.875 77.6864 139.046 77.4697 139.269 77.3166C139.492 77.1635 139.756 77.0812 140.026 77.0803C140.198 77.061 140.372 77.0789 140.537 77.1327C140.702 77.1865 140.853 77.2751 140.98 77.3923C141.108 77.5096 141.209 77.6529 141.276 77.8125C141.343 77.9721 141.376 78.1443 141.371 78.3175ZM139.528 78.3175C139.543 78.4171 139.585 78.5105 139.651 78.5866C139.717 78.6627 139.803 78.7183 139.9 78.7467C139.996 78.775 140.099 78.775 140.195 78.7467C140.292 78.7183 140.378 78.6627 140.444 78.5866C140.51 78.5105 140.553 78.4171 140.567 78.3175C140.581 78.2178 140.566 78.1162 140.524 78.0248C140.482 77.9333 140.415 77.8559 140.33 77.8017C140.245 77.7474 140.147 77.7188 140.046 77.7191C139.971 77.7213 139.898 77.7391 139.83 77.7715C139.762 77.8039 139.702 77.85 139.653 77.907C139.605 77.964 139.568 78.0306 139.547 78.1024C139.525 78.1742 139.519 78.2498 139.528 78.3242V78.3175Z" fill="#407BFF"/>
<path d="M144.248 78.0014V79.5277H143.462V78.23C143.467 78.1726 143.461 78.1146 143.442 78.0599C143.424 78.0053 143.394 77.9552 143.354 77.9132C143.315 77.8711 143.267 77.838 143.213 77.8161C143.16 77.7942 143.102 77.784 143.045 77.7863C142.922 77.7879 142.804 77.8372 142.716 77.9236C142.629 78.0101 142.578 78.1271 142.574 78.2502V79.5277H141.781V77.1072H142.567V77.5039C142.651 77.368 142.769 77.2569 142.909 77.1824C143.05 77.1079 143.208 77.0726 143.368 77.0803C143.488 77.0739 143.609 77.0937 143.722 77.1383C143.834 77.1829 143.936 77.2513 144.019 77.3387C144.103 77.4262 144.167 77.5307 144.206 77.645C144.246 77.7594 144.26 77.881 144.248 78.0014Z" fill="#407BFF"/>
<path d="M145.641 77.6246C145.506 77.6246 145.412 77.6784 145.412 77.7792C145.412 78.0952 146.683 77.9473 146.676 78.7878C146.676 79.2853 146.246 79.561 145.654 79.561C145.263 79.5693 144.881 79.4488 144.565 79.2181L144.814 78.7071C145.066 78.8869 145.365 78.9897 145.674 79.0029C145.822 79.0029 145.93 78.9559 145.93 78.855C145.93 78.5255 144.679 78.6936 144.679 77.8532C144.679 77.3489 145.103 77.0732 145.674 77.0732C146.028 77.0755 146.374 77.1731 146.676 77.3556L146.414 77.8734C146.177 77.7359 145.913 77.6511 145.641 77.6246Z" fill="#407BFF"/>
<path d="M74.6587 50.1655L75.2033 49.2511C75.2033 49.2511 76.6623 48.2291 77.5902 48.5787C78.5181 48.9284 78.6727 49.6142 78.5651 50.9387C78.4508 52.4045 77.0725 55.2687 75.8017 54.1593C75.0083 53.487 76.3463 51.2077 76.1581 50.1722L74.6587 50.1655Z" fill="#FFA8A7"/>
<path d="M76.6085 50.1655L77.1464 49.2511C77.1464 49.2511 78.6054 48.2291 79.5332 48.5787C80.4611 48.9284 80.6225 49.6142 80.5149 50.9387C80.3939 52.4045 79.0155 55.2687 77.7515 54.1593C76.9581 53.487 78.2894 51.2077 78.1011 50.1722L76.6085 50.1655Z" fill="#FFA8A7"/>
<path d="M72.6755 50.1655L73.2134 49.2511C73.2134 49.2511 74.6791 48.2291 75.607 48.5787C76.5348 48.9284 76.6895 49.6142 76.5819 50.9387C76.4676 52.4045 75.0893 55.2687 73.8185 54.1593C73.0251 53.487 74.3631 51.2077 74.1748 50.1722L72.6755 50.1655Z" fill="#FFA8A7"/>
<path d="M184.39 50.1655L183.845 49.2511C183.845 49.2511 182.386 48.2291 181.458 48.5787C180.53 48.9284 180.376 49.6142 180.483 50.9387C180.598 52.4045 181.976 55.2687 183.247 54.1593C184.04 53.487 182.702 51.2077 182.89 50.1722L184.39 50.1655Z" fill="#FFA8A7"/>
<path d="M182.419 50.1655L181.882 49.2511C181.882 49.2511 180.423 48.2291 179.495 48.5787C178.567 48.9284 178.405 49.6142 178.513 50.9387C178.634 52.4045 180.012 55.2687 181.283 54.1593C182.07 53.487 180.739 51.2077 180.927 50.1722L182.419 50.1655Z" fill="#FFA8A7"/>
<path d="M186.353 50.1655L185.815 49.2511C185.815 49.2511 184.349 48.2291 183.421 48.5787C182.494 48.9284 182.339 49.6142 182.447 50.9387C182.568 52.4045 183.946 55.2687 185.21 54.1593C186.003 53.487 184.665 51.2077 184.854 50.1722L186.353 50.1655Z" fill="#FFA8A7"/>
</svg>
