<svg width="800" height="800" viewBox="0 0 800 800" fill="none" xmlns="http://www.w3.org/2000/svg">
<rect width="800" height="800" rx="81" fill="white"/>
<path d="M269.861 117.267C265.161 118.229 262.872 120.817 262.427 125.7C262.354 126.849 262.208 210.828 262.127 312.338C262.014 476.943 261.941 497.133 261.424 499.348C260.17 504.677 257.468 508.332 253.285 510.329C248.957 512.367 249.621 512.326 215.66 512.545L184.03 512.763L182.105 513.612C179.807 514.687 178.958 515.536 177.849 517.938L177 519.79V590.792L177.849 592.643C178.958 595.045 179.807 595.894 182.105 596.969L184.03 597.818L215.11 598.037C242.413 598.223 246.522 598.336 248.779 598.886C256.254 600.664 259.919 604.691 261.399 612.607C261.917 615.453 262.03 620.337 262.249 646.075L262.467 676.211L263.575 678.426C264.57 680.383 264.943 680.755 266.908 681.758L269.125 682.865L303.902 682.979C328.026 683.051 339.27 682.938 340.637 682.647C343.453 682.089 345.483 680.391 346.632 677.69L347.554 675.475L347.74 643.301C347.958 607.578 347.781 609.793 350.442 605.621C353.144 601.368 356.995 599.557 364.389 599.072C367.123 598.886 389.879 598.772 414.892 598.772C462.209 598.845 464.652 598.813 478.161 597.22C520.268 592.336 556.154 576.286 587.307 548.405C621.049 518.156 643.433 476.368 650.018 431.217C651.87 418.344 652.534 400.224 651.539 388.507C647.429 340.17 625.304 294.21 590.753 262.182C565.521 238.773 537.847 223.313 506.807 215.251C496.525 212.623 487.456 211.039 475.581 209.818C466.666 208.896 443.578 208.896 435.44 209.818C415.903 212.001 399.886 216.181 381.166 223.984C371.063 228.197 357.529 235.296 349.9 240.479L347.756 241.919L347.683 183.377C347.57 128.239 347.538 124.722 346.907 122.878C346.09 120.509 344.351 118.698 341.948 117.776C340.249 117.113 338.437 117.073 305.763 117C286.857 117 270.686 117.113 269.877 117.259L269.861 117.267ZM467.248 295.18C491.558 297.436 515.123 309.007 534.433 328.243C552.861 346.582 562.698 368.074 564.955 394.992C565.546 401.946 565.174 414.148 564.179 420.657C560.846 442.626 550.604 462.703 534.061 479.643C515.56 498.58 494.511 508.639 466.504 511.89C464.174 512.189 444.638 512.407 408.598 512.553L354.212 512.771L352.327 513.62C349.997 514.695 348.776 515.916 347.667 518.318L346.818 520.17L346.632 552.157C346.413 583.409 346.413 584.185 345.637 586.441C344.715 589.255 342.975 592.061 341.163 593.614C339.464 595.134 335.913 596.791 333.357 597.276C330.655 597.794 278.638 597.794 275.936 597.276C271.163 596.355 266.649 593.169 264.619 589.215C262.435 585.148 262.475 585.52 262.475 555.489C262.475 530.301 262.548 527.754 263.139 525.571C264.732 519.806 268.098 516.329 273.938 514.404C275.087 514.032 282.481 513.887 307.607 513.701C343.752 513.483 341.907 513.628 344.828 510.709C347.748 507.79 347.53 512.148 347.748 450.097C348.007 389.858 347.894 393.076 350.151 381.869C354.107 362.228 363.321 344.221 376.936 329.545C390.51 314.902 409.901 303.735 431.282 298.293C443.416 295.188 455.85 294.113 467.24 295.188L467.248 295.18Z" fill="url(#paint0_linear_221_489)"/>
<defs>
<linearGradient id="paint0_linear_221_489" x1="177" y1="400.014" x2="651.992" y2="400.014" gradientUnits="userSpaceOnUse">
<stop offset="0.05" stop-color="#1C75BC"/>
<stop offset="0.17" stop-color="#225CAC"/>
<stop offset="0.33" stop-color="#28449D"/>
<stop offset="0.48" stop-color="#2C3595"/>
<stop offset="0.6" stop-color="#2E3192"/>
</linearGradient>
</defs>
</svg>
