<svg width="44" height="44" viewBox="0 0 44 44" fill="none" xmlns="http://www.w3.org/2000/svg">
<mask id="mask0_2_2545" style="mask-type:luminance" maskUnits="userSpaceOnUse" x="0" y="0" width="45" height="45">
<path fill-rule="evenodd" clip-rule="evenodd" d="M0 0H44.021V44.021H0V0Z" fill="white"/>
</mask>
<g mask="url(#mask0_2_2545)">
<path d="M43.9989 22.0015C43.9989 9.85194 34.1483 -1.14441e-05 21.9973 -1.14441e-05C9.84909 -1.14441e-05 0 9.85194 0 22.0015C0 34.1511 9.84909 44.0003 21.9973 44.0003C34.1483 44.0003 43.9989 34.1511 43.9989 22.0015Z" fill="#F40009"/>
<path d="M19.5351 27.8707C18.5892 27.204 17.4369 26.9097 16.3892 26.9556C15.3303 26.9961 14.8546 27.7843 14.8546 27.7843C14.3775 26.9556 13.4344 26.4409 11.9738 26.4548C9.6176 26.4841 7.28089 27.5723 5.42827 27.5723C3.64951 27.5723 2.3534 26.4548 2.39668 24.4711C2.47205 20.9959 5.4087 17.8641 7.60454 16.4508C8.86556 15.6403 9.92307 15.3989 10.6151 15.4784C11.1186 15.5356 11.7241 16.1173 11.3433 16.9726C10.7824 18.2337 10.0054 18.1249 10.0334 17.5264C10.05 17.1345 10.3095 16.8902 10.5048 16.755C10.6303 16.6684 10.8494 16.6462 10.961 16.6434C11.0727 16.5499 11.1577 15.8593 10.2538 16.0881C9.34967 16.3169 8.26014 17.2013 7.22367 18.3482C6.18573 19.4934 4.57018 21.6642 4.17264 23.9382C3.9871 24.9956 4.11129 26.9208 6.61262 26.8985C8.73308 26.8803 11.8621 25.4838 14.736 25.5062C15.8535 25.5159 16.8245 25.8173 17.582 26.286C18.327 26.7463 19.2198 27.4146 19.5351 27.8707ZM20.2159 21.5666H20.6497C20.6497 21.5666 18.4734 24.7152 17.2402 24.5743C16.5538 24.4962 16.7575 23.6438 16.7575 23.6438C16.7575 23.6438 15.7893 24.7765 14.9063 24.5506C14.1026 24.3427 14.6203 23.0048 14.6203 23.0048C14.5295 23.0452 12.7886 25.0068 11.5665 24.5365C10.29 24.0455 10.9513 22.4022 11.1954 21.9055C11.4005 21.4912 11.6293 21.0866 11.6293 21.0866C11.6293 21.0866 11.4312 21.1424 11.3112 21.1689C11.1884 21.1983 11.0028 21.2331 11.0028 21.2331C11.0028 21.2331 10.3988 22.2166 10.0277 22.7091C9.65938 23.196 8.08715 24.8881 7.16221 24.5506C6.23591 24.2143 6.46471 22.9198 6.98645 21.8902C7.82909 20.2175 9.82963 18.1696 11.0349 18.4736C12.2528 18.7847 11.2457 20.7616 11.2457 20.7616C11.2457 20.7616 11.4869 20.7951 12.0672 20.3946C12.9044 19.8255 14.0064 18.2924 15.2021 18.4709C15.7613 18.5546 16.286 19.1321 15.5717 20.2231C15.343 20.5747 14.9592 20.8899 14.6635 20.5774C14.4807 20.3891 14.6398 20.0361 14.8323 19.7962C15.103 19.4544 15.4768 19.4991 15.4768 19.4991C15.4768 19.4991 15.6749 19.0471 15.1741 19.0541C14.7668 19.061 13.74 20.011 13.1583 20.9694C12.6253 21.8456 11.819 23.3453 12.6295 23.6717C13.3717 23.9717 14.7848 22.292 15.4405 21.4132C16.0949 20.5342 17.5848 18.5364 18.8347 18.4583C19.2645 18.4276 19.5225 18.8196 19.5225 18.8196L19.6675 18.5908H20.9162C20.9162 18.5908 18.5613 22.5278 18.3772 22.8262C18.232 23.0593 18.041 23.5838 18.5725 23.2895C19.1068 22.9937 20.2159 21.5666 20.2159 21.5666ZM10.5161 21.1689C10.495 21.1591 10.1797 21.0713 9.87427 20.8717C9.5673 20.6779 9.42504 20.3863 9.41388 20.3654C9.40271 20.3431 9.3888 20.3612 9.37763 20.3779C9.36508 20.3932 9.29946 20.4797 8.85313 21.134C8.40667 21.787 7.74818 23.1276 8.36763 23.3565C8.76243 23.5056 9.42781 22.8081 9.78912 22.3477C10.1225 21.921 10.5202 21.2623 10.5383 21.2247C10.5537 21.1857 10.5383 21.1759 10.5161 21.1689ZM11.0112 19.0763C10.6834 18.8265 9.8492 19.4056 9.84643 19.9999C9.84077 20.6095 10.5983 20.7825 10.696 20.7867C10.696 20.7867 10.7824 20.8076 10.8159 20.7379C10.8368 20.6918 10.9401 20.5021 11.0559 20.2021C11.1703 19.898 11.3168 19.3079 11.0112 19.0763ZM17.3811 22.352C17.886 21.66 19.277 19.234 19.277 19.234C19.277 19.234 19.2547 19.0637 19.0928 19.0553C18.8989 19.0485 18.5809 19.1113 17.9405 19.9134C17.3002 20.7128 16.8077 21.3503 16.4464 22.0115C16.0502 22.7329 15.8772 23.2407 16.1046 23.3829C16.1674 23.4192 16.265 23.4233 16.3431 23.4066C16.4911 23.3675 16.6849 23.221 16.9513 22.9128C17.0755 22.7704 17.215 22.5807 17.3811 22.352ZM22.9976 18.5951H21.8118L21.1422 19.6832H22.328L22.9976 18.5951ZM40.5196 16.6476C39.6448 17.2125 38.427 17.7217 37.2593 17.6088C36.9636 17.917 36.6483 18.27 36.3288 18.655C38.3572 19.0553 40.129 17.8012 41.0734 16.7298C41.6621 16.063 41.9509 15.4659 41.9509 15.4659C41.9509 15.4659 41.3888 16.0881 40.5196 16.6476ZM37.0487 25.8535C36.8784 26.1214 36.6887 26.6362 37.244 26.3168C37.9192 25.9219 38.8818 24.4627 38.8818 24.4627H39.3157C39.3157 24.4627 38.7437 25.3723 37.9959 26.2009C37.3096 26.9571 36.4752 27.6503 35.8866 27.5821C35.1989 27.5012 35.4137 26.5986 35.4137 26.5986C35.4137 26.5986 34.4273 27.6462 33.748 27.5723C32.8313 27.4718 33.1105 26.3321 33.1105 26.3321C33.1105 26.3321 32.0711 27.6099 31.3639 27.5723C30.2534 27.5081 30.531 26.1493 30.8406 25.2048C31.0067 24.6942 31.1587 24.2952 31.1587 24.2952C31.1587 24.2952 31.0485 24.3259 30.8127 24.358C30.6886 24.3776 30.4626 24.3916 30.4626 24.3916C30.4626 24.3916 30.0009 25.2077 29.6325 25.6959C29.2615 26.1897 27.692 27.8791 26.7657 27.5388C25.9105 27.229 26.1922 25.9164 26.6904 24.877C27.4157 23.3606 29.4582 21.1801 30.6384 21.4647C31.859 21.7633 30.6662 23.9925 30.6662 23.9925C30.6662 23.9925 30.6662 23.9981 30.6789 24.0023C30.7054 24.0135 30.7667 24.0205 30.9146 23.9925C31.1504 23.9466 31.361 23.8586 31.361 23.8586C31.361 23.8586 32.5887 21.2876 33.9447 19.6023C35.3021 17.9198 38.0071 15.0209 39.0702 15.7212C39.3309 15.8928 39.2124 16.487 38.8623 17.207C38.7102 17.2544 38.5484 17.3018 38.3837 17.3338C38.6167 16.907 38.773 16.5527 38.819 16.3015C38.9766 15.4325 36.9482 17.2628 35.4974 19.2353C34.0493 21.2094 33.1788 22.9979 33.1788 22.9979C33.1788 22.9979 33.4718 22.8305 33.9279 22.465C34.4036 22.0799 35.0565 21.48 35.7695 20.742C36.2479 20.251 36.8102 19.6288 37.3374 18.934C37.4938 18.9258 37.6472 18.9103 37.7978 18.8839C37.212 19.6776 36.5925 20.3975 36.0679 20.9303C35.4932 21.5163 34.8653 22.1441 34.32 22.603C33.4537 23.3327 32.7853 23.747 32.7853 23.747C32.7853 23.747 31.5145 26.3028 32.2036 26.4687C32.6111 26.5637 33.4118 25.3304 33.4118 25.3304C33.4118 25.3304 34.4566 23.7344 35.0859 23.0146C35.9466 22.0381 36.6859 21.4745 37.4254 21.4619C37.8564 21.4522 38.1089 21.9111 38.1089 21.9111L38.3127 21.6H39.564C39.564 21.6 37.2342 25.555 37.0487 25.8535ZM30.0287 24.2938C30.005 24.2854 29.7358 24.1641 29.4554 23.9312C29.1749 23.6954 29.0312 23.4261 29.0228 23.408C29.0117 23.3871 28.9992 23.4024 28.9866 23.4192C28.9727 23.4373 28.9224 23.4778 28.476 24.1363C28.0323 24.7905 27.3489 26.1409 27.9696 26.3697C28.363 26.5161 29.0257 25.8229 29.3843 25.3625C29.7191 24.9314 30.0301 24.3916 30.0483 24.3497C30.0663 24.3134 30.0496 24.3008 30.0287 24.2938ZM30.6578 23.189C30.7737 22.889 30.9201 22.2989 30.6133 22.0674C30.2868 21.819 29.4526 22.3993 29.447 22.9909C29.4427 23.5977 30.0371 23.8739 30.1794 23.9102C30.2603 23.9325 30.2868 23.9312 30.3287 23.8655C30.3537 23.8195 30.5422 23.4931 30.6578 23.189ZM37.8286 22.3561C37.8536 22.3101 37.8648 22.271 37.8648 22.271C37.8648 22.271 37.8411 22.1008 37.6793 22.0924C37.4867 22.0827 37.223 22.1232 36.5339 22.8863C35.8461 23.6451 35.429 24.3079 35.0677 24.9691C34.6715 25.6903 34.5139 26.2289 34.7413 26.367C34.8054 26.4046 34.9031 26.4102 34.9798 26.3893C35.1333 26.3543 35.3077 26.2093 35.5741 25.9037C35.6982 25.7614 35.8364 25.5578 35.9997 25.3304C36.4544 24.7068 37.5997 22.7509 37.8286 22.3561ZM40.5196 16.6476C39.6448 17.2125 38.427 17.7217 37.2593 17.6088C36.9636 17.917 36.6483 18.27 36.3288 18.655C38.3572 19.0553 40.129 17.8012 41.0734 16.7298C41.6621 16.063 41.9509 15.4659 41.9509 15.4659C41.9509 15.4659 41.3888 16.0881 40.5196 16.6476ZM34.8263 18.118C33.8694 17.6255 33.1704 17.0242 32.4394 16.6518C31.7433 16.2945 31.2955 16.1467 30.7332 16.2207C30.6397 16.2331 30.5003 16.2764 30.5003 16.2764C30.5003 16.2764 30.7919 17.2656 29.6396 18.9299C28.4733 20.6137 27.4157 20.6053 27.1144 20.138C26.7992 19.6483 27.2051 18.6523 27.8859 17.7705C28.596 16.8428 29.8459 16.0727 29.8459 16.0727C29.8459 16.0727 29.447 15.8301 28.4676 16.3825C27.5135 16.9251 25.8687 18.2114 24.3452 20.3835C22.8232 22.5501 22.5205 23.747 22.3001 24.6858C22.0797 25.6233 22.2819 26.6321 23.324 26.6321C24.369 26.6321 25.5798 25.0402 25.9216 24.4893C26.555 23.4582 26.9694 21.8804 26.1058 22.0981C25.6789 22.2027 25.3329 22.6784 25.1154 23.1304C24.8921 23.5977 24.8028 24.0455 24.8028 24.0455C24.8028 24.0455 24.4429 24.1725 23.9574 24.5365C23.4746 24.898 23.1594 25.2453 23.1594 25.2453C23.1594 25.2453 23.1608 24.4962 23.7593 23.2783C24.3592 22.0632 25.4585 21.5052 26.0793 21.4535C26.6415 21.4089 27.3711 21.8846 26.7531 23.6438C26.1338 25.4001 24.3118 27.536 22.3935 27.5625C20.626 27.5905 19.4667 25.3304 21.9262 21.3865C24.6466 17.0299 27.8468 15.692 28.8862 15.5454C29.9241 15.392 30.2603 15.8524 30.2603 15.8524C30.2603 15.8524 31.1294 15.4492 32.233 15.5231C33.5025 15.611 34.4831 16.5052 35.775 17.1345C35.4374 17.4637 35.1165 17.8012 34.8263 18.118ZM30.1068 16.4075C30.1068 16.4075 29.3647 16.7061 28.5025 17.6548C27.6375 18.609 27.1381 19.6748 27.5106 19.9581C27.653 20.0668 27.9807 20.085 28.5806 19.5465C29.0467 19.1266 29.5195 18.5797 29.8445 17.7915C30.2283 16.8498 30.1068 16.4202 30.1068 16.4075Z" fill="white"/>
</g>
</svg>
