<svg width="800" height="800" viewBox="0 0 800 800" fill="none" xmlns="http://www.w3.org/2000/svg">
<rect width="800" height="800" rx="232" fill="white"/>
<path d="M519.806 328.275C500.517 309.058 476.97 297.487 452.695 295.232C441.309 294.157 428.897 295.232 416.776 298.335C395.418 303.765 376.048 314.925 362.489 329.567C348.889 344.242 339.685 362.238 335.733 381.858C333.479 393.058 333.592 389.842 333.333 450.044C333.115 512.056 333.333 507.701 330.416 510.618C327.499 513.535 329.341 513.39 293.236 513.608C268.145 513.794 260.751 513.939 259.604 514.311C253.761 516.234 250.4 519.709 248.816 525.47C248.226 527.652 248.153 530.198 248.153 555.369C248.153 585.382 248.113 585.01 250.295 589.074C252.331 593.026 256.84 596.21 261.6 597.131C264.299 597.648 316.258 597.648 318.957 597.131C321.511 596.654 325.058 594.99 326.755 593.47C328.565 591.919 330.303 589.107 331.224 586.303C332 584.048 332 583.273 332.218 552.04L332.404 520.073L333.252 518.222C334.359 515.822 335.58 514.602 337.907 513.527L339.79 512.679L394.117 512.46C430.117 512.315 449.624 512.089 451.959 511.798C479.935 508.549 500.961 498.497 519.442 479.571C535.959 462.642 546.198 442.578 549.527 420.622C550.521 414.117 550.893 401.923 550.303 394.974C548.048 368.072 538.214 346.594 519.814 328.266L519.806 328.275Z" fill="url(#paint0_linear_221_488)"/>
<path d="M719.192 0H80.8081C36.1778 0 0 36.1778 0 80.8081V719.192C0 763.822 36.1778 800 80.8081 800H719.192C763.822 800 800 763.822 800 719.192V80.8081C800 36.1778 763.822 0 719.192 0ZM635.265 431.2C628.687 476.323 606.327 518.085 572.622 548.315C541.503 576.178 505.657 592.218 463.596 597.099C450.109 598.691 447.669 598.723 400.396 598.651C375.41 598.651 352.687 598.764 349.947 598.949C342.554 599.426 338.715 601.244 336.016 605.495C333.358 609.673 333.543 607.451 333.317 643.152L333.131 675.305L332.21 677.519C331.063 680.218 329.034 681.915 326.222 682.473C324.857 682.772 313.616 682.877 289.527 682.804L254.788 682.691L252.574 681.584C250.618 680.59 250.246 680.218 249.244 678.255L248.137 676.04L247.919 645.923C247.701 620.202 247.588 615.321 247.071 612.477C245.592 604.566 241.931 600.541 234.465 598.764C232.21 598.206 228.105 598.101 200.832 597.915L169.786 597.697L167.863 596.848C165.568 595.774 164.719 594.925 163.612 592.525L162.764 590.675V519.717L163.612 517.867C164.719 515.467 165.568 514.618 167.863 513.543L169.786 512.695L201.382 512.477C235.305 512.259 234.642 512.291 238.966 510.263C243.143 508.267 245.842 504.606 247.095 499.289C247.612 497.075 247.685 476.889 247.798 312.396C247.871 210.949 248.016 127.014 248.097 125.875C248.541 120.994 250.828 118.408 255.523 117.446C256.339 117.301 272.485 117.188 291.37 117.188C324 117.261 325.81 117.301 327.515 117.964C329.915 118.885 331.653 120.695 332.469 123.063C333.099 124.913 333.131 128.42 333.244 183.523L333.317 242.028L335.459 240.59C343.071 235.418 356.598 228.323 366.691 224.105C385.39 216.307 401.398 212.129 420.905 209.947C429.034 209.026 452.097 209.026 461.002 209.947C472.865 211.168 481.923 212.76 492.194 215.378C523.2 223.434 550.844 238.885 576.048 262.279C610.57 294.287 632.671 340.218 636.768 388.525C637.762 400.242 637.099 418.352 635.248 431.208L635.265 431.2Z" fill="url(#paint1_linear_221_488)"/>
<defs>
<linearGradient id="paint0_linear_221_488" x1="294.359" y1="540.63" x2="581.907" y2="273.616" gradientUnits="userSpaceOnUse">
<stop offset="0.05" stop-color="#1C75BC"/>
<stop offset="0.17" stop-color="#225CAC"/>
<stop offset="0.33" stop-color="#28449D"/>
<stop offset="0.48" stop-color="#2C3595"/>
<stop offset="0.6" stop-color="#2E3192"/>
</linearGradient>
<linearGradient id="paint1_linear_221_488" x1="146.699" y1="635.208" x2="961.244" y2="-121.156" gradientUnits="userSpaceOnUse">
<stop offset="0.05" stop-color="#1C75BC"/>
<stop offset="0.17" stop-color="#225CAC"/>
<stop offset="0.33" stop-color="#28449D"/>
<stop offset="0.48" stop-color="#2C3595"/>
<stop offset="0.6" stop-color="#2E3192"/>
</linearGradient>
</defs>
</svg>
