<svg width="43" height="44" viewBox="0 0 43 44" fill="none" xmlns="http://www.w3.org/2000/svg">
<path d="M19.6785 0.00103462C32.4907 0.00103462 42.3303 8.81431 42.3303 21.8942C42.3303 35.0441 32.4907 44.0003 19.6785 44.0003H5.3097C2.4072 44.0003 0 42.0811 0 38.7409V5.47341C0 2.1325 2.4072 0.000305176 5.3097 0.000305176L19.6785 0.00103462Z" fill="#FF6900"/>
<path d="M9.99708 23.0548C9.99708 19.0026 8.70011 15.3182 9.12611 13.0102L9.02253 12.8767C7.54684 14.4166 6.58688 14.0095 6.48256 13.5135C6.27248 12.5207 7.99983 11.3054 8.98678 10.8831C9.00575 10.8182 9.03128 10.7503 9.05827 10.6817C8.13478 10.824 7.05008 10.7073 7.01215 10.0464C6.96765 9.26296 8.54036 8.56341 10.596 8.73702C10.6346 8.70419 10.6747 8.67137 10.7149 8.63854C10.5857 8.58675 10.4472 8.52256 10.2743 8.43357C9.74323 8.16002 9.61411 7.70557 9.78772 7.37513C9.97811 7.01186 10.5595 6.87034 11.0307 6.88056C11.7704 6.89587 12.3999 7.07532 12.8602 7.26206C12.912 7.24018 12.9645 7.21829 13.0141 7.19933C12.8434 7.06584 12.6946 6.92068 12.6078 6.77187C12.4809 6.55376 12.4495 6.25395 12.6953 6.05992C12.9827 5.83306 13.7122 5.75282 14.3716 6.3517C14.508 6.47498 14.6233 6.59534 14.7276 6.71059C14.8013 6.69673 14.8749 6.68214 14.9493 6.67047C14.8407 6.5027 14.7539 6.32763 14.7261 6.16496C14.6875 5.94248 14.7604 5.70322 15.0216 5.6186C15.3068 5.52596 15.6679 5.67258 15.8553 5.9505C16.0559 6.24812 16.1792 6.6143 16.2565 6.87472C14.8027 7.04395 10.9468 7.92441 10.9468 12.5849C10.9468 17.1294 14.7225 21.9037 14.7225 28.948C14.7167 31.5077 14.1521 34.0754 11.8317 37.0661C10.0401 39.3756 7.19378 41.6041 2.75578 43.4335C3.5166 43.8048 4.38757 44.0003 5.3096 44.0003H6.90492C10.5763 41.9666 12.3984 40.1021 13.6611 38.3529C16.123 39.45 18.4916 39.9212 20.626 39.9212C24.6278 39.9212 28.0387 38.0779 29.8171 34.7902C31.6473 33.6917 32.8611 31.4333 32.9377 29.8197C34.0779 28.3856 34.2887 26.5751 33.9385 25.3533C33.8546 25.0622 33.6183 25.0535 33.2083 25.3029C29.6026 27.465 26.1107 28.4943 22.7786 28.4943C20.758 28.4943 18.6856 28.1733 16.4805 27.5351C16.3229 25.1716 15.8378 23.1897 15.6569 21.9883C15.3994 20.4017 15.7656 19.228 17.5068 19.228C18.7841 19.228 21.1475 19.5526 23.0361 20.4112C24.9064 21.2618 26.0196 22.9359 26.7972 22.9359C27.113 22.9359 27.4449 22.7396 27.4449 22.0715C27.4449 20.7176 26.962 18.538 26.3617 17.7611C28.1116 17.6612 29.502 17.6794 30.284 17.7677C31.9136 18.0507 31.9902 18.8684 32.3111 19.4017C32.6321 19.9349 33.1762 20.1669 33.8306 20.1669C35.0422 20.1669 35.7979 19.5417 35.7979 17.2855C35.7979 12.3296 32.6693 9.92749 29.3882 9.92749C26.6943 9.92749 25.6541 10.5198 23.0959 10.5198C21.281 10.5198 19.7776 6.82731 17.7154 6.34222C16.8044 4.31652 14.7619 4.0882 13.5036 5.10579C12.3612 4.41062 10.5748 4.78556 10.5011 6.06867C9.18665 5.66164 7.48921 6.37067 8.22085 8.09802C5.00688 8.1892 4.40726 11.0312 6.58833 11.3485C3.78066 12.9372 5.06377 15.6814 7.41991 15.0979C7.58623 17.047 8.37623 20.1938 8.37623 22.3669C8.37623 25.389 7.00558 26.0908 5.13161 26.0908C3.65082 26.0908 1.47704 25.5531 0.00427246 25.133V27.2404C1.49455 27.6109 3.7296 28.0865 5.40662 28.0865C8.35872 28.0873 9.99708 26.3548 9.99708 23.0548ZM16.5089 29.9007C18.5317 30.4624 21.3277 30.7622 23.6474 30.5995C27.7243 30.3136 30.7851 28.7956 32.5081 27.6905C31.473 30.3048 27.5908 31.9286 23.8268 32.3881C23.8027 32.5785 23.7743 32.7645 23.74 32.944C26.5637 32.7937 29.2452 31.8761 30.4605 31.0379C29.7653 33.6092 26.3113 34.6429 23.1761 34.7917C23.0879 34.9938 22.9945 35.1841 22.8982 35.365C24.724 35.3979 26.4726 35.0594 27.5142 34.7311C26.5769 36.5205 23.3417 37.9342 20.0468 37.9342C18.4274 37.9342 16.4068 37.6183 14.6532 36.7838C15.9203 34.4656 16.4083 32.0898 16.5089 29.9007ZM24.6642 15.405C25.1085 14.081 25.4944 13.0824 26.2151 12.3208C26.9744 11.5184 27.8177 11.2675 29.669 11.2675C32.2258 11.2675 34.3616 13.852 34.3616 17.4642C34.3616 18.0011 33.6409 17.9975 33.4097 17.5065C32.5402 15.971 31.3621 15.75 29.5064 15.6136C28.1372 15.5334 26.4857 15.6493 24.9815 15.7135C24.7007 15.7281 24.6219 15.5319 24.6642 15.405Z" fill="black"/>
<path d="M0 33.6676C1.54499 33.3605 3.06517 33.076 3.06517 33.076L3.25921 32.243C2.56185 32.2079 1.1788 32.224 0 32.2561V33.6676Z" fill="black"/>
<path d="M16.6509 8.7946C17.1907 8.61296 17.9661 9.14547 18.3811 9.97996C18.7962 10.8145 18.6941 11.6417 18.1543 11.8196C17.6189 12.0093 16.8471 11.4768 16.4298 10.6379C16.3737 10.5249 16.3292 10.4125 16.292 10.3017L16.3861 10.2754C16.559 10.4395 16.7654 10.4847 16.9033 10.3965C17.0929 10.2717 17.0732 9.94057 16.9127 9.65462C16.7982 9.42047 16.5334 9.17537 16.3146 9.19361L16.2767 9.14401C16.3584 8.97696 16.4824 8.85295 16.6509 8.7946ZM20.4346 17.1921C18.0171 16.661 15.3714 15.9593 13.9606 13.8855C13.9344 13.8468 13.8862 13.8293 13.841 13.8424C13.7965 13.8548 13.7644 13.8957 13.7622 13.9424C13.7571 14.0554 13.7724 14.1794 13.798 14.3027L13.6069 14.3749C13.2348 13.8512 13.159 13.2151 13.5281 12.7577C14.0591 12.0998 15.1365 12.1669 15.7799 12.5732L15.6982 12.7504C15.3532 12.6928 15.0242 12.6928 14.7674 12.8489C14.5493 12.9817 14.5194 13.1786 14.6536 13.4281C15.8251 15.6055 19.2317 16.0782 23.2794 15.7631C23.6974 15.7303 23.7937 15.5421 23.8477 15.3407C24.1993 13.9387 24.8368 12.6884 25.7858 11.7358C25.0476 11.8393 24.3612 11.8627 23.7623 11.8955C21.6717 12.0275 20.4761 11.7533 20.1026 11.4549L20.1705 11.2733C20.393 11.3499 20.6242 11.3674 20.6716 11.3017C20.7365 11.2135 20.6869 11.158 20.5848 11.0683C20.188 10.6963 18.4045 8.86827 18.4081 8.87848C18.2155 7.33277 15.9645 7.2766 15.0672 8.79751L14.7623 8.71582C14.8513 8.38246 14.9848 8.11037 15.1088 7.91269C13.229 8.33723 12.1596 10.0245 11.9656 11.6541C11.1325 18.659 21.7563 17.0404 24.793 19.8458C24.8507 19.8911 24.9951 20.0968 25.0987 19.9669C25.2169 19.5854 23.879 17.9544 20.4346 17.1921Z" fill="white"/>
<path d="M32.5052 27.686C30.783 28.7904 27.7193 30.3106 23.6445 30.5966C21.3263 30.7592 18.5267 30.458 16.5054 29.8963C16.474 30.5703 16.4061 31.2662 16.2902 31.9687C17.4296 32.2612 19.4582 32.6478 22.3848 32.7309C22.2542 33.518 21.4554 36.1886 19.41 37.9152C23.1383 38.0713 26.5164 36.6219 27.5099 34.7267C26.4682 35.055 24.719 35.3935 22.8939 35.3606C22.9902 35.1805 23.0836 34.9893 23.1718 34.7873C26.3056 34.6392 29.761 33.6034 30.4562 31.0335C29.2409 31.8709 26.5572 32.7893 23.7357 32.9396C23.77 32.7601 23.7984 32.5748 23.8225 32.3837C27.5858 31.9249 31.4709 30.2982 32.5052 27.686Z" fill="white"/>
</svg>
