<svg width="375" height="812" viewBox="0 0 375 812" fill="none" xmlns="http://www.w3.org/2000/svg">
<rect width="375" height="812" fill="url(#paint0_linear_294_13806)"/>
<g filter="url(#filter0_d_294_13806)">
<path d="M202.676 258.213C200.313 255.859 197.428 254.442 194.455 254.165C193.06 254.034 191.54 254.165 190.055 254.545C187.438 255.211 185.066 256.578 183.405 258.371C181.739 260.169 180.611 262.374 180.127 264.777C179.851 266.149 179.865 265.755 179.833 273.13C179.806 280.726 179.833 280.193 179.476 280.55C179.118 280.907 179.344 280.89 174.921 280.916C171.847 280.939 170.942 280.957 170.801 281.002C170.085 281.238 169.674 281.664 169.48 282.37C169.407 282.637 169.398 282.949 169.398 286.032C169.398 289.709 169.393 289.663 169.661 290.161C169.91 290.645 170.463 291.035 171.046 291.148C171.376 291.211 177.741 291.211 178.072 291.148C178.385 291.09 178.819 290.886 179.027 290.7C179.249 290.509 179.462 290.165 179.575 289.821C179.67 289.545 179.67 289.45 179.696 285.624L179.719 281.708L179.823 281.482C179.959 281.188 180.108 281.038 180.393 280.906L180.624 280.803L187.279 280.776C191.689 280.758 194.079 280.73 194.365 280.695C197.792 280.297 200.367 279.065 202.631 276.747C204.655 274.673 205.909 272.215 206.317 269.526C206.438 268.729 206.484 267.235 206.412 266.384C206.136 263.088 204.931 260.457 202.677 258.212L202.676 258.213Z" fill="white"/>
<path d="M227.101 218H148.899C143.432 218 139 222.432 139 227.899V306.101C139 311.568 143.432 316 148.899 316H227.101C232.568 316 237 311.568 237 306.101V227.899C237 222.432 232.568 218 227.101 218ZM216.82 270.822C216.014 276.35 213.275 281.465 209.146 285.169C205.334 288.582 200.943 290.547 195.791 291.145C194.138 291.34 193.839 291.344 188.049 291.335C184.988 291.335 182.204 291.349 181.869 291.371C180.963 291.43 180.493 291.652 180.162 292.173C179.836 292.685 179.859 292.413 179.831 296.786L179.809 300.725L179.696 300.996C179.555 301.327 179.307 301.535 178.962 301.603C178.795 301.64 177.418 301.652 174.467 301.643L170.212 301.63L169.94 301.494C169.701 301.372 169.655 301.327 169.532 301.086L169.397 300.815L169.37 297.126C169.343 293.975 169.33 293.377 169.266 293.028C169.085 292.059 168.637 291.566 167.722 291.349C167.446 291.28 166.943 291.267 163.602 291.245L159.799 291.218L159.563 291.114C159.282 290.982 159.178 290.878 159.042 290.584L158.939 290.358V281.665L159.042 281.439C159.178 281.145 159.282 281.041 159.563 280.909L159.799 280.805L163.669 280.778C167.825 280.752 167.744 280.756 168.273 280.507C168.785 280.263 169.116 279.814 169.269 279.163C169.332 278.892 169.341 276.419 169.355 256.269C169.364 243.841 169.382 233.559 169.392 233.42C169.446 232.822 169.726 232.505 170.302 232.387C170.402 232.369 172.379 232.356 174.693 232.356C178.69 232.364 178.912 232.369 179.121 232.451C179.415 232.563 179.627 232.785 179.727 233.075C179.805 233.302 179.809 233.731 179.822 240.482L179.831 247.648L180.094 247.472C181.026 246.839 182.683 245.97 183.92 245.453C186.21 244.498 188.171 243.986 190.561 243.719C191.557 243.606 194.382 243.606 195.473 243.719C196.926 243.868 198.036 244.063 199.294 244.384C203.092 245.371 206.478 247.263 209.566 250.129C213.795 254.05 216.502 259.677 217.004 265.594C217.126 267.03 217.045 269.248 216.818 270.823L216.82 270.822Z" fill="white"/>
</g>
<g filter="url(#filter1_d_294_13806)">
<path d="M88.3708 354.6C89.9708 354.56 91.5508 354.527 93.1108 354.5C94.6841 354.46 96.1774 354.44 97.5908 354.44C99.4574 354.44 101.091 354.7 102.491 355.22C103.891 355.727 104.984 356.52 105.771 357.6C106.557 358.667 106.951 360.04 106.951 361.72C106.951 362.693 106.724 363.607 106.271 364.46C105.831 365.313 105.244 366.02 104.511 366.58C103.777 367.14 102.964 367.473 102.071 367.58V366.94C103.151 366.993 104.157 367.36 105.091 368.04C106.037 368.72 106.797 369.6 107.371 370.68C107.944 371.747 108.231 372.9 108.231 374.14C108.231 376.007 107.817 377.54 106.991 378.74C106.177 379.927 105.024 380.807 103.531 381.38C102.037 381.953 100.271 382.24 98.2308 382.24C96.6841 382.24 95.0774 382.22 93.4108 382.18C91.7574 382.153 90.0774 382.12 88.3708 382.08L88.0908 381.8V354.88L88.3708 354.6ZM94.3908 377.76C95.0441 377.747 95.6641 377.74 96.2508 377.74C96.8374 377.727 97.3441 377.72 97.7708 377.72C98.8641 377.72 99.6974 377.52 100.271 377.12C100.857 376.707 101.257 376.207 101.471 375.62C101.697 375.02 101.811 374.44 101.811 373.88C101.811 373.293 101.691 372.7 101.451 372.1C101.224 371.487 100.811 370.973 100.211 370.56C99.6241 370.147 98.7974 369.94 97.7308 369.94H91.9908V365.4H97.2708C98.1774 365.4 98.8774 365.24 99.3708 364.92C99.8641 364.587 100.211 364.173 100.411 363.68C100.611 363.187 100.711 362.68 100.711 362.16C100.711 361.627 100.611 361.12 100.411 360.64C100.211 360.16 99.8574 359.767 99.3508 359.46C98.8574 359.14 98.1641 358.98 97.2708 358.98C96.9241 358.98 96.4841 358.98 95.9508 358.98C95.4174 358.967 94.8974 358.953 94.3908 358.94V377.76ZM112.721 354.68C113.228 354.573 113.788 354.507 114.401 354.48C115.028 354.453 115.534 354.44 115.921 354.44C116.348 354.44 116.854 354.453 117.441 354.48C118.028 354.507 118.588 354.573 119.121 354.68V382C118.588 382.093 118.028 382.153 117.441 382.18C116.854 382.22 116.348 382.24 115.921 382.24C115.534 382.24 115.028 382.22 114.401 382.18C113.788 382.153 113.228 382.093 112.721 382V354.68ZM131.658 382.12H128.958C127.812 382.12 126.905 381.787 126.238 381.12C125.572 380.453 125.238 379.54 125.238 378.38V354.68L125.518 354.42H127.858C129.085 354.42 130.025 354.74 130.678 355.38C131.332 356.007 131.658 357.033 131.658 358.46V382.12ZM142.338 376.6C142.338 378.627 142.005 380.053 141.338 380.88C140.685 381.707 139.565 382.12 137.978 382.12H128.958L125.518 377.48C127.265 377.173 128.992 376.953 130.698 376.82C132.418 376.673 133.985 376.6 135.398 376.6H142.338ZM146.237 354.68C146.743 354.573 147.303 354.507 147.917 354.48C148.543 354.453 149.05 354.44 149.437 354.44C149.863 354.44 150.37 354.453 150.957 354.48C151.543 354.507 152.103 354.573 152.637 354.68V382C152.103 382.093 151.543 382.153 150.957 382.18C150.37 382.22 149.863 382.24 149.437 382.24C149.05 382.24 148.543 382.22 147.917 382.18C147.303 382.153 146.743 382.093 146.237 382V354.68ZM160.054 354.72C160.734 354.6 161.481 354.52 162.294 354.48C163.107 354.44 163.801 354.42 164.374 354.42C164.961 354.42 165.614 354.44 166.334 354.48C167.054 354.52 167.754 354.6 168.434 354.72L170.794 364.5C170.847 364.74 170.934 365.153 171.054 365.74C171.187 366.327 171.334 366.993 171.494 367.74C171.654 368.473 171.801 369.207 171.934 369.94C172.081 370.66 172.194 371.273 172.274 371.78H172.554C172.634 371.273 172.747 370.66 172.894 369.94C173.041 369.207 173.194 368.473 173.354 367.74C173.514 366.993 173.654 366.327 173.774 365.74C173.907 365.153 174.001 364.74 174.054 364.5L176.414 354.72C177.094 354.6 177.794 354.52 178.514 354.48C179.234 354.44 179.881 354.42 180.454 354.42C181.041 354.42 181.741 354.44 182.554 354.48C183.367 354.52 184.107 354.6 184.774 354.72L186.894 381.92C186.441 382.04 185.914 382.12 185.314 382.16C184.714 382.213 184.161 382.24 183.654 382.24C183.174 382.24 182.701 382.227 182.234 382.2C181.781 382.173 181.321 382.12 180.854 382.04L180.254 370.9C180.201 369.953 180.147 368.933 180.094 367.84C180.054 366.747 180.014 365.667 179.974 364.6C179.947 363.533 179.934 362.567 179.934 361.7H179.654L175.714 377.98C175.234 378.06 174.674 378.12 174.034 378.16C173.394 378.187 172.847 378.2 172.394 378.2C171.994 378.2 171.467 378.187 170.814 378.16C170.161 378.12 169.594 378.06 169.114 377.98L165.174 361.7H164.914C164.914 362.567 164.894 363.533 164.854 364.6C164.827 365.667 164.787 366.747 164.734 367.84C164.694 368.933 164.647 369.953 164.594 370.9L163.974 382.04C163.521 382.12 163.061 382.173 162.594 382.2C162.127 382.227 161.654 382.24 161.174 382.24C160.667 382.24 160.114 382.213 159.514 382.16C158.927 382.12 158.401 382.04 157.934 381.92L160.054 354.72ZM220.263 363.96C220.263 366.04 219.837 367.787 218.983 369.2C218.143 370.6 216.983 371.66 215.503 372.38C214.037 373.087 212.357 373.44 210.463 373.44H204.603V368.76C204.963 368.733 205.517 368.707 206.263 368.68C207.01 368.653 207.737 368.633 208.443 368.62C209.163 368.593 209.657 368.58 209.923 368.58C210.99 368.58 211.797 368.327 212.343 367.82C212.89 367.313 213.257 366.707 213.443 366C213.63 365.28 213.723 364.6 213.723 363.96C213.723 363.333 213.63 362.667 213.443 361.96C213.257 361.24 212.89 360.627 212.343 360.12C211.797 359.613 210.99 359.36 209.923 359.36C209.523 359.36 209.123 359.36 208.723 359.36C208.337 359.347 207.87 359.333 207.323 359.32V382C206.79 382.093 206.223 382.153 205.623 382.18C205.037 382.22 204.53 382.24 204.103 382.24C203.717 382.24 203.21 382.22 202.583 382.18C201.97 382.153 201.41 382.093 200.903 382V354.88L201.183 354.6C202.89 354.56 204.483 354.527 205.963 354.5C207.457 354.46 208.957 354.44 210.463 354.44C212.357 354.44 214.037 354.787 215.503 355.48C216.983 356.16 218.143 357.207 218.983 358.62C219.837 360.02 220.263 361.8 220.263 363.96ZM230.838 382.12H228.138C226.991 382.12 226.085 381.787 225.418 381.12C224.751 380.453 224.418 379.54 224.418 378.38V354.68L224.698 354.42H227.038C228.265 354.42 229.205 354.74 229.858 355.38C230.511 356.007 230.838 357.033 230.838 358.46V382.12ZM241.518 376.6C241.518 378.627 241.185 380.053 240.518 380.88C239.865 381.707 238.745 382.12 237.158 382.12H228.138L224.698 377.48C226.445 377.173 228.171 376.953 229.878 376.82C231.598 376.673 233.165 376.6 234.578 376.6H241.518ZM266.01 371.92C266.01 374.173 265.59 376.1 264.75 377.7C263.91 379.287 262.684 380.5 261.07 381.34C259.47 382.18 257.51 382.6 255.19 382.6C252.884 382.6 250.924 382.18 249.31 381.34C247.697 380.5 246.47 379.287 245.63 377.7C244.79 376.1 244.37 374.173 244.37 371.92V354.68L244.65 354.42H246.99C248.217 354.42 249.157 354.74 249.81 355.38C250.464 356.007 250.79 357.033 250.79 358.46V371.98C250.79 373.807 251.124 375.187 251.79 376.12C252.457 377.04 253.59 377.5 255.19 377.5C256.804 377.5 257.944 377.04 258.61 376.12C259.277 375.187 259.61 373.807 259.61 371.98V354.68C260.144 354.573 260.69 354.507 261.25 354.48C261.824 354.453 262.317 354.44 262.73 354.44C263.117 354.44 263.63 354.453 264.27 354.48C264.924 354.507 265.504 354.573 266.01 354.68V371.92ZM269.284 379.62C269.364 378.713 269.644 377.827 270.124 376.96C270.604 376.08 271.15 375.373 271.764 374.84C272.884 375.507 274.157 376.113 275.584 376.66C277.01 377.193 278.437 377.46 279.864 377.46C281.024 377.46 281.857 377.18 282.364 376.62C282.87 376.06 283.124 375.46 283.124 374.82C283.124 374.393 282.984 373.907 282.704 373.36C282.424 372.8 281.724 372.287 280.604 371.82L275.784 369.82C274.13 369.127 272.764 368.2 271.684 367.04C270.604 365.88 270.064 364.347 270.064 362.44C270.064 360.773 270.497 359.313 271.364 358.06C272.23 356.807 273.397 355.833 274.864 355.14C276.344 354.433 277.99 354.08 279.804 354.08C281.697 354.08 283.47 354.327 285.124 354.82C286.79 355.313 288.144 355.833 289.184 356.38C289.13 357.3 288.91 358.187 288.524 359.04C288.15 359.88 287.65 360.587 287.024 361.16C286.01 360.68 284.824 360.24 283.464 359.84C282.104 359.427 280.884 359.22 279.804 359.22C278.657 359.22 277.837 359.48 277.344 360C276.864 360.52 276.624 361.047 276.624 361.58C276.624 362.087 276.79 362.54 277.124 362.94C277.47 363.34 278.084 363.727 278.964 364.1L283.884 366.12C285.177 366.653 286.27 367.32 287.164 368.12C288.07 368.907 288.757 369.8 289.224 370.8C289.69 371.787 289.924 372.86 289.924 374.02C289.924 375.633 289.53 377.093 288.744 378.4C287.97 379.693 286.804 380.72 285.244 381.48C283.684 382.227 281.737 382.6 279.404 382.6C277.79 382.6 276.07 382.347 274.244 381.84C272.417 381.32 270.764 380.58 269.284 379.62Z" fill="white"/>
</g>
<defs>
<filter id="filter0_d_294_13806" x="137.563" y="218" width="100.873" height="100.873" filterUnits="userSpaceOnUse" color-interpolation-filters="sRGB">
<feFlood flood-opacity="0" result="BackgroundImageFix"/>
<feColorMatrix in="SourceAlpha" type="matrix" values="0 0 0 0 0 0 0 0 0 0 0 0 0 0 0 0 0 0 127 0" result="hardAlpha"/>
<feOffset dy="1.43671"/>
<feGaussianBlur stdDeviation="0.718355"/>
<feComposite in2="hardAlpha" operator="out"/>
<feColorMatrix type="matrix" values="0 0 0 0 0 0 0 0 0 0 0 0 0 0 0 0 0 0 0.25 0"/>
<feBlend mode="normal" in2="BackgroundImageFix" result="effect1_dropShadow_294_13806"/>
<feBlend mode="normal" in="SourceGraphic" in2="effect1_dropShadow_294_13806" result="shape"/>
</filter>
<filter id="filter1_d_294_13806" x="85.8498" y="354.08" width="206.314" height="33" filterUnits="userSpaceOnUse" color-interpolation-filters="sRGB">
<feFlood flood-opacity="0" result="BackgroundImageFix"/>
<feColorMatrix in="SourceAlpha" type="matrix" values="0 0 0 0 0 0 0 0 0 0 0 0 0 0 0 0 0 0 127 0" result="hardAlpha"/>
<feOffset dy="2.24"/>
<feGaussianBlur stdDeviation="1.12"/>
<feComposite in2="hardAlpha" operator="out"/>
<feColorMatrix type="matrix" values="0 0 0 0 0 0 0 0 0 0 0 0 0 0 0 0 0 0 0.25 0"/>
<feBlend mode="normal" in2="BackgroundImageFix" result="effect1_dropShadow_294_13806"/>
<feBlend mode="normal" in="SourceGraphic" in2="effect1_dropShadow_294_13806" result="shape"/>
</filter>
<linearGradient id="paint0_linear_294_13806" x1="187.5" y1="0" x2="187.5" y2="812" gradientUnits="userSpaceOnUse">
<stop stop-color="#2E3192"/>
<stop offset="1" stop-color="#1C75BC"/>
</linearGradient>
</defs>
</svg>
