<svg width="290" height="290" viewBox="0 0 290 290" fill="none" xmlns="http://www.w3.org/2000/svg">
<path d="M255.635 168.629L215.273 191.424L153.288 155.852L193.645 133.058L255.635 168.629Z" fill="#407BFF"/>
<path opacity="0.6" d="M255.635 168.629L215.273 191.424L153.288 155.852L193.645 133.058L255.635 168.629Z" fill="black"/>
<path d="M214.832 189.759L253.837 167.621C252.868 164.871 252.938 164.036 254.04 160.376L215.273 182.312C215.273 182.312 214.565 182.237 214.832 189.759Z" fill="#F5F5F5"/>
<path d="M217.164 179.284C216.128 179.954 215.265 180.859 214.646 181.925C214.027 182.992 213.67 184.19 213.602 185.421V190.241C213.602 192.497 215.197 193.413 217.164 192.288L255.629 170.434V168.659L217.651 190.119C216.491 190.792 215.511 190.246 215.516 188.889L215.545 184.62C215.588 183.881 215.805 183.162 216.178 182.522C216.551 181.882 217.069 181.339 217.691 180.937L255.623 159.477V157.465L217.164 179.284Z" fill="#407BFF"/>
<path opacity="0.5" d="M217.164 179.284C216.128 179.954 215.265 180.859 214.646 181.925C214.027 182.992 213.67 184.19 213.602 185.421V190.241C213.602 192.497 215.197 193.413 217.164 192.288L255.629 170.434V168.659L217.651 190.119C216.491 190.792 215.511 190.246 215.516 188.889L215.545 184.62C215.588 183.881 215.805 183.162 216.178 182.522C216.551 181.882 217.069 181.339 217.691 180.937L255.623 159.477V157.465L217.164 179.284Z" fill="black"/>
<path d="M255.629 157.436L193.645 121.864L155.185 143.713C154.149 144.382 153.285 145.287 152.665 146.353C152.046 147.42 151.687 148.618 151.618 149.849V154.646C151.618 155.771 152.012 156.566 152.662 156.937L214.646 192.502C213.997 192.131 213.602 191.342 213.602 190.217V185.415C213.671 184.184 214.029 182.986 214.648 181.92C215.267 180.854 216.129 179.949 217.164 179.278L255.629 157.436Z" fill="#407BFF"/>
<path opacity="0.35" d="M255.629 157.436L193.645 121.864L155.185 143.713C154.149 144.382 153.285 145.287 152.665 146.353C152.046 147.42 151.687 148.618 151.618 149.849V154.646C151.618 155.771 152.012 156.566 152.662 156.937L214.646 192.502C213.997 192.131 213.602 191.342 213.602 190.217V185.415C213.671 184.184 214.029 182.986 214.648 181.92C215.267 180.854 216.129 179.949 217.164 179.278L255.629 157.436Z" fill="black"/>
<path d="M214.641 181.923C214.003 182.976 213.643 184.173 213.597 185.403V190.24C213.597 191.366 213.991 192.154 214.641 192.526L152.662 156.937C152.012 156.566 151.618 155.777 151.618 154.646V149.849C151.665 148.619 152.024 147.422 152.662 146.369L214.641 181.923Z" fill="#407BFF"/>
<path opacity="0.45" d="M214.641 181.923C214.003 182.976 213.643 184.173 213.597 185.403V190.24C213.597 191.366 213.991 192.154 214.641 192.526L152.662 156.937C152.012 156.566 151.618 155.777 151.618 154.646V149.849C151.665 148.619 152.024 147.422 152.662 146.369L214.641 181.923Z" fill="black"/>
<path d="M161.037 151.114C159.877 156.131 159.877 158.074 161.037 161.768L163.983 163.474C162.823 159.796 162.823 157.836 163.983 152.819L161.037 151.114Z" fill="#407BFF"/>
<path d="M201.689 174.476C200.529 179.493 200.529 181.39 201.689 185.067L204.641 186.772C203.481 183.089 203.481 181.192 204.641 176.181L201.689 174.476Z" fill="#407BFF"/>
<path d="M263.778 156.838L223.416 179.632L161.431 144.061L201.788 121.267L263.778 156.838Z" fill="#407BFF"/>
<path opacity="0.4" d="M263.778 156.838L223.416 179.632L161.431 144.061L201.788 121.267L263.778 156.838Z" fill="black"/>
<path d="M222.975 177.962L261.98 155.806C261.012 153.056 261.081 151.827 262.177 148.167L223.416 170.097C223.416 170.097 222.72 170.439 222.975 177.962Z" fill="#F5F5F5"/>
<path d="M225.307 167.093C224.271 167.762 223.408 168.667 222.788 169.733C222.168 170.8 221.809 171.998 221.74 173.229V178.42C221.74 180.676 223.335 181.593 225.307 180.462L263.772 158.613V156.838L225.794 178.298C224.634 178.977 223.654 178.426 223.654 177.074L223.689 172.434C223.73 171.695 223.946 170.977 224.318 170.337C224.69 169.697 225.207 169.154 225.829 168.751L263.767 147.291V145.279L225.307 167.093Z" fill="#407BFF"/>
<path opacity="0.25" d="M225.307 167.093C224.271 167.762 223.408 168.667 222.788 169.733C222.168 170.8 221.809 171.998 221.74 173.229V178.42C221.74 180.676 223.335 181.593 225.307 180.462L263.772 158.613V156.838L225.794 178.298C224.634 178.977 223.654 178.426 223.654 177.074L223.689 172.434C223.73 171.695 223.946 170.977 224.318 170.337C224.69 169.697 225.207 169.154 225.829 168.751L263.767 147.291V145.279L225.307 167.093Z" fill="black"/>
<path d="M263.772 145.25L201.788 109.678L163.322 131.527C162.286 132.196 161.424 133.101 160.805 134.167C160.186 135.234 159.828 136.432 159.761 137.663V142.883C159.761 144.008 160.155 144.797 160.805 145.168L222.79 180.74C222.14 180.369 221.746 179.58 221.746 178.449V173.258C221.813 172.027 222.17 170.829 222.789 169.762C223.408 168.696 224.271 167.791 225.307 167.121L263.772 145.25Z" fill="#407BFF"/>
<path d="M222.784 169.737C222.144 170.789 221.785 171.987 221.74 173.217V178.408C221.74 179.533 222.134 180.328 222.784 180.699L160.805 145.139C160.155 144.768 159.761 143.979 159.761 142.854V137.634C159.806 136.404 160.166 135.206 160.805 134.154L222.784 169.737Z" fill="#407BFF"/>
<path opacity="0.15" d="M222.784 169.737C222.144 170.789 221.785 171.987 221.74 173.217V178.408C221.74 179.533 222.134 180.328 222.784 180.699L160.805 145.139C160.155 144.768 159.761 143.979 159.761 142.854V137.634C159.806 136.404 160.166 135.206 160.805 134.154L222.784 169.737Z" fill="black"/>
<path d="M169.174 138.922C168.014 143.939 168.014 146.299 169.174 149.977L172.127 151.682C170.967 147.999 170.967 145.644 172.127 140.627L169.174 138.922Z" fill="#407BFF"/>
<path d="M209.832 162.313C208.672 167.33 208.672 169.604 209.832 173.281L212.785 174.986C211.625 171.309 211.625 169.018 212.785 164.001L209.832 162.313Z" fill="#407BFF"/>
<g opacity="0.4">
<path d="M169.174 138.922C168.014 143.939 168.014 146.299 169.174 149.977L172.127 151.682C170.967 147.999 170.967 145.644 172.127 140.627L169.174 138.922Z" fill="white"/>
<path d="M209.832 162.313C208.672 167.33 208.672 169.604 209.832 173.281L212.785 174.986C211.625 171.309 211.625 169.018 212.785 164.001L209.832 162.313Z" fill="white"/>
</g>
<path d="M45.53 219.478L108.222 255.096L199.155 202.896L136.468 167.278L45.53 219.478Z" fill="#407BFF"/>
<path opacity="0.4" d="M45.53 219.478L108.222 255.096L199.155 202.896L136.468 167.278L45.53 219.478Z" fill="black"/>
<path d="M108.692 253.315L47.4498 218.376C48.488 215.435 48.4068 214.119 47.2352 210.209L108.222 244.911C108.222 244.911 108.976 245.276 108.692 253.315Z" fill="#F5F5F5"/>
<path d="M106.198 241.698C107.305 242.412 108.228 243.379 108.89 244.518C109.552 245.657 109.935 246.936 110.009 248.252V253.797C110.009 256.215 108.303 257.19 106.198 255.983L45.5358 221.375V219.478L105.682 253.646C106.94 254.371 107.961 253.785 107.961 252.335L107.926 247.353C107.882 246.564 107.652 245.796 107.255 245.113C106.858 244.43 106.305 243.85 105.641 243.421L45.5358 209.235V207.089L106.198 241.698Z" fill="#407BFF"/>
<path opacity="0.3" d="M106.198 241.698C107.305 242.412 108.228 243.379 108.89 244.518C109.552 245.657 109.935 246.936 110.009 248.252V253.797C110.009 256.215 108.303 257.19 106.198 255.983L45.5358 221.375V219.478L105.682 253.646C106.94 254.371 107.961 253.785 107.961 252.335L107.926 247.353C107.882 246.564 107.652 245.796 107.255 245.113C106.858 244.43 106.305 243.85 105.641 243.421L45.5358 209.235V207.089L106.198 241.698Z" fill="black"/>
<path d="M45.5361 207.089L136.469 154.889L197.131 189.498C198.238 190.212 199.16 191.178 199.822 192.317C200.485 193.457 200.868 194.736 200.941 196.052V201.597C200.941 202.803 200.518 203.65 199.828 204.044L108.89 256.244C109.58 255.85 110.003 254.997 110.003 253.797V248.24C109.93 246.925 109.547 245.646 108.886 244.507C108.225 243.368 107.304 242.402 106.198 241.686L45.5361 207.089Z" fill="#407BFF"/>
<path opacity="0.2" d="M45.5361 207.089L136.469 154.889L197.131 189.498C198.238 190.212 199.16 191.178 199.822 192.317C200.485 193.457 200.868 194.736 200.941 196.052V201.597C200.941 202.803 200.518 203.65 199.828 204.044L108.89 256.244C109.58 255.85 110.003 254.997 110.003 253.797V248.24C109.93 246.925 109.547 245.646 108.886 244.507C108.225 243.368 107.304 242.402 106.198 241.686L45.5361 207.089Z" fill="black"/>
<path d="M108.895 244.522C109.58 245.649 109.963 246.934 110.009 248.252V253.802C110.009 255.003 109.585 255.855 108.895 256.25L199.833 204.05C200.523 203.655 200.947 202.809 200.947 201.602V196.04C200.899 194.722 200.515 193.439 199.833 192.311L108.895 244.522Z" fill="#407BFF"/>
<path d="M108.895 244.522C109.581 245.649 109.964 246.933 110.009 248.252V253.802C110.009 255.003 109.585 255.85 108.895 256.25L199.827 204.05C200.523 203.655 200.941 202.803 200.947 201.602V196.04C200.902 194.722 200.519 193.437 199.833 192.311L108.895 244.522Z" fill="#407BFF"/>
<path d="M190.878 197.409C192.113 202.768 192.096 205.286 190.878 209.218L187.723 211.039C188.941 207.107 188.958 204.59 187.723 199.23L190.878 197.409Z" fill="#407BFF"/>
<path d="M122.734 236.576C123.969 241.935 123.952 244.377 122.734 248.31L119.584 250.113C120.797 246.181 120.814 243.733 119.584 238.386L122.734 236.576Z" fill="#407BFF"/>
<g opacity="0.4">
<path d="M190.878 197.409C192.113 202.768 192.096 205.286 190.878 209.218L187.723 211.039C188.941 207.107 188.958 204.59 187.723 199.23L190.878 197.409Z" fill="white"/>
<path d="M122.734 236.577C123.969 241.936 123.952 244.378 122.734 248.31L119.584 250.114C120.797 246.181 120.814 243.734 119.584 238.386L122.734 236.577Z" fill="white"/>
</g>
<path d="M37.497 207.431L100.189 243.049L191.122 190.849L128.435 155.231L37.497 207.431Z" fill="#407BFF"/>
<path opacity="0.2" d="M37.497 207.431L100.189 243.049L191.122 190.849L128.435 155.231L37.497 207.431Z" fill="white"/>
<path d="M100.659 241.28L39.44 206.329C40.4782 203.389 40.397 202.496 39.2254 198.586L100.212 233.282C100.212 233.282 100.92 233.23 100.659 241.28Z" fill="#F5F5F5"/>
<path d="M98.165 230.075C99.2721 230.789 100.195 231.755 100.857 232.895C101.519 234.034 101.902 235.313 101.976 236.629V241.75C101.976 244.169 100.27 245.143 98.165 243.937L37.5028 209.328V207.432L97.6488 241.599C98.9074 242.324 99.9282 241.739 99.9282 240.289L99.8934 235.73C99.8492 234.94 99.6191 234.172 99.2221 233.487C98.825 232.803 98.2721 232.222 97.6082 231.792L37.5028 197.612V195.46L98.165 230.075Z" fill="#407BFF"/>
<path opacity="0.4" d="M98.165 230.075C99.2721 230.789 100.195 231.755 100.857 232.895C101.519 234.034 101.902 235.313 101.976 236.629V241.75C101.976 244.169 100.27 245.143 98.165 243.937L37.5028 209.328V207.432L97.6488 241.599C98.9074 242.324 99.9282 241.739 99.9282 240.289L99.8934 235.73C99.8492 234.94 99.6191 234.172 99.2221 233.487C98.825 232.803 98.2721 232.222 97.6082 231.792L37.5028 197.612V195.46L98.165 230.075Z" fill="white"/>
<path d="M37.497 195.46L128.435 143.26L189.08 177.875C190.191 178.589 191.117 179.556 191.783 180.698C192.448 181.839 192.834 183.121 192.908 184.44V189.562C192.908 190.768 192.485 191.615 191.789 192.009L100.856 244.18C101.546 243.78 101.97 242.933 101.97 241.733V236.64C101.897 235.325 101.514 234.045 100.853 232.905C100.192 231.765 99.2708 230.797 98.165 230.08L37.497 195.46Z" fill="#407BFF"/>
<path opacity="0.85" d="M37.497 195.46L128.435 143.26L189.08 177.875C190.191 178.589 191.117 179.556 191.783 180.698C192.448 181.839 192.834 183.121 192.908 184.44V189.562C192.908 190.768 192.485 191.615 191.789 192.009L100.856 244.18C101.546 243.78 101.97 242.933 101.97 241.733V236.64C101.897 235.325 101.514 234.045 100.853 232.905C100.192 231.765 99.2708 230.797 98.165 230.08L37.497 195.46Z" fill="white"/>
<path d="M100.862 232.899C101.548 234.026 101.931 235.311 101.976 236.629V241.756C101.976 242.957 101.552 243.803 100.862 244.204L191.794 192.004C192.49 191.609 192.914 190.762 192.914 189.556V184.44C192.867 183.122 192.481 181.837 191.794 180.711L100.862 232.899Z" fill="#407BFF"/>
<path opacity="0.6" d="M100.862 232.899C101.548 234.026 101.931 235.311 101.976 236.629V241.756C101.976 242.957 101.552 243.803 100.862 244.204L191.794 192.004C192.49 191.609 192.914 190.762 192.914 189.556V184.44C192.867 183.122 192.481 181.837 191.794 180.711L100.862 232.899Z" fill="white"/>
<path d="M182.845 185.786C184.08 191.145 184.063 193.239 182.845 197.171L179.69 198.992C180.908 195.06 180.925 192.966 179.69 187.601L182.845 185.786Z" fill="white"/>
<path d="M114.701 224.936C115.936 230.295 115.919 232.325 114.701 236.258L111.546 238.073C112.764 234.146 112.781 232.116 111.546 226.757L114.701 224.936Z" fill="white"/>
<path d="M178.553 113.64V137.246C178.553 140.644 181.54 144.043 187.468 146.636C199.346 151.856 218.608 151.856 230.486 146.636C236.431 144.032 239.395 140.627 239.395 137.217V113.64C239.465 110.16 236.495 106.738 230.492 104.104C218.614 98.8845 199.352 98.8845 187.473 104.104C181.453 106.72 178.489 110.2 178.559 113.64H178.553Z" fill="#37474F"/>
<path d="M178.559 113.64C178.489 110.16 181.459 106.738 187.468 104.104C199.346 98.8845 218.608 98.8845 230.486 104.104C236.495 106.738 239.459 110.189 239.389 113.64V124.422C239.389 121.748 237.017 119.834 229.993 122.421C218.48 126.661 212.013 133.661 200.274 137.124C190.565 139.983 181.963 138.864 178.547 135.308V113.64H178.559Z" fill="#263238"/>
<path d="M178.553 126.133V128.812C178.553 132.205 181.54 135.61 187.468 138.197C199.346 143.417 218.608 143.417 230.486 138.197C236.472 135.581 239.436 132.136 239.395 128.702V126.109C239.395 129.514 236.431 132.919 230.486 135.529C218.608 140.749 199.346 140.749 187.468 135.529C181.54 132.93 178.57 129.537 178.553 126.133Z" fill="#407BFF"/>
<path d="M256.772 106.111L208.974 83.5317L161.17 106.111V109.875L208.974 129.949L256.772 109.875V106.111Z" fill="#37474F"/>
<path opacity="0.2" d="M208.974 129.949V126.185L256.772 106.111V109.876L208.974 129.949Z" fill="#407BFF"/>
<path opacity="0.2" d="M208.974 126.185L256.087 107.231L256.772 109.876V106.111L208.974 126.185Z" fill="#407BFF"/>
<path d="M208.974 83.5317L161.17 106.111L208.974 126.185L256.772 106.111L208.974 83.5317Z" fill="#455A64"/>
<path d="M183.344 124.601C183.344 124.288 183.193 116.951 183.924 114.863C184.655 112.775 187.369 110.658 193.036 107.781C197.087 105.737 201.358 104.161 205.767 103.083L205.999 104.127C201.676 105.182 197.489 106.727 193.517 108.733C188.193 111.435 185.548 113.436 184.939 115.211C184.394 116.795 184.388 122.508 184.434 124.578L183.344 124.601Z" fill="#407BFF"/>
<path opacity="0.8" d="M183.344 124.601C183.344 124.288 183.193 116.951 183.924 114.863C184.655 112.775 187.369 110.658 193.036 107.781C197.087 105.737 201.358 104.161 205.767 103.083L205.999 104.127C201.676 105.182 197.489 106.727 193.517 108.733C188.193 111.435 185.548 113.436 184.939 115.211C184.394 116.795 184.388 122.508 184.434 124.578L183.344 124.601Z" fill="white"/>
<path d="M189.556 147.042C189.556 141.549 188.645 131.712 185.762 128.853H181.963C179.063 131.712 178.176 141.549 178.176 147.042C178.176 147.883 178.727 148.724 179.841 149.362C181.087 149.995 182.465 150.324 183.863 150.324C185.261 150.324 186.639 149.995 187.885 149.362C188.999 148.718 189.556 147.877 189.556 147.042Z" fill="#407BFF"/>
<path opacity="0.5" d="M189.556 147.042C189.556 141.549 188.645 131.712 185.762 128.853H181.963C179.063 131.712 178.176 141.549 178.176 147.042C178.176 147.883 178.727 148.724 179.841 149.362C181.087 149.995 182.465 150.324 183.863 150.324C185.261 150.324 186.639 149.995 187.885 149.362C188.999 148.718 189.556 147.877 189.556 147.042Z" fill="white"/>
<path opacity="0.6" d="M181.963 128.853C181.735 129.089 181.529 129.345 181.349 129.619C182.074 130.384 183.187 130.581 184.295 130.668C185.403 130.755 186.557 131.654 187.05 136.161C187.543 140.668 188.5 146.421 186.714 148.167C184.927 149.913 180.943 149.907 178.849 148.596C179.141 148.9 179.475 149.159 179.841 149.368C181.087 150 182.465 150.33 183.863 150.33C185.261 150.33 186.639 150 187.885 149.368C188.999 148.724 189.556 147.883 189.556 147.048C189.556 141.555 188.645 131.718 185.762 128.859L181.963 128.853Z" fill="#407BFF"/>
<path d="M186.714 126.852C186.714 127.417 186.546 127.969 186.232 128.438C185.918 128.908 185.472 129.273 184.951 129.489C184.429 129.705 183.855 129.761 183.301 129.65C182.747 129.54 182.239 129.268 181.84 128.868C181.441 128.468 181.17 127.959 181.061 127.405C180.951 126.851 181.008 126.277 181.225 125.756C181.442 125.235 181.809 124.79 182.279 124.477C182.749 124.164 183.301 123.997 183.866 123.999C184.24 123.999 184.611 124.072 184.957 124.216C185.303 124.359 185.617 124.57 185.882 124.835C186.146 125.1 186.356 125.414 186.499 125.761C186.641 126.107 186.714 126.478 186.714 126.852Z" fill="#407BFF"/>
<path opacity="0.5" d="M186.714 126.852C186.714 127.417 186.546 127.969 186.232 128.438C185.918 128.908 185.472 129.273 184.951 129.489C184.429 129.705 183.855 129.761 183.301 129.65C182.747 129.54 182.239 129.268 181.84 128.868C181.441 128.468 181.17 127.959 181.061 127.405C180.951 126.851 181.008 126.277 181.225 125.756C181.442 125.235 181.809 124.79 182.279 124.477C182.749 124.164 183.301 123.997 183.866 123.999C184.24 123.999 184.611 124.072 184.957 124.216C185.303 124.359 185.617 124.57 185.882 124.835C186.146 125.1 186.356 125.414 186.499 125.761C186.641 126.107 186.714 126.478 186.714 126.852Z" fill="white"/>
<path opacity="0.4" d="M185.519 124.538C185.728 124.823 185.876 125.147 185.954 125.492C186.033 125.836 186.04 126.193 185.975 126.54C185.911 126.887 185.775 127.217 185.578 127.511C185.381 127.804 185.126 128.053 184.829 128.244C184.256 128.619 183.566 128.771 182.889 128.67C182.212 128.57 181.596 128.224 181.157 127.699C181.291 128.129 181.526 128.522 181.842 128.844C182.158 129.166 182.546 129.408 182.974 129.55C183.403 129.692 183.858 129.73 184.304 129.661C184.75 129.593 185.173 129.419 185.538 129.154C185.903 128.889 186.2 128.541 186.405 128.139C186.609 127.737 186.714 127.292 186.712 126.841C186.711 126.39 186.601 125.946 186.394 125.545C186.186 125.145 185.886 124.799 185.519 124.538Z" fill="#407BFF"/>
<path d="M205.129 101.72C205.161 101.383 205.283 101.061 205.48 100.786C205.678 100.511 205.945 100.293 206.254 100.154C207.096 99.7284 208.027 99.5063 208.971 99.5063C209.915 99.5063 210.846 99.7284 211.688 100.154C211.997 100.293 212.264 100.511 212.462 100.786C212.659 101.061 212.781 101.383 212.814 101.72V102.979C212.781 103.316 212.66 103.639 212.463 103.914C212.265 104.189 211.998 104.407 211.688 104.545C210.846 104.971 209.915 105.193 208.971 105.193C208.027 105.193 207.096 104.971 206.254 104.545C205.944 104.407 205.677 104.189 205.48 103.914C205.282 103.639 205.161 103.316 205.129 102.979V101.72Z" fill="#263238"/>
<path d="M211.7 103.292C213.202 102.422 213.202 101.019 211.7 100.154C210.858 99.7284 209.927 99.5063 208.983 99.5063C208.039 99.5063 207.108 99.7284 206.265 100.154C204.769 101.019 204.769 102.422 206.265 103.292C207.108 103.718 208.039 103.94 208.983 103.94C209.927 103.94 210.858 103.718 211.7 103.292Z" fill="#37474F"/>
<path d="M214.078 211.462C214.132 212.392 214.403 213.297 214.871 214.103C215.338 214.909 215.988 215.594 216.769 216.102C217.223 216.403 217.775 216.519 218.312 216.427C218.226 216.517 218.129 216.595 218.022 216.659L218.666 216.288H218.706L218.799 216.224C218.842 216.192 218.883 216.157 218.921 216.12L218.991 216.05L219.054 215.975C219.146 215.852 219.22 215.717 219.275 215.574C219.293 215.531 219.308 215.486 219.321 215.441C219.326 215.42 219.326 215.398 219.321 215.377C219.336 215.34 219.345 215.301 219.35 215.261C219.403 215.041 219.429 214.815 219.426 214.588C219.373 213.659 219.102 212.754 218.636 211.948C218.169 211.143 217.52 210.457 216.74 209.948C216.378 209.719 215.962 209.591 215.534 209.577H215.366L215.209 209.606H215.116H215.064L214.954 209.653L214.849 209.705L214.269 210.024C214.361 209.977 214.459 209.942 214.559 209.919C214.204 210.351 214.031 210.905 214.078 211.462Z" fill="#407BFF"/>
<path d="M144.553 250.328L148.341 256.94L148.985 256.569L218.005 216.694C218.111 216.63 218.209 216.552 218.295 216.462C218.649 216.042 218.828 215.502 218.793 214.954C218.74 214.023 218.468 213.119 218.001 212.313C217.533 211.507 216.883 210.822 216.102 210.314C215.741 210.089 215.327 209.963 214.902 209.948C214.787 209.948 214.672 209.959 214.559 209.983C214.459 210.006 214.361 210.041 214.269 210.087H214.223L144.553 250.328Z" fill="#F0F0F0"/>
<path d="M146.45 250.519C144.965 249.661 143.765 250.357 143.765 252.068C143.817 252.998 144.087 253.902 144.554 254.708C145.02 255.514 145.67 256.199 146.45 256.708C147.935 257.566 149.141 256.87 149.141 255.153C149.088 254.224 148.816 253.32 148.349 252.515C147.881 251.71 147.231 251.026 146.45 250.519Z" fill="#407BFF"/>
<path d="M184.614 230.034L184.701 229.981C184.805 229.948 184.916 229.938 185.025 229.954C185.134 229.971 185.237 230.012 185.327 230.074C185.605 230.256 185.836 230.5 186.002 230.787C186.168 231.074 186.265 231.396 186.284 231.727C186.293 231.835 186.277 231.943 186.238 232.043C186.199 232.144 186.137 232.234 186.058 232.307L185.942 232.377L145.087 255.96L142.402 254.405L184.614 230.034Z" fill="#455A64"/>
<path d="M148.898 253.756L145.104 255.948L142.419 254.394L147.558 251.43C148.162 252.104 148.618 252.896 148.898 253.756Z" fill="#37474F"/>
<path d="M139.322 256.302L142.436 252.88L142.518 252.787C142.735 252.611 143.006 252.514 143.286 252.514C143.566 252.514 143.837 252.611 144.055 252.787C144.607 253.148 145.066 253.634 145.396 254.205C145.725 254.776 145.916 255.417 145.951 256.076C145.988 256.343 145.937 256.615 145.806 256.851C145.676 257.088 145.472 257.275 145.226 257.387L145.104 257.416L140.54 258.407C140.368 258.434 140.193 258.397 140.047 258.303C139.795 258.138 139.586 257.916 139.436 257.655C139.285 257.394 139.199 257.101 139.183 256.801C139.162 256.623 139.212 256.444 139.322 256.302Z" fill="#407BFF"/>
<path opacity="0.1" d="M139.322 256.302L142.436 252.88L142.518 252.787C142.735 252.611 143.006 252.514 143.286 252.514C143.566 252.514 143.837 252.611 144.055 252.787C144.607 253.148 145.066 253.634 145.396 254.205C145.725 254.776 145.916 255.417 145.951 256.076C145.988 256.343 145.937 256.615 145.806 256.851C145.676 257.088 145.472 257.275 145.226 257.387L145.104 257.416L140.54 258.407C140.368 258.434 140.193 258.397 140.047 258.303C139.795 258.138 139.586 257.916 139.436 257.655C139.285 257.394 139.199 257.101 139.183 256.801C139.162 256.623 139.212 256.444 139.322 256.302Z" fill="black"/>
<path d="M139.148 256.801C139.165 257.101 139.252 257.393 139.403 257.653C139.555 257.913 139.765 258.134 140.018 258.297C140.162 258.391 140.335 258.428 140.505 258.401L142.825 257.903C143.185 257.821 143.405 257.479 143.405 256.934C143.38 256.453 143.242 255.986 143.002 255.568C142.762 255.151 142.427 254.796 142.025 254.533C141.867 254.408 141.672 254.34 141.471 254.34C141.27 254.34 141.074 254.408 140.917 254.533L140.853 254.602L139.31 256.296C139.25 256.365 139.205 256.445 139.177 256.531C139.149 256.618 139.139 256.71 139.148 256.801Z" fill="#407BFF"/>
<path opacity="0.1" d="M140.012 256.296C139.536 256.023 139.148 256.244 139.148 256.795C139.164 257.095 139.251 257.388 139.401 257.649C139.551 257.91 139.76 258.132 140.012 258.297C140.493 258.57 140.876 258.349 140.876 257.798C140.86 257.497 140.774 257.205 140.624 256.944C140.474 256.683 140.264 256.461 140.012 256.296Z" fill="black"/>
<path d="M208.481 216.235C208.588 216.184 208.708 216.163 208.826 216.174C208.945 216.185 209.058 216.228 209.154 216.299C209.431 216.479 209.662 216.722 209.827 217.008C209.993 217.295 210.088 217.616 210.105 217.946C210.119 218.066 210.099 218.187 210.049 218.296C209.999 218.405 209.92 218.499 209.821 218.567L186.076 232.296C186.155 232.222 186.216 232.132 186.255 232.032C186.294 231.931 186.31 231.823 186.302 231.716C186.282 231.384 186.186 231.062 186.02 230.775C185.853 230.488 185.622 230.244 185.345 230.063C185.255 230 185.151 229.959 185.042 229.943C184.934 229.927 184.823 229.936 184.718 229.97L208.481 216.235Z" fill="#FAFAFA"/>
<path d="M208.22 216.851C208.24 217.18 208.336 217.501 208.501 217.787C208.666 218.073 208.895 218.316 209.171 218.498C209.267 218.567 209.379 218.609 209.496 218.62C209.613 218.632 209.731 218.611 209.838 218.562C209.937 218.495 210.016 218.402 210.066 218.294C210.116 218.185 210.136 218.065 210.122 217.947C210.105 217.617 210.01 217.295 209.845 217.009C209.679 216.723 209.449 216.479 209.171 216.3C209.08 216.219 208.966 216.17 208.845 216.158C208.724 216.146 208.603 216.173 208.498 216.233C208.393 216.294 208.309 216.387 208.26 216.497C208.21 216.608 208.196 216.732 208.22 216.851Z" fill="#F5F5F5"/>
<path d="M210.331 212.779H210.366H210.407L214.374 210.459L214.467 210.407C214.735 210.303 215.024 210.267 215.31 210.302C215.595 210.338 215.868 210.443 216.102 210.61C216.807 211.069 217.393 211.688 217.814 212.417C218.234 213.145 218.476 213.963 218.521 214.803C218.553 215.104 218.503 215.408 218.378 215.684C218.252 215.959 218.055 216.196 217.807 216.369L213.794 218.689C213.522 218.803 213.225 218.845 212.932 218.813C212.638 218.781 212.358 218.674 212.118 218.504C211.414 218.043 210.828 217.424 210.408 216.695C209.988 215.967 209.745 215.15 209.699 214.31C209.669 214.022 209.711 213.732 209.821 213.464C209.932 213.197 210.107 212.962 210.331 212.779Z" fill="#407BFF"/>
<path opacity="0.05" d="M210.331 212.779H210.366H210.407L214.374 210.459L214.467 210.407C214.735 210.303 215.024 210.267 215.31 210.302C215.595 210.338 215.868 210.443 216.102 210.61C216.807 211.069 217.393 211.688 217.814 212.417C218.234 213.145 218.476 213.963 218.521 214.803C218.553 215.104 218.503 215.408 218.378 215.684C218.252 215.959 218.055 216.196 217.807 216.369L213.794 218.689C213.522 218.803 213.225 218.845 212.932 218.813C212.638 218.781 212.358 218.674 212.118 218.504C211.414 218.043 210.828 217.424 210.408 216.695C209.988 215.967 209.745 215.15 209.699 214.31C209.669 214.022 209.711 213.732 209.821 213.464C209.932 213.197 210.107 212.962 210.331 212.779Z" fill="black"/>
<path opacity="0.1" d="M212.089 212.918C210.755 212.146 209.67 212.767 209.67 214.31C209.716 215.15 209.959 215.967 210.379 216.695C210.799 217.424 211.385 218.043 212.089 218.503C213.423 219.275 214.507 218.648 214.507 217.105C214.461 216.266 214.218 215.45 213.798 214.723C213.378 213.995 212.792 213.377 212.089 212.918Z" fill="black"/>
<path d="M138.04 257.746L139.681 256.76C139.729 256.731 139.785 256.715 139.841 256.715C139.897 256.715 139.952 256.731 140 256.76C140.13 256.845 140.237 256.959 140.315 257.093C140.392 257.227 140.437 257.377 140.447 257.531C140.452 257.586 140.443 257.642 140.419 257.692C140.396 257.742 140.359 257.785 140.314 257.816L138.678 258.807C138.585 258.857 138.482 258.883 138.376 258.883C138.239 258.885 138.105 258.841 137.995 258.76C137.885 258.678 137.805 258.563 137.766 258.431C137.728 258.299 137.734 258.159 137.784 258.031C137.833 257.903 137.923 257.795 138.04 257.723V257.746Z" fill="#455A64"/>
<path d="M137.953 257.821L138.04 257.752C138.088 257.736 138.138 257.732 138.188 257.74C138.237 257.748 138.284 257.768 138.324 257.798C138.454 257.883 138.562 257.997 138.64 258.131C138.717 258.265 138.762 258.415 138.771 258.57C138.776 258.623 138.767 258.677 138.745 258.726C138.723 258.775 138.687 258.817 138.643 258.848H138.608H138.579C138.515 258.874 138.446 258.886 138.376 258.883C138.209 258.883 138.048 258.816 137.929 258.698C137.811 258.579 137.744 258.418 137.744 258.251C137.747 258.168 137.766 258.088 137.802 258.014C137.838 257.94 137.89 257.874 137.953 257.821Z" fill="#263238"/>
<path d="M243.362 213.185L254.04 211.12C254.108 211.106 254.179 211.113 254.243 211.142C254.307 211.17 254.36 211.218 254.395 211.279C254.429 211.339 254.444 211.409 254.437 211.479C254.429 211.548 254.4 211.613 254.353 211.665L247.08 219.82L243.362 213.185Z" fill="#FFA8A7"/>
<path d="M254.336 211.636C254.371 211.585 254.391 211.525 254.393 211.463C254.396 211.401 254.38 211.339 254.35 211.285C254.319 211.232 254.273 211.187 254.219 211.158C254.164 211.129 254.102 211.116 254.04 211.12L251.958 211.532C252.245 211.707 252.477 211.959 252.629 212.259C252.78 212.56 252.845 212.896 252.816 213.231V213.417L254.336 211.636Z" fill="#263238"/>
<path d="M194.7 249.835L195.57 249.336L196.626 248.756L247.08 219.82C247.433 218.645 247.328 217.381 246.784 216.282C246.03 214.588 244.563 213.254 243.345 213.173L192.885 242.068L190.872 243.228C192.247 242.561 196.04 249.139 194.7 249.835Z" fill="#455A64"/>
<path d="M198.024 247.938L199.972 246.819C200.552 246.511 200.216 245.079 199.543 243.64C198.656 241.703 196.904 239.824 196.144 240.224L194.706 241.048L194.201 241.355C194.961 240.949 196.713 242.828 197.6 244.771C198.244 246.169 198.569 247.532 198.082 247.898C198.075 247.908 198.067 247.917 198.057 247.924C198.047 247.931 198.036 247.936 198.024 247.938Z" fill="#EBEBEB"/>
<path d="M198.511 247.66C199.845 246.952 196.017 240.364 194.683 241.071L192.734 242.191C194.068 241.483 197.896 248.072 196.556 248.779L198.511 247.66Z" fill="#407BFF"/>
<path d="M194.7 249.835L196.626 248.733C197.942 248.048 194.306 241.657 192.914 242.08L192.833 242.109L190.901 243.234C192.247 242.562 196.04 249.139 194.7 249.835Z" fill="#EBEBEB"/>
<path opacity="0.15" d="M254.382 211.276L254.04 211.12L246.303 215.354L193.656 245.514C193.581 245.398 193.517 245.386 193.471 245.467C194.631 247.242 195.466 249.475 194.718 249.864L195.588 249.365L196.643 248.785L247.08 219.82L254.313 211.63C254.357 211.584 254.388 211.526 254.4 211.463C254.412 211.401 254.406 211.336 254.382 211.276Z" fill="black"/>
<path d="M186.528 254.51L194.7 249.835C195.28 249.539 194.955 248.141 194.294 246.686C193.413 244.743 191.667 242.846 190.901 243.235L182.7 247.933C181.07 248.872 182.567 252.41 184.382 253.988C185.055 254.585 185.809 254.846 186.528 254.51Z" fill="#F28F8F"/>
<path opacity="0.1" d="M187.015 251.975C186.545 250.136 185.055 248.327 183.68 247.944C183.478 247.869 183.261 247.844 183.048 247.873C182.835 247.901 182.632 247.981 182.456 248.106C181.227 249.266 182.659 252.491 184.376 253.987C184.634 254.276 184.972 254.481 185.347 254.577C185.722 254.673 186.117 254.655 186.482 254.527C187.096 254.167 187.34 253.228 187.015 251.975Z" fill="black"/>
<path d="M152.331 54.9203L161.118 50.3267C161.118 50.3267 166.692 51.7535 176.007 51.2025C189.782 50.3847 197.821 44.5673 195.773 36.4009C193.674 28.0315 184.463 24.7429 168.043 25.3809C147.506 26.1813 142.523 40.1071 154.785 48.3373L152.331 54.9203Z" fill="#407BFF"/>
<path opacity="0.7" d="M152.331 54.9203L161.118 50.3267C161.118 50.3267 166.692 51.7535 176.007 51.2025C189.782 50.3847 197.821 44.5673 195.773 36.4009C193.674 28.0315 184.463 24.7429 168.043 25.3809C147.506 26.1813 142.523 40.1071 154.785 48.3373L152.331 54.9203Z" fill="white"/>
<path d="M161.75 40.7857C162.961 40.7857 163.943 39.8041 163.943 38.5933C163.943 37.3825 162.961 36.4009 161.75 36.4009C160.54 36.4009 159.558 37.3825 159.558 38.5933C159.558 39.8041 160.54 40.7857 161.75 40.7857Z" fill="white"/>
<path d="M172.051 40.7857C173.262 40.7857 174.244 39.8041 174.244 38.5933C174.244 37.3825 173.262 36.4009 172.051 36.4009C170.84 36.4009 169.859 37.3825 169.859 38.5933C169.859 39.8041 170.84 40.7857 172.051 40.7857Z" fill="white"/>
<path d="M182.352 40.7857C183.563 40.7857 184.544 39.8041 184.544 38.5933C184.544 37.3825 183.563 36.4009 182.352 36.4009C181.141 36.4009 180.16 37.3825 180.16 38.5933C180.16 39.8041 181.141 40.7857 182.352 40.7857Z" fill="white"/>
<path d="M41.9166 187.502C41.9166 188.999 43.0418 189.961 44.428 190.762L101.181 223.532C101.958 223.927 102.818 224.132 103.689 224.132C104.561 224.132 105.421 223.927 106.198 223.532L197.78 170.671C199.166 169.87 200.291 168.838 200.291 167.341C200.291 165.845 199.166 164.911 197.786 164.111L140.998 131.347C140.222 130.952 139.363 130.746 138.492 130.746C137.622 130.746 136.763 130.952 135.987 131.347L44.428 184.208C43.0418 185.02 41.9166 186 41.9166 187.502Z" fill="#37474F"/>
<path d="M44.428 187.102L101.181 219.866C101.958 220.261 102.818 220.467 103.689 220.467C104.561 220.467 105.421 220.261 106.198 219.866L197.78 167.005C199.16 166.21 199.16 164.911 197.78 164.105L140.998 131.347C140.222 130.952 139.363 130.746 138.492 130.746C137.622 130.746 136.763 130.952 135.987 131.347L44.428 184.208C43.0418 185.02 43.0418 186.302 44.428 187.102Z" fill="#455A64"/>
<path d="M103.692 220.476V224.13C102.819 224.153 101.955 223.954 101.181 223.55L44.428 190.762C43.0418 189.962 41.9166 189.022 41.9166 187.503C41.9166 186.093 42.9258 185.113 44.2366 184.318C43.1578 185.078 43.1404 186.354 44.4338 187.102L101.187 219.872C101.957 220.284 102.819 220.491 103.692 220.476Z" fill="#263238"/>
<path d="M40.8324 184.597C39.7304 184.087 39.4346 183.217 39.3244 181.697L34.406 109.719C34.4027 108.875 34.6138 108.043 35.0196 107.303C35.4254 106.562 36.0125 105.937 36.726 105.485L128.285 52.6006C129.665 51.8002 130.68 51.3652 131.962 52.241C133.244 53.1168 133.267 53.5982 133.371 55.141L138.29 127.125C138.294 127.969 138.083 128.801 137.677 129.542C137.271 130.282 136.684 130.908 135.97 131.359L44.4168 184.214C43.0306 185.02 42.2476 185.247 40.8324 184.597Z" fill="#37474F"/>
<path d="M133.4 55.1348C133.296 53.5978 132.089 53.0004 130.703 53.795L39.1152 106.662C38.3792 107.106 37.7777 107.741 37.3752 108.501L35.0088 107.3C35.4155 106.544 36.016 105.909 36.7488 105.461L128.279 52.6002C129.665 51.7998 130.686 51.359 131.962 52.2406C133.238 53.1222 133.267 53.5978 133.4 55.1348Z" fill="#455A64"/>
<path d="M44.2308 184.318C42.9664 185.06 42.1718 185.153 40.832 184.591C39.8054 184.161 39.4342 183.216 39.3298 181.691L34.4056 109.695C34.3706 108.86 34.5716 108.032 34.9856 107.306L37.3752 108.495C36.9655 109.223 36.7648 110.05 36.7952 110.884L41.7194 182.874C41.8122 184.301 43.0476 185.02 44.2308 184.318Z" fill="#263238"/>
<path d="M40.7044 109.411L128.818 58.5799C129.647 58.0985 130.372 58.4581 130.436 59.3803L135.024 126.533C135.027 127.039 134.901 127.537 134.658 127.982C134.416 128.426 134.065 128.801 133.638 129.073L45.5242 179.904C44.6948 180.386 43.9698 180.026 43.906 179.104L39.3124 111.94C39.314 111.436 39.4423 110.94 39.6855 110.498C39.9287 110.056 40.2791 109.682 40.7044 109.411Z" fill="black"/>
<path d="M40.7044 109.411C40.2774 109.684 39.926 110.059 39.6827 110.503C39.4394 110.947 39.312 111.445 39.3124 111.952L43.8306 177.985L130.935 127.71C131.362 127.439 131.713 127.063 131.956 126.619C132.198 126.175 132.324 125.676 132.321 125.17L127.809 59.1602L40.7044 109.411Z" fill="#407BFF"/>
<path opacity="0.8" d="M40.7044 109.411C40.2774 109.684 39.926 110.059 39.6827 110.503C39.4394 110.947 39.312 111.445 39.3124 111.952L43.8306 177.985L130.935 127.71C131.362 127.439 131.713 127.063 131.956 126.619C132.198 126.175 132.324 125.676 132.321 125.17L127.809 59.1602L40.7044 109.411Z" fill="white"/>
<path d="M52.1999 184.631L136.3 136.056C136.667 135.87 137.072 135.773 137.483 135.773C137.894 135.773 138.3 135.87 138.666 136.056L141.735 137.796C141.876 137.846 142 137.938 142.087 138.061C142.174 138.184 142.22 138.33 142.22 138.481C142.22 138.631 142.174 138.778 142.087 138.9C142 139.023 141.876 139.116 141.735 139.165L57.5882 187.711C57.2215 187.897 56.8161 187.994 56.4049 187.994C55.9938 187.994 55.5884 187.897 55.2217 187.711L52.1709 185.971C52.0372 185.916 51.9233 185.821 51.8442 185.7C51.7652 185.578 51.7245 185.436 51.7276 185.291C51.7308 185.147 51.7775 185.006 51.8618 184.888C51.9461 184.771 52.0639 184.681 52.1999 184.631Z" fill="#263238"/>
<path d="M60.4302 189.503L144.571 140.94C144.896 140.753 145.261 140.646 145.636 140.626C146.01 140.605 146.385 140.673 146.728 140.824L168.629 153.468C169.169 153.781 169.082 154.338 168.426 154.715L84.3842 203.226C84.0586 203.412 83.6942 203.52 83.3197 203.541C82.9453 203.563 82.571 203.496 82.2266 203.348L60.233 190.762C59.6878 190.437 59.7806 189.88 60.4302 189.503Z" fill="#263238"/>
<path d="M133.342 161.333L135.975 159.813C136.085 159.744 136.097 159.645 135.975 159.587L133.452 158.137C133.393 158.107 133.327 158.091 133.261 158.091C133.194 158.091 133.129 158.107 133.069 158.137L130.436 159.657C130.326 159.721 130.314 159.819 130.436 159.877L132.959 161.333C133.019 161.363 133.084 161.379 133.151 161.379C133.217 161.379 133.283 161.363 133.342 161.333ZM129.491 156.067L126.858 157.592C126.747 157.656 126.736 157.754 126.858 157.812L129.34 159.268C129.399 159.299 129.465 159.315 129.531 159.315C129.598 159.315 129.664 159.299 129.723 159.268L132.356 157.749C132.466 157.685 132.478 157.586 132.356 157.528L129.833 156.072C129.78 156.048 129.721 156.034 129.663 156.033C129.604 156.032 129.545 156.044 129.491 156.067ZM120.982 160.985L116.522 163.56C116.412 163.63 116.4 163.728 116.522 163.786L119.045 165.236C119.104 165.266 119.17 165.282 119.236 165.282C119.303 165.282 119.368 165.266 119.428 165.236L123.888 162.661C123.998 162.597 124.01 162.499 123.888 162.441L121.371 160.985C121.31 160.956 121.244 160.94 121.177 160.94C121.109 160.94 121.043 160.956 120.982 160.985ZM125.622 158.294L122.983 159.813C122.873 159.877 122.861 159.976 122.983 160.034L125.506 161.49C125.566 161.52 125.631 161.535 125.698 161.535C125.764 161.535 125.83 161.52 125.889 161.49L128.522 159.964C128.632 159.9 128.644 159.802 128.522 159.744L125.999 158.288C125.943 158.264 125.883 158.252 125.822 158.253C125.761 158.254 125.701 158.268 125.645 158.294H125.622ZM115.31 164.256L112.671 165.782C112.561 165.845 112.549 165.944 112.671 166.002L115.188 167.458C115.247 167.489 115.313 167.505 115.379 167.505C115.446 167.505 115.512 167.489 115.571 167.458L118.204 165.938C118.32 165.874 118.326 165.776 118.204 165.718L115.687 164.262C115.629 164.232 115.564 164.216 115.499 164.215C115.434 164.214 115.369 164.228 115.31 164.256ZM111.459 166.46L108.825 167.98C108.709 168.044 108.704 168.142 108.825 168.2L111.343 169.656C111.402 169.686 111.467 169.702 111.534 169.702C111.601 169.702 111.666 169.686 111.725 169.656L114.359 168.131C114.475 168.067 114.48 167.968 114.359 167.91L111.841 166.46C111.782 166.43 111.717 166.414 111.65 166.414C111.583 166.414 111.518 166.43 111.459 166.46ZM121.319 172.394L123.952 170.874C124.068 170.81 124.074 170.712 123.952 170.654L121.435 169.198C121.375 169.168 121.31 169.152 121.243 169.152C121.177 169.152 121.111 169.168 121.052 169.198L118.413 170.723C118.303 170.787 118.291 170.886 118.413 170.944L120.93 172.399C120.99 172.437 121.06 172.459 121.131 172.462C121.202 172.465 121.273 172.449 121.336 172.417L121.319 172.394ZM117.467 174.621L120.101 173.095C120.217 173.032 120.222 172.933 120.101 172.875L117.583 171.425C117.524 171.395 117.459 171.379 117.392 171.379C117.325 171.379 117.26 171.395 117.201 171.425L114.567 172.945C114.451 173.008 114.446 173.107 114.567 173.165L117.085 174.621C117.144 174.657 117.212 174.679 117.282 174.683C117.352 174.687 117.421 174.673 117.485 174.644L117.467 174.621ZM113.616 176.842L116.255 175.323C116.365 175.259 116.377 175.16 116.255 175.102L113.738 173.646C113.679 173.616 113.613 173.601 113.547 173.601C113.48 173.601 113.415 173.616 113.355 173.646L110.78 175.201C110.664 175.265 110.658 175.363 110.78 175.421L113.297 176.877C113.351 176.898 113.409 176.908 113.467 176.906C113.524 176.904 113.581 176.89 113.634 176.865L113.616 176.842ZM109.771 179.064L112.404 177.544C112.514 177.48 112.526 177.382 112.404 177.324L109.881 175.868C109.822 175.838 109.756 175.822 109.69 175.822C109.623 175.822 109.558 175.838 109.498 175.868L106.865 177.393C106.755 177.457 106.743 177.556 106.865 177.614L109.388 179.064C109.448 179.1 109.515 179.121 109.585 179.125C109.655 179.13 109.725 179.116 109.788 179.087L109.771 179.064ZM129.491 163.531L132.124 162.012C132.234 161.948 132.246 161.849 132.124 161.791L129.601 160.335C129.542 160.305 129.476 160.29 129.41 160.29C129.343 160.29 129.278 160.305 129.218 160.335L126.585 161.855C126.475 161.919 126.463 162.023 126.585 162.075L129.108 163.56C129.167 163.59 129.233 163.606 129.299 163.606C129.366 163.606 129.431 163.59 129.491 163.56V163.531ZM125.187 170.172L131.08 166.802C131.19 166.739 131.202 166.64 131.08 166.582L124.961 163.05C124.902 163.02 124.836 163.004 124.77 163.004C124.703 163.004 124.638 163.02 124.578 163.05L121.539 164.79C121.423 164.854 121.417 164.952 121.539 165.01L124.775 166.878C124.88 166.936 124.868 167.034 124.775 167.098L122.339 168.502C122.229 168.571 122.218 168.67 122.339 168.728L124.862 170.178C124.913 170.202 124.967 170.216 125.023 170.219C125.079 170.222 125.135 170.214 125.187 170.195V170.172ZM107.607 168.682L104.98 170.224C104.864 170.288 104.858 170.387 104.98 170.445L107.497 171.901C107.557 171.931 107.622 171.946 107.689 171.946C107.755 171.946 107.821 171.931 107.88 171.901L110.519 170.381C110.629 170.317 110.641 170.219 110.519 170.161L108.002 168.705C107.941 168.673 107.873 168.656 107.805 168.656C107.736 168.656 107.668 168.673 107.607 168.705V168.682ZM103.756 170.903L101.123 172.423C101.013 172.492 101.001 172.591 101.123 172.649L103.646 174.099C103.705 174.129 103.771 174.144 103.837 174.144C103.904 174.144 103.969 174.129 104.029 174.099L106.662 172.579C106.772 172.515 106.784 172.417 106.662 172.359L104.139 170.903C104.078 170.876 104.011 170.865 103.945 170.869C103.878 170.873 103.814 170.892 103.756 170.926V170.903ZM82.4528 194.637C82.5121 194.667 82.5777 194.682 82.6442 194.682C82.7107 194.682 82.7763 194.667 82.8356 194.637L85.4688 193.117C85.579 193.053 85.5906 192.955 85.4688 192.897L82.9458 191.441C82.8865 191.411 82.8209 191.395 82.7544 191.395C82.6879 191.395 82.6223 191.411 82.563 191.441L79.9298 192.96C79.8196 193.03 79.808 193.129 79.9298 193.181L82.4528 194.637ZM72.9524 188.686L70.3192 190.24C70.209 190.304 70.1974 190.403 70.3192 190.461L72.8422 191.916C72.902 191.945 72.9674 191.959 73.0336 191.959C73.0998 191.959 73.1652 191.945 73.225 191.916L75.8582 190.397C75.9684 190.333 75.98 190.234 75.8582 190.176L73.3352 188.721C73.2768 188.689 73.2117 188.671 73.1452 188.669C73.0787 188.667 73.0126 188.681 72.9524 188.709V188.686ZM77.836 193.146C77.8953 193.176 77.9609 193.192 78.0274 193.192C78.0939 193.192 78.1595 193.176 78.2188 193.146L80.852 191.621C80.968 191.557 80.9738 191.458 80.852 191.4L78.3348 189.944C78.2758 189.913 78.2101 189.897 78.1434 189.897C78.0767 189.897 78.011 189.913 77.952 189.944L75.3188 191.464C75.2028 191.528 75.197 191.626 75.3188 191.684L77.836 193.146ZM88.4616 195.536L91.0948 194.016C91.205 193.946 91.2166 193.848 91.0948 193.79L88.5718 192.34C88.5125 192.31 88.4469 192.294 88.3804 192.294C88.3139 192.294 88.2483 192.31 88.189 192.34L85.5558 193.859C85.4456 193.923 85.434 194.022 85.5558 194.08L88.0788 195.536C88.1363 195.569 88.2009 195.589 88.2674 195.593C88.3339 195.597 88.4005 195.585 88.4616 195.559V195.536ZM84.2276 197.769C84.2869 197.799 84.3525 197.814 84.419 197.814C84.4855 197.814 84.5511 197.799 84.6104 197.769L87.2436 196.249C87.3538 196.185 87.3654 196.087 87.2436 196.029L84.7264 194.573C84.6671 194.543 84.6015 194.527 84.535 194.527C84.4685 194.527 84.4029 194.543 84.3436 194.573L81.7046 196.092C81.5944 196.156 81.5828 196.255 81.7046 196.313L84.2276 197.769ZM76.8036 186.464L74.1704 187.984C74.0602 188.054 74.0486 188.152 74.1704 188.204L76.6934 189.66C76.7527 189.69 76.8183 189.706 76.8848 189.706C76.9513 189.706 77.0169 189.69 77.0762 189.66L79.7094 188.141C79.8196 188.077 79.8312 187.978 79.7094 187.92L77.1864 186.464C77.1253 186.438 77.0587 186.426 76.9922 186.43C76.9257 186.434 76.8611 186.454 76.8036 186.488V186.464ZM96.0538 175.352L93.4206 176.9C93.3104 176.964 93.2988 177.063 93.4206 177.121L95.9436 178.576C96.0029 178.606 96.0685 178.622 96.135 178.622C96.2015 178.622 96.2671 178.606 96.3264 178.576L98.9596 177.057C99.0698 176.987 99.0814 176.889 98.9596 176.831L96.4366 175.381C96.3777 175.35 96.3124 175.333 96.2459 175.332C96.1794 175.331 96.1136 175.346 96.0538 175.375V175.352ZM80.6548 184.266L78.0216 185.786C77.9114 185.85 77.8998 185.948 78.0216 186.006L80.5446 187.462C80.6039 187.492 80.6695 187.508 80.736 187.508C80.8025 187.508 80.8681 187.492 80.9274 187.462L83.5606 185.942C83.6708 185.873 83.6824 185.774 83.5606 185.716L81.0376 184.266C80.9783 184.236 80.9127 184.22 80.8462 184.22C80.7797 184.22 80.7141 184.236 80.6548 184.266ZM99.905 173.153L97.2718 174.673C97.1616 174.737 97.15 174.835 97.2718 174.893L99.7948 176.349C99.8538 176.38 99.9195 176.396 99.9862 176.396C100.053 176.396 100.119 176.38 100.178 176.349L102.811 174.83C102.921 174.766 102.933 174.667 102.811 174.609L100.288 173.153C100.229 173.122 100.163 173.106 100.096 173.106C100.03 173.106 99.964 173.122 99.905 173.153ZM92.22 177.596L89.581 179.116C89.4708 179.18 89.4592 179.278 89.581 179.336L92.0982 180.792C92.1575 180.822 92.2231 180.838 92.2896 180.838C92.3561 180.838 92.4217 180.822 92.481 180.792L95.1142 179.272C95.2302 179.209 95.236 179.11 95.1142 179.052L92.597 177.596C92.5384 177.567 92.4739 177.552 92.4085 177.552C92.3431 177.552 92.2786 177.567 92.22 177.596ZM88.3572 179.8L85.724 181.326C85.608 181.389 85.6022 181.488 85.724 181.546L88.2412 183.002C88.301 183.03 88.3664 183.045 88.4326 183.045C88.4988 183.045 88.5642 183.03 88.624 183.002L91.2572 181.482C91.3732 181.418 91.379 181.32 91.2572 181.262L88.74 179.8C88.6807 179.77 88.6151 179.754 88.5486 179.754C88.4821 179.754 88.4165 179.77 88.3572 179.8ZM84.506 182.027L81.8728 183.547C81.7568 183.611 81.751 183.709 81.8728 183.767L84.39 185.223C84.4493 185.253 84.5149 185.269 84.5814 185.269C84.6479 185.269 84.7135 185.253 84.7728 185.223L87.4118 183.698C87.522 183.634 87.5336 183.535 87.4118 183.477L84.8946 182.022C84.8329 181.993 84.7652 181.98 84.6974 181.984C84.6296 181.988 84.5638 182.009 84.506 182.045V182.027ZM102.08 183.535L104.713 182.016C104.823 181.946 104.835 181.848 104.713 181.79L102.19 180.34C102.131 180.309 102.065 180.294 101.999 180.294C101.932 180.294 101.867 180.309 101.807 180.34L99.18 181.871C99.0698 181.935 99.0582 182.033 99.18 182.091L101.703 183.547C101.762 183.574 101.827 183.587 101.893 183.585C101.958 183.583 102.022 183.566 102.08 183.535ZM137.999 151.154L135.366 152.674C135.25 152.743 135.244 152.842 135.366 152.9L137.883 154.35C137.943 154.38 138.008 154.395 138.075 154.395C138.141 154.395 138.207 154.38 138.266 154.35L140.899 152.83C141.015 152.766 141.021 152.668 140.899 152.61L138.382 151.154C138.324 151.125 138.259 151.11 138.194 151.11C138.128 151.11 138.064 151.125 138.005 151.154H137.999ZM133.359 153.845L130.726 155.365C130.616 155.434 130.604 155.533 130.726 155.585L133.249 157.041C133.309 157.071 133.374 157.087 133.441 157.087C133.507 157.087 133.573 157.071 133.632 157.041L136.265 155.521C136.375 155.458 136.387 155.359 136.265 155.301L133.742 153.845C133.681 153.812 133.612 153.795 133.542 153.795C133.472 153.795 133.404 153.812 133.342 153.845H133.359ZM141.874 148.933L139.2 150.452C139.09 150.516 139.078 150.615 139.2 150.673L141.717 152.128C141.777 152.158 141.842 152.174 141.909 152.174C141.975 152.174 142.041 152.158 142.1 152.128L144.733 150.609C144.849 150.545 144.855 150.441 144.733 150.388L142.216 148.933C142.16 148.906 142.098 148.892 142.036 148.892C141.974 148.892 141.913 148.906 141.856 148.933H141.874ZM120.588 168.705L123.227 167.179C123.337 167.116 123.349 167.017 123.227 166.959L120.704 165.503C120.644 165.475 120.579 165.46 120.512 165.46C120.446 165.46 120.381 165.475 120.321 165.503L117.694 167.04C117.583 167.104 117.572 167.203 117.694 167.261L120.211 168.716C120.268 168.741 120.33 168.753 120.392 168.751C120.454 168.749 120.515 168.733 120.57 168.705H120.588ZM146.108 146.665C146.048 146.636 145.983 146.622 145.916 146.622C145.85 146.622 145.785 146.636 145.725 146.665L143.092 148.184C142.982 148.248 142.97 148.347 143.092 148.405L145.615 149.861C145.674 149.891 145.74 149.906 145.806 149.906C145.873 149.906 145.938 149.891 145.998 149.861L148.631 148.335C148.741 148.271 148.753 148.173 148.631 148.115L146.108 146.665ZM105.937 181.308L108.57 179.789C108.68 179.725 108.692 179.626 108.57 179.568L106.047 178.112C105.988 178.081 105.922 178.065 105.856 178.065C105.789 178.065 105.723 178.081 105.664 178.112L103.031 179.632C102.921 179.696 102.909 179.794 103.031 179.852L105.554 181.308C105.613 181.339 105.679 181.355 105.746 181.355C105.812 181.355 105.878 181.339 105.937 181.308ZM153.149 154.048L155.788 152.54C155.898 152.476 155.91 152.378 155.788 152.32L153.265 150.864C153.206 150.833 153.14 150.817 153.074 150.817C153.007 150.817 152.941 150.833 152.882 150.864L150.249 152.384C150.139 152.447 150.127 152.546 150.249 152.604L152.766 154.06C152.826 154.089 152.892 154.104 152.959 154.102C153.026 154.1 153.091 154.081 153.149 154.048ZM145.702 154.193L148.335 152.674C148.445 152.61 148.457 152.511 148.335 152.453L145.812 150.997C145.753 150.967 145.687 150.952 145.621 150.952C145.554 150.952 145.489 150.967 145.429 150.997L142.819 152.54C142.709 152.604 142.697 152.703 142.819 152.761L145.342 154.216C145.4 154.238 145.463 154.247 145.524 154.243C145.586 154.239 145.647 154.222 145.702 154.193ZM149.686 148.776C149.627 148.746 149.562 148.73 149.495 148.73C149.428 148.73 149.363 148.746 149.304 148.776L146.67 150.296C146.56 150.359 146.549 150.464 146.67 150.516L149.193 151.972C149.253 152.002 149.318 152.017 149.385 152.017C149.451 152.017 149.517 152.002 149.576 151.972L152.209 150.452C152.32 150.388 152.331 150.29 152.209 150.232L149.686 148.776ZM150.498 148.306L156.6 151.838C156.659 151.868 156.725 151.884 156.791 151.884C156.858 151.884 156.923 151.868 156.983 151.838L159.616 150.319C159.732 150.255 159.738 150.156 159.616 150.098L153.497 146.566C153.438 146.536 153.372 146.52 153.306 146.52C153.239 146.52 153.174 146.536 153.114 146.566L150.481 148.086C150.411 148.15 150.4 148.248 150.498 148.306ZM141.607 153.236L138.968 154.756C138.858 154.82 138.846 154.918 138.968 154.976L141.491 156.432C141.55 156.462 141.616 156.478 141.682 156.478C141.749 156.478 141.814 156.462 141.874 156.432L144.507 154.907C144.617 154.843 144.629 154.744 144.507 154.686L141.99 153.23C141.93 153.2 141.864 153.184 141.798 153.185C141.731 153.186 141.665 153.204 141.607 153.236ZM112.607 169.963L109.974 171.483C109.864 171.553 109.852 171.651 109.974 171.709L112.497 173.159C112.556 173.189 112.622 173.205 112.688 173.205C112.755 173.205 112.82 173.189 112.88 173.159L115.513 171.64C115.623 171.576 115.635 171.477 115.513 171.419L113.007 169.94C112.948 169.91 112.882 169.894 112.816 169.894C112.749 169.894 112.684 169.91 112.624 169.94L112.607 169.963ZM148.903 156.287C148.963 156.317 149.028 156.333 149.095 156.333C149.161 156.333 149.227 156.317 149.286 156.287L151.919 154.762C152.03 154.698 152.041 154.599 151.919 154.541L149.396 153.085C149.337 153.057 149.271 153.042 149.205 153.042C149.139 153.042 149.073 153.057 149.014 153.085L146.38 154.605C146.27 154.669 146.259 154.767 146.38 154.825L148.903 156.287ZM116.458 167.742L113.825 169.262C113.715 169.325 113.703 169.424 113.825 169.482L116.348 170.938C116.407 170.968 116.473 170.983 116.539 170.983C116.606 170.983 116.671 170.968 116.731 170.938L119.364 169.418C119.474 169.354 119.486 169.25 119.364 169.198L116.841 167.742C116.784 167.715 116.722 167.7 116.658 167.7C116.595 167.7 116.533 167.715 116.476 167.742H116.458ZM86.2982 192.438C86.3575 192.468 86.4231 192.484 86.4896 192.484C86.5561 192.484 86.6217 192.468 86.681 192.438L89.3142 190.919C89.4244 190.849 89.436 190.751 89.3142 190.693L86.7912 189.243C86.7319 189.212 86.6663 189.197 86.5998 189.197C86.5333 189.197 86.4677 189.212 86.4084 189.243L83.7752 190.762C83.665 190.826 83.6534 190.925 83.7752 190.983L86.2982 192.438ZM81.8206 187.746L79.1816 189.272C79.0714 189.335 79.0598 189.434 79.1816 189.492L81.6988 190.948C81.7586 190.976 81.824 190.991 81.8902 190.991C81.9564 190.991 82.0218 190.976 82.0816 190.948L84.7148 189.428C84.8308 189.364 84.8366 189.266 84.7148 189.208L82.1976 187.752C82.1402 187.723 82.077 187.707 82.0127 187.706C81.9484 187.705 81.8847 187.719 81.8264 187.746H81.8206ZM90.5206 190.205L93.1596 188.68C93.2698 188.616 93.2814 188.518 93.1596 188.46L90.6424 187.004C90.5834 186.973 90.5177 186.957 90.451 186.957C90.3843 186.957 90.3186 186.973 90.2596 187.004L87.6264 188.523C87.5104 188.587 87.5046 188.686 87.6264 188.744L90.1436 190.2C90.2032 190.231 90.2696 190.249 90.3372 190.25C90.4048 190.251 90.4717 190.235 90.5322 190.205H90.5206ZM94.3718 187.978L97.005 186.459C97.121 186.395 97.1268 186.296 97.005 186.238L94.54 184.782C94.4807 184.752 94.4151 184.737 94.3486 184.737C94.2821 184.737 94.2165 184.752 94.1572 184.782L91.524 186.308C91.408 186.372 91.4022 186.47 91.524 186.528L94.0412 187.984C94.0958 188.005 94.1542 188.016 94.2129 188.015C94.2716 188.014 94.3295 188.002 94.3834 187.978H94.3718ZM98.223 185.757L100.856 184.237C100.972 184.173 100.978 184.075 100.856 184.017L98.339 182.561C98.2797 182.531 98.2141 182.515 98.1476 182.515C98.0811 182.515 98.0155 182.531 97.9562 182.561L95.3172 184.081C95.207 184.144 95.1954 184.249 95.3172 184.301L97.8344 185.757C97.8959 185.79 97.9647 185.807 98.0345 185.807C98.1043 185.807 98.1731 185.79 98.2346 185.757H98.223ZM85.6602 185.525L83.027 187.044C82.9168 187.108 82.9052 187.207 83.027 187.265L85.55 188.721C85.6093 188.751 85.6749 188.766 85.7414 188.766C85.8079 188.766 85.8735 188.751 85.9328 188.721L88.566 187.201C88.6762 187.137 88.6878 187.039 88.566 186.981L86.043 185.525C85.9852 185.497 85.9217 185.482 85.8574 185.482C85.7931 185.482 85.7296 185.497 85.6718 185.525H85.6602ZM89.5114 183.303L86.8782 184.823C86.768 184.887 86.7564 184.985 86.8782 185.043L89.4012 186.499C89.4605 186.529 89.5261 186.545 89.5926 186.545C89.6591 186.545 89.7247 186.529 89.784 186.499L92.4172 184.974C92.5274 184.91 92.539 184.811 92.4172 184.753L89.9 183.28C89.8414 183.251 89.7769 183.236 89.7115 183.236C89.6461 183.236 89.5816 183.251 89.523 183.28L89.5114 183.303ZM104.916 174.412L102.277 175.932C102.167 175.995 102.155 176.094 102.277 176.152L104.794 177.608C104.854 177.638 104.919 177.653 104.986 177.653C105.052 177.653 105.118 177.638 105.177 177.608L107.81 176.082C107.926 176.019 107.932 175.92 107.81 175.862L105.293 174.406C105.235 174.381 105.173 174.369 105.11 174.37C105.047 174.371 104.985 174.385 104.928 174.412H104.916ZM101.065 176.633L98.4318 178.153C98.3158 178.217 98.31 178.315 98.4318 178.373L100.949 179.829C101.008 179.859 101.074 179.875 101.14 179.875C101.207 179.875 101.272 179.859 101.332 179.829L103.965 178.31C104.081 178.246 104.087 178.147 103.965 178.089L101.448 176.633C101.39 176.605 101.327 176.59 101.262 176.59C101.198 176.59 101.134 176.605 101.077 176.633H101.065ZM108.762 172.185L106.14 173.71C106.03 173.774 106.018 173.873 106.14 173.931L108.663 175.386C108.722 175.417 108.788 175.433 108.854 175.433C108.921 175.433 108.987 175.417 109.046 175.386L111.679 173.867C111.789 173.803 111.801 173.704 111.679 173.646L109.156 172.191C109.097 172.16 109.032 172.143 108.965 172.142C108.899 172.141 108.833 172.156 108.773 172.185H108.762ZM93.38 181.082L90.7468 182.602C90.6366 182.665 90.625 182.764 90.7468 182.822L93.2698 184.278C93.3288 184.309 93.3945 184.325 93.4612 184.325C93.5279 184.325 93.5936 184.309 93.6526 184.278L96.2858 182.758C96.396 182.694 96.4076 182.596 96.2858 182.538L93.7628 181.082C93.7038 181.051 93.6381 181.035 93.5714 181.035C93.5047 181.035 93.439 181.051 93.38 181.082ZM97.2312 178.855L94.5922 180.38C94.4762 180.45 94.4704 180.548 94.5922 180.606L97.1094 182.056C97.1687 182.086 97.2343 182.102 97.3008 182.102C97.3673 182.102 97.4329 182.086 97.4922 182.056L100.131 180.537C100.241 180.473 100.253 180.374 100.131 180.316L97.6082 178.861C97.5493 178.83 97.484 178.813 97.4175 178.812C97.351 178.811 97.2852 178.826 97.2254 178.855H97.2312ZM92.3186 193.355L94.9518 191.835C95.062 191.771 95.0736 191.673 94.9518 191.615L92.4288 190.159C92.3698 190.128 92.3041 190.112 92.2374 190.112C92.1707 190.112 92.105 190.128 92.046 190.159L89.4128 191.679C89.3026 191.742 89.291 191.841 89.4128 191.899L91.9358 193.355C91.9959 193.381 92.0615 193.393 92.1271 193.389C92.1927 193.385 92.2564 193.365 92.3128 193.332L92.3186 193.355ZM72.0186 192.398L69.5014 190.942C69.4416 190.914 69.3762 190.899 69.31 190.899C69.2438 190.899 69.1784 190.914 69.1186 190.942L66.4796 192.462C66.3694 192.525 66.3578 192.624 66.4796 192.682L68.9968 194.138C69.0561 194.168 69.1217 194.183 69.1882 194.183C69.2547 194.183 69.3203 194.168 69.3796 194.138L72.0128 192.612C72.0998 192.56 72.1056 192.433 72.007 192.375L72.0186 192.398ZM77.0356 193.656L74.5184 192.206C74.4591 192.176 74.3935 192.161 74.327 192.161C74.2605 192.161 74.1949 192.176 74.1356 192.206L70.0756 194.526C69.9654 194.59 69.9538 194.689 70.0756 194.747L72.5986 196.203C72.6579 196.233 72.7235 196.248 72.79 196.248C72.8565 196.248 72.9221 196.233 72.9814 196.203L77.0414 193.883C77.14 193.79 77.14 193.72 77.024 193.633L77.0356 193.656ZM68.2602 189.527L65.7372 188.071C65.6779 188.041 65.6123 188.025 65.5458 188.025C65.4793 188.025 65.4137 188.041 65.3544 188.071L62.1122 189.944C62.002 190.008 61.9904 190.107 62.1122 190.165L64.6352 191.621C64.6945 191.651 64.7601 191.666 64.8266 191.666C64.8931 191.666 64.9587 191.651 65.018 191.621L68.2602 189.747C68.3356 189.66 68.3472 189.562 68.2486 189.504L68.2602 189.527ZM70.7426 188.088C70.8019 188.118 70.8675 188.134 70.934 188.134C71.0005 188.134 71.0661 188.118 71.1254 188.088L73.7586 186.569C73.8746 186.505 73.8804 186.406 73.7586 186.348L71.2414 184.893C71.1821 184.862 71.1165 184.847 71.05 184.847C70.9835 184.847 70.9179 184.862 70.8586 184.893L68.2254 186.412C68.1094 186.482 68.0978 186.58 68.2254 186.633L70.7426 188.088ZM81.6524 195.153L79.1294 193.697C79.0701 193.667 79.0045 193.651 78.938 193.651C78.8715 193.651 78.8059 193.667 78.7466 193.697L73.66 196.62C73.5498 196.684 73.5382 196.783 73.66 196.841L76.183 198.296C76.242 198.327 76.3077 198.343 76.3744 198.343C76.4411 198.343 76.5068 198.327 76.5658 198.296L81.6292 195.396C81.7278 195.286 81.7394 195.188 81.6408 195.13L81.6524 195.153ZM83.4272 198.285L80.91 196.829C80.8507 196.799 80.7851 196.783 80.7186 196.783C80.6521 196.783 80.5865 196.799 80.5272 196.829L77.285 198.702C77.169 198.766 77.1632 198.865 77.285 198.923L79.8022 200.379C79.8615 200.409 79.9271 200.424 79.9936 200.424C80.0601 200.424 80.1257 200.409 80.185 200.379L83.4272 198.505C83.52 198.418 83.52 198.32 83.4156 198.262L83.4272 198.285ZM99.3714 171.564C99.4307 171.594 99.4963 171.61 99.5628 171.61C99.6293 171.61 99.6949 171.594 99.7542 171.564L102.387 170.039C102.498 169.975 102.509 169.876 102.387 169.818L99.8644 168.363C99.8054 168.332 99.7397 168.315 99.673 168.315C99.6063 168.315 99.5406 168.332 99.4816 168.363L96.86 169.865C96.7498 169.929 96.7382 170.027 96.86 170.085L99.3714 171.564ZM91.64 175.984C91.6993 176.014 91.7649 176.029 91.8314 176.029C91.8979 176.029 91.9635 176.014 92.0228 175.984L94.656 174.464C94.772 174.4 94.7778 174.302 94.656 174.244L92.1388 172.788C92.0795 172.758 92.0139 172.742 91.9474 172.742C91.8809 172.742 91.8153 172.758 91.756 172.788L89.1228 174.308C89.0068 174.371 88.9952 174.47 89.1228 174.528L91.64 175.984ZM74.5648 185.844C74.6241 185.874 74.6897 185.889 74.7562 185.889C74.8227 185.889 74.8883 185.874 74.9476 185.844L77.5808 184.324C77.691 184.255 77.7026 184.156 77.5808 184.104L75.0636 182.648C75.0043 182.618 74.9387 182.602 74.8722 182.602C74.8057 182.602 74.7401 182.618 74.6808 182.648L72.0418 184.168C71.9316 184.231 71.92 184.33 72.0418 184.388L74.5648 185.844ZM95.4912 173.762C95.5505 173.792 95.6161 173.808 95.6826 173.808C95.7491 173.808 95.8147 173.792 95.874 173.762L98.5072 172.243C98.6174 172.173 98.629 172.075 98.5072 172.017L95.99 170.567C95.9307 170.536 95.8651 170.521 95.7986 170.521C95.7321 170.521 95.6665 170.536 95.6072 170.567L92.9682 172.086C92.858 172.15 92.8464 172.249 92.9682 172.307L95.4912 173.762ZM87.7888 178.211C87.8486 178.239 87.914 178.254 87.9802 178.254C88.0464 178.254 88.1118 178.239 88.1716 178.211L90.8048 176.691C90.9208 176.628 90.9324 176.529 90.8048 176.471L88.2876 175.015C88.2283 174.985 88.1627 174.969 88.0962 174.969C88.0297 174.969 87.9641 174.985 87.9048 175.015L85.2716 176.541C85.1556 176.604 85.1498 176.703 85.2716 176.761L87.7888 178.211ZM85.289 198.418C85.2297 198.388 85.1641 198.372 85.0976 198.372C85.0311 198.372 84.9655 198.388 84.9062 198.418L80.8462 200.738C80.736 200.808 80.7244 200.906 80.8462 200.964L83.3634 202.414C83.4227 202.444 83.4883 202.46 83.5548 202.46C83.6213 202.46 83.6869 202.444 83.7462 202.414L87.8062 200.094C87.9164 200.031 87.928 199.932 87.8062 199.874L85.289 198.418ZM82.2672 181.401C82.327 181.429 82.3924 181.444 82.4586 181.444C82.5248 181.444 82.5902 181.429 82.65 181.401L85.2832 179.881C85.3934 179.818 85.405 179.719 85.2832 179.661L82.7602 178.205C82.7009 178.175 82.6353 178.159 82.5688 178.159C82.5023 178.159 82.4367 178.175 82.3774 178.205L79.7442 179.731C79.634 179.794 79.6224 179.893 79.7442 179.951L82.2672 181.401ZM78.416 183.622C78.4753 183.652 78.5409 183.668 78.6074 183.668C78.6739 183.668 78.7395 183.652 78.7988 183.622L81.432 182.097C81.5422 182.033 81.5538 181.935 81.432 181.877L78.909 180.421C78.8495 180.391 78.784 180.376 78.7176 180.376C78.6512 180.376 78.5857 180.391 78.5262 180.421L75.893 181.94C75.7828 182.004 75.7712 182.103 75.893 182.161L78.416 183.622ZM156.623 157.232C156.564 157.201 156.498 157.185 156.432 157.185C156.365 157.185 156.299 157.201 156.24 157.232L149.756 160.973C149.64 161.037 149.634 161.136 149.756 161.194L152.273 162.65C152.333 162.68 152.398 162.695 152.465 162.695C152.531 162.695 152.597 162.68 152.656 162.65L159.135 158.92C159.251 158.856 159.256 158.758 159.135 158.7L156.623 157.232ZM148.109 162.151C148.049 162.121 147.984 162.105 147.917 162.105C147.851 162.105 147.785 162.121 147.726 162.151L145.093 163.67C144.983 163.734 144.971 163.833 145.093 163.891L147.616 165.347C147.675 165.377 147.741 165.392 147.807 165.392C147.874 165.392 147.939 165.377 147.999 165.347L150.632 163.821C150.742 163.757 150.754 163.659 150.632 163.601L148.109 162.151ZM96.1408 191.11L98.7798 189.591C98.89 189.527 98.9016 189.428 98.7798 189.37L96.28 187.92C96.2207 187.89 96.1551 187.874 96.0886 187.874C96.0221 187.874 95.9565 187.89 95.8972 187.92L93.264 189.446C93.1538 189.509 93.1422 189.608 93.264 189.666L95.787 191.116C95.845 191.144 95.9088 191.158 95.9733 191.157C96.0378 191.156 96.1011 191.14 96.1582 191.11H96.1408ZM140.412 166.594C140.353 166.563 140.287 166.548 140.221 166.548C140.154 166.548 140.089 166.563 140.029 166.594L137.39 168.119C137.28 168.183 137.269 168.281 137.39 168.339L139.908 169.795C139.967 169.823 140.033 169.838 140.099 169.838C140.165 169.838 140.231 169.823 140.29 169.795L142.924 168.276C143.04 168.212 143.045 168.113 142.924 168.055L140.412 166.594ZM160.474 154.994C160.415 154.963 160.35 154.948 160.283 154.948C160.216 154.948 160.151 154.963 160.092 154.994L157.453 156.519C157.342 156.583 157.331 156.681 157.453 156.739L159.976 158.189C160.035 158.219 160.1 158.235 160.167 158.235C160.234 158.235 160.299 158.219 160.358 158.189L162.992 156.67C163.102 156.606 163.113 156.507 162.992 156.449L160.474 154.994ZM166.854 154.228L160.735 150.69C160.677 150.658 160.611 150.642 160.544 150.642C160.477 150.642 160.411 150.658 160.353 150.69L157.714 152.21C157.603 152.273 157.592 152.372 157.714 152.43L163.821 156.02C163.88 156.05 163.946 156.066 164.012 156.066C164.079 156.066 164.144 156.05 164.204 156.02L166.837 154.501C166.947 154.402 166.959 154.28 166.86 154.245L166.854 154.228ZM126.034 174.882C125.975 174.851 125.909 174.835 125.843 174.835C125.776 174.835 125.71 174.851 125.651 174.882L122.409 176.749C122.299 176.813 122.287 176.912 122.409 176.97L124.932 178.426C124.991 178.456 125.057 178.471 125.123 178.471C125.19 178.471 125.255 178.456 125.315 178.426L128.557 176.552C128.667 176.488 128.679 176.39 128.557 176.332L126.034 174.882ZM135.761 169.267C135.701 169.237 135.636 169.222 135.569 169.222C135.503 169.222 135.437 169.237 135.378 169.267L131.318 171.587C131.208 171.651 131.196 171.75 131.318 171.808L133.841 173.264C133.9 173.295 133.966 173.311 134.032 173.311C134.099 173.311 134.165 173.295 134.224 173.264L138.284 170.944C138.394 170.88 138.405 170.781 138.284 170.723L135.761 169.267ZM117.119 180.032C117.06 180.002 116.995 179.986 116.928 179.986C116.861 179.986 116.796 180.002 116.737 180.032L95.0562 192.56C94.946 192.63 94.9344 192.728 95.0562 192.786L97.5792 194.236C97.6385 194.266 97.7041 194.282 97.7706 194.282C97.8371 194.282 97.9027 194.266 97.962 194.236L119.642 181.72C119.758 181.656 119.764 181.558 119.642 181.5L117.119 180.032ZM94.221 193.25C94.1617 193.22 94.0961 193.205 94.0296 193.205C93.9631 193.205 93.8975 193.22 93.8382 193.25L90.596 195.124C90.48 195.188 90.4684 195.286 90.596 195.344L93.1132 196.8C93.1725 196.83 93.2381 196.846 93.3046 196.846C93.3711 196.846 93.4367 196.83 93.496 196.8L96.7382 194.927C96.8484 194.863 96.86 194.764 96.7382 194.706L94.221 193.25ZM121.58 177.48C121.52 177.45 121.455 177.434 121.388 177.434C121.322 177.434 121.256 177.45 121.197 177.48L117.955 179.354C117.844 179.417 117.833 179.516 117.955 179.574L120.478 181.03C120.537 181.06 120.602 181.075 120.669 181.075C120.736 181.075 120.801 181.06 120.86 181.03L124.103 179.156C124.213 179.093 124.224 178.994 124.103 178.936L121.58 177.48ZM89.7666 195.849C89.7073 195.819 89.6417 195.803 89.5752 195.803C89.5087 195.803 89.4431 195.819 89.3838 195.849L86.1416 197.722C86.0314 197.786 86.0198 197.885 86.1416 197.943L88.6646 199.398C88.7239 199.428 88.7895 199.444 88.856 199.444C88.9225 199.444 88.9881 199.428 89.0474 199.398L92.2896 197.525C92.3998 197.461 92.4114 197.363 92.2896 197.305L89.7666 195.849ZM130.5 172.324C130.44 172.296 130.375 172.281 130.309 172.281C130.242 172.281 130.177 172.296 130.117 172.324L126.875 174.192C126.759 174.261 126.753 174.36 126.875 174.418L129.392 175.868C129.452 175.898 129.517 175.913 129.584 175.913C129.65 175.913 129.716 175.898 129.775 175.868L132.994 174C133.11 173.936 133.116 173.838 132.994 173.78L130.5 172.324ZM144.275 164.372C144.216 164.342 144.15 164.326 144.084 164.326C144.017 164.326 143.952 164.342 143.892 164.372L141.259 165.88C141.149 165.944 141.137 166.043 141.259 166.101L143.782 167.556C143.841 167.586 143.907 167.602 143.973 167.602C144.04 167.602 144.105 167.586 144.165 167.556L146.798 166.037C146.908 165.973 146.92 165.874 146.798 165.816L144.275 164.372ZM152.9 158.34L155.539 156.821C155.649 156.757 155.66 156.658 155.539 156.6L153.021 155.144C152.962 155.114 152.897 155.099 152.83 155.099C152.763 155.099 152.698 155.114 152.639 155.144L150.005 156.664C149.889 156.734 149.884 156.832 150.005 156.884L152.54 158.34C152.596 158.367 152.658 158.38 152.72 158.38C152.782 158.38 152.843 158.367 152.9 158.34ZM137.187 159.1L139.826 157.575C139.937 157.511 139.948 157.412 139.826 157.354L137.303 155.898C137.244 155.867 137.179 155.851 137.112 155.851C137.045 155.851 136.98 155.867 136.921 155.898L134.287 157.418C134.171 157.482 134.166 157.58 134.287 157.638L136.805 159.094C136.863 159.127 136.927 159.146 136.994 159.149C137.06 159.152 137.127 159.139 137.187 159.112V159.1ZM126.962 173.327L134.664 168.885C134.775 168.815 134.786 168.716 134.664 168.658L132.141 167.208C132.082 167.178 132.017 167.163 131.95 167.163C131.883 167.163 131.818 167.178 131.759 167.208L124.085 171.68C123.969 171.75 123.963 171.848 124.085 171.901L126.602 173.356C126.661 173.378 126.723 173.387 126.785 173.382C126.848 173.377 126.908 173.358 126.962 173.327ZM148.671 160.567C148.73 160.597 148.794 160.613 148.86 160.613C148.925 160.613 148.99 160.597 149.048 160.567L151.687 159.048C151.798 158.984 151.809 158.885 151.687 158.827L149.164 157.372C149.105 157.341 149.04 157.326 148.973 157.326C148.907 157.326 148.841 157.341 148.782 157.372L146.16 158.92C146.05 158.984 146.038 159.083 146.16 159.141L148.671 160.567ZM145.452 158.474L148.086 156.954C148.196 156.89 148.207 156.792 148.086 156.734L145.58 155.301C145.521 155.271 145.455 155.255 145.389 155.255C145.322 155.255 145.257 155.271 145.197 155.301L142.564 156.821C142.454 156.884 142.442 156.983 142.564 157.041L145.087 158.497C145.144 158.524 145.206 158.538 145.27 158.538C145.333 158.538 145.395 158.524 145.452 158.497V158.474ZM123.111 175.526L125.75 174.006C125.86 173.942 125.872 173.844 125.75 173.786L123.233 172.33C123.173 172.3 123.108 172.284 123.041 172.284C122.975 172.284 122.909 172.3 122.85 172.33L120.217 173.855C120.101 173.919 120.095 174.018 120.217 174.076L122.734 175.531C122.791 175.565 122.854 175.583 122.92 175.586C122.986 175.59 123.051 175.577 123.111 175.549V175.526ZM140.157 165.48C140.216 165.51 140.282 165.526 140.348 165.526C140.415 165.526 140.48 165.51 140.54 165.48L143.173 163.955C143.289 163.891 143.295 163.792 143.173 163.734L140.656 162.278C140.597 162.247 140.531 162.23 140.464 162.23C140.398 162.23 140.332 162.247 140.273 162.278L137.634 163.798C137.524 163.862 137.512 163.96 137.634 164.018L140.157 165.48ZM103.861 186.644L106.494 185.119C106.61 185.055 106.616 184.956 106.494 184.898L103.977 183.443C103.917 183.414 103.851 183.399 103.785 183.399C103.719 183.399 103.654 183.414 103.594 183.443L100.984 185.02C100.868 185.084 100.862 185.183 100.984 185.241L103.501 186.696C103.559 186.718 103.622 186.727 103.684 186.722C103.746 186.717 103.807 186.698 103.861 186.667V186.644ZM107.712 184.417L110.345 182.897C110.461 182.834 110.467 182.735 110.345 182.677L107.88 181.244C107.821 181.214 107.755 181.199 107.689 181.199C107.622 181.199 107.557 181.214 107.497 181.244L104.858 182.77C104.748 182.834 104.736 182.932 104.858 182.99L107.381 184.446C107.434 184.468 107.49 184.479 107.547 184.478C107.604 184.477 107.66 184.464 107.712 184.44V184.417ZM100.009 188.866L102.648 187.346C102.759 187.282 102.77 187.184 102.648 187.126L100.131 185.67C100.072 185.64 100.006 185.624 99.9398 185.624C99.8733 185.624 99.8077 185.64 99.7484 185.67L97.1152 187.189C96.9992 187.253 96.9934 187.352 97.1152 187.41L99.6324 188.866C99.6892 188.898 99.7528 188.917 99.8182 188.921C99.8836 188.926 99.9491 188.914 100.009 188.889V188.866ZM115.42 179.997L118.053 178.478C118.163 178.414 118.175 178.31 118.053 178.257L115.53 176.802C115.471 176.771 115.405 176.756 115.339 176.756C115.272 176.756 115.207 176.771 115.147 176.802L112.52 178.333C112.41 178.397 112.398 178.495 112.52 178.553L115.043 180.009C115.102 180.036 115.167 180.049 115.233 180.047C115.298 180.045 115.362 180.028 115.42 179.997ZM111.569 182.219L114.202 180.699C114.312 180.635 114.324 180.537 114.202 180.479L111.679 179.023C111.62 178.993 111.554 178.977 111.488 178.977C111.421 178.977 111.356 178.993 111.296 179.023L108.663 180.543C108.553 180.612 108.541 180.711 108.663 180.769L111.186 182.219C111.245 182.248 111.309 182.263 111.374 182.263C111.44 182.263 111.504 182.248 111.563 182.219H111.569ZM119.265 177.776L121.904 176.251C122.015 176.187 122.026 176.088 121.904 176.03L119.399 174.58C119.339 174.552 119.274 174.537 119.207 174.537C119.141 174.537 119.076 174.552 119.016 174.58L116.383 176.1C116.273 176.164 116.261 176.262 116.383 176.32L118.906 177.776C118.961 177.802 119.021 177.816 119.083 177.816C119.144 177.816 119.204 177.802 119.26 177.776H119.265ZM140.279 146.85C140.338 146.88 140.404 146.896 140.47 146.896C140.537 146.896 140.602 146.88 140.662 146.85L143.295 145.325C143.411 145.261 143.417 145.163 143.295 145.105L142.628 144.716C142.568 144.688 142.503 144.673 142.436 144.673C142.37 144.673 142.305 144.688 142.245 144.716L139.606 146.236C139.496 146.299 139.484 146.398 139.606 146.456L140.279 146.85ZM121.139 158.967C121.198 158.997 121.264 159.012 121.33 159.012C121.397 159.012 121.462 158.997 121.522 158.967L124.155 157.441C124.265 157.377 124.277 157.279 124.155 157.221L121.632 155.771C121.572 155.741 121.507 155.725 121.44 155.725C121.374 155.725 121.308 155.741 121.249 155.771L118.616 157.29C118.506 157.354 118.494 157.453 118.616 157.511L121.139 158.967ZM128.835 154.518C128.895 154.548 128.96 154.564 129.027 154.564C129.093 154.564 129.159 154.548 129.218 154.518L131.851 152.998C131.967 152.935 131.973 152.836 131.851 152.778L129.34 151.311C129.281 151.28 129.215 151.265 129.149 151.265C129.082 151.265 129.017 151.28 128.957 151.311L126.324 152.83C126.208 152.9 126.202 152.998 126.324 153.056L128.835 154.518ZM116.435 161.681C116.494 161.711 116.56 161.727 116.626 161.727C116.693 161.727 116.758 161.711 116.818 161.681L119.451 160.156C119.561 160.092 119.573 159.993 119.451 159.935L116.934 158.479C116.874 158.451 116.809 158.436 116.742 158.436C116.676 158.436 116.611 158.451 116.551 158.479L113.912 159.999C113.802 160.063 113.79 160.161 113.912 160.219L116.435 161.681ZM124.984 156.745C125.043 156.777 125.109 156.793 125.176 156.793C125.242 156.793 125.308 156.777 125.367 156.745L128.006 155.226C128.116 155.162 128.128 155.063 128.006 155.005L125.489 153.549C125.429 153.519 125.364 153.504 125.297 153.504C125.231 153.504 125.165 153.519 125.106 153.549L122.473 155.075C122.357 155.139 122.351 155.237 122.473 155.295L124.984 156.745ZM108.744 166.124C108.804 166.154 108.869 166.169 108.936 166.169C109.002 166.169 109.068 166.154 109.127 166.124L111.76 164.604C111.876 164.54 111.888 164.442 111.76 164.384L109.243 162.928C109.184 162.898 109.118 162.882 109.052 162.882C108.985 162.882 108.92 162.898 108.86 162.928L106.227 164.448C106.111 164.517 106.105 164.616 106.227 164.674L108.744 166.124ZM112.595 163.902C112.655 163.932 112.72 163.948 112.787 163.948C112.853 163.948 112.919 163.932 112.978 163.902L115.611 162.383C115.727 162.319 115.733 162.22 115.611 162.162L113.1 160.695C113.041 160.665 112.975 160.649 112.909 160.649C112.842 160.649 112.777 160.665 112.717 160.695L110.084 162.215C109.968 162.278 109.956 162.377 110.084 162.435L112.595 163.902ZM132.582 151.293C132.642 151.323 132.707 151.339 132.774 151.339C132.84 151.339 132.906 151.323 132.965 151.293L135.604 149.774C135.714 149.71 135.726 149.611 135.604 149.553L134.931 149.165C134.872 149.134 134.806 149.119 134.74 149.119C134.673 149.119 134.608 149.134 134.548 149.165L131.915 150.69C131.799 150.754 131.793 150.852 131.915 150.91L132.582 151.293ZM144.136 144.629C144.195 144.659 144.261 144.674 144.327 144.674C144.394 144.674 144.459 144.659 144.519 144.629L147.152 143.109C147.262 143.046 147.274 142.947 147.152 142.889L146.479 142.5C146.42 142.469 146.354 142.453 146.288 142.453C146.221 142.453 146.155 142.469 146.096 142.5L143.463 144.02C143.353 144.084 143.341 144.182 143.463 144.24L144.136 144.629ZM149.431 147.686C149.49 147.717 149.556 147.733 149.623 147.733C149.689 147.733 149.755 147.717 149.814 147.686L152.447 146.166C152.557 146.102 152.569 146.004 152.447 145.946L149.924 144.49C149.865 144.46 149.799 144.444 149.733 144.444C149.666 144.444 149.601 144.46 149.541 144.49L146.908 146.015C146.798 146.079 146.786 146.178 146.908 146.236L149.431 147.686ZM156.762 156.13L159.396 154.611C159.512 154.541 159.517 154.443 159.396 154.39L156.878 152.935C156.819 152.904 156.754 152.889 156.687 152.889C156.62 152.889 156.555 152.904 156.496 152.935L153.862 154.454C153.746 154.518 153.741 154.617 153.862 154.675L156.38 156.13C156.437 156.159 156.501 156.173 156.565 156.173C156.63 156.173 156.693 156.159 156.751 156.13H156.762ZM136.462 149.072C136.522 149.102 136.587 149.117 136.654 149.117C136.72 149.117 136.786 149.102 136.845 149.072L139.478 147.552C139.594 147.488 139.6 147.384 139.478 147.332L138.811 146.943C138.752 146.913 138.687 146.897 138.62 146.897C138.553 146.897 138.488 146.913 138.429 146.943L135.772 148.48C135.662 148.544 135.65 148.643 135.772 148.701L136.462 149.072ZM104.922 168.351C104.981 168.382 105.047 168.399 105.113 168.399C105.18 168.399 105.246 168.382 105.305 168.351L107.944 166.831C108.054 166.768 108.066 166.669 107.944 166.611L105.421 165.155C105.362 165.124 105.296 165.108 105.229 165.108C105.163 165.108 105.097 165.124 105.038 165.155L102.405 166.675C102.295 166.739 102.283 166.837 102.405 166.895L104.922 168.351Z" fill="#455A64"/>
<path d="M115.913 190.257L116.487 190.588L131.701 199.375L158.758 183.75L159.32 183.431L143.533 174.319L115.913 190.257Z" fill="#263238"/>
<path d="M158.41 183.953L143.533 175.369L116.829 190.791L131.701 199.375L158.41 183.953Z" fill="#37474F"/>
<path d="M81.055 32.9439C76.299 29.8293 70.1684 30.3861 66.8508 32.8975C62.2108 36.4239 60.5752 40.3041 59.74 47.9775C58.58 58.7887 57.362 61.8975 56.0802 64.3509C55.5337 65.4288 54.7786 66.3873 53.8586 67.1709C52.9386 67.9545 51.8721 68.5475 50.721 68.9155C51.6388 69.4767 52.6848 69.7942 53.7597 69.8379C54.8346 69.8815 55.9029 69.6499 56.8632 69.1649C55.7728 74.3849 54.2532 78.7639 55.6046 84.2797C56.5152 87.9917 58.4524 92.1967 61.3118 94.8589C63.7478 97.1267 67.2336 97.8169 70.1626 99.0987C68.1848 94.8589 67.1234 90.8569 68.4922 86.0893C70.0002 80.8287 73.5266 76.3511 75.0868 71.0499C77.256 63.7187 79.7268 56.1207 80.3474 48.4705C80.8636 42.0209 81.1072 37.3751 81.055 32.9439Z" fill="#263238"/>
<path d="M78.6828 33.9127C77.923 33.1993 74.5648 33.6633 72.5348 36.0819C70.5048 38.5005 69.2984 42.0153 71.7634 43.9003C74.0718 45.6693 83.0444 36.2559 78.6828 33.9127Z" fill="#407BFF"/>
<path d="M106.227 44.5267C107.897 43.9119 108.611 41.7601 108.112 40.0491C107.613 38.3381 106.215 37.0389 104.725 36.0587C101.312 33.8558 97.2402 32.9084 93.206 33.3791C89.464 32.1883 85.4772 31.9884 81.635 32.7991C79.1351 33.3776 76.8859 34.7407 75.2162 36.689C73.5465 38.6374 72.5439 41.0688 72.355 43.6277C66.3984 45.0313 63.7942 52.3277 67.4714 60.1577C70.1452 65.8185 76.1714 69.7335 76.9196 72.5523L99.5048 55.0015C100.386 56.3761 103.112 56.4399 104.226 55.8947C105.34 55.3495 106.036 53.3311 105.293 52.3335C106.329 52.4566 107.372 52.163 108.191 51.5175C109.011 50.8719 109.54 49.9272 109.663 48.8912C109.787 47.8552 109.493 46.8127 108.847 45.9931C108.202 45.1735 107.257 44.644 106.221 44.5209L106.227 44.5267Z" fill="#263238"/>
<path d="M81.635 32.8047C79.1758 33.456 76.9804 34.8567 75.3536 36.8125C74.5424 37.7704 73.8921 38.8536 73.428 40.0199C72.9745 41.1833 72.7045 42.4102 72.6276 43.6565V43.8479L72.442 43.8943C71.041 44.222 69.7606 44.9376 68.7474 45.9591C67.746 46.9916 67.0096 48.2513 66.6014 49.6305C65.8415 52.4457 65.9773 55.4278 66.99 58.1623C67.9793 60.9249 69.5183 63.4583 71.514 65.6095C72.4826 66.7231 73.5034 67.7903 74.4836 68.8981C74.9766 69.4781 75.4696 70.0059 75.9104 70.6381C76.3752 71.2184 76.7255 71.8817 76.9428 72.5927C76.6848 71.9019 76.3014 71.2648 75.8118 70.7135C75.3444 70.1438 74.8489 69.598 74.327 69.0779C73.2888 68.0223 72.2332 66.9841 71.2356 65.8879C70.2212 64.7997 69.2905 63.6364 68.4516 62.4079C67.6186 61.1578 66.9519 59.8047 66.468 58.3827C65.9464 56.9541 65.6339 55.4578 65.54 53.9399C65.4166 52.4269 65.5779 50.9042 66.0156 49.4507C66.4618 47.9845 67.258 46.6488 68.3356 45.5589C69.43 44.4761 70.8066 43.7224 72.3086 43.3839L72.1056 43.6217C72.3086 41.0162 73.3598 38.5491 75.0984 36.5979C75.9572 35.6374 76.9611 34.8174 78.0738 34.1677C79.1742 33.5132 80.3787 33.0522 81.635 32.8047Z" fill="black"/>
<path d="M164.401 81.6699C165.642 80.6143 165.868 80.3418 167.539 79.002C168.78 78.0102 169.772 77.204 170.091 76.624C170.717 75.464 170.131 74.3446 169.609 74.5302C168.56 74.9014 167.318 75.7888 164.9 77.4302C162.238 79.2572 160.358 81.0609 160.219 80.7709C161.078 79.5792 162.026 78.4546 163.055 77.407C166.315 73.8864 166.953 73.2483 167.55 72.1173C168.815 69.7625 167.04 69.3739 166.263 69.8611C165.375 70.4411 164.413 71.4794 162.081 73.7936C159.552 76.305 157.348 78.8628 157.145 78.712C156.942 78.5612 160.445 74.7274 162.545 71.9202C164.488 69.316 163.224 68.214 162.667 68.127C162.11 68.04 161.397 68.794 160.457 69.8032C158.758 71.6534 153.816 77.7202 152.784 78.8802C151.751 80.0402 150.968 80.4578 150.835 78.5844C150.707 76.8444 150.794 74.9536 150.029 73.7414C148.747 71.7172 147.332 72.2159 147.326 73.5673C147.326 75.4813 146.868 77.6274 146.531 80.684C146.351 82.279 146.38 84.164 146.346 85.2892C146.148 89.1694 142.895 91.1761 140.186 93.0437C137.477 94.9113 130.1 99.1163 130.1 99.1163C130.1 99.1163 116.342 84.9469 112.329 81.4785C107.561 77.3489 106.198 77.0589 99.4642 77.1111L108.988 101.605C108.988 101.605 121.933 113.582 126.33 116.139C130.726 118.697 132.513 117.299 137.854 112.561C141.955 108.924 148.706 100.59 150.336 98.7394C151.966 96.8892 152.656 95.6943 154.564 94.9983C157.134 94.0587 158.456 92.7653 160.167 90.8049C160.985 89.8711 162.336 87.9919 163.583 86.7449C165.269 85.1451 167.049 83.648 168.913 82.2616C170.039 81.3162 170.213 79.3616 168.635 79.988C165.642 81.148 162.644 83.6767 162.545 83.5085C162.446 83.3403 163.56 82.3891 164.401 81.6699Z" fill="#FFBDA7"/>
<path d="M151.879 81.7798C153.253 83.804 153.561 88.589 152.221 91.4368C154.988 88.7398 154.698 83.862 151.879 81.7798Z" fill="#F0997A"/>
<path d="M130.1 99.1391C127.82 100.63 125.1 104.939 125.877 109.37C124.886 106.099 124.027 102.016 129.027 97.9443L130.1 99.1391Z" fill="#F0997A"/>
<path d="M64.38 84.2972L69.687 82.1744C69.687 82.1744 77.604 80.1212 84.187 78.6944C91.147 77.8186 97.1268 77.1632 97.1268 77.1632L99.4758 77.1226C99.4758 77.1226 104.696 81.7162 108.518 85.956C112.34 90.1958 115.698 93.7396 115.913 99.093C116.197 106.326 111.551 108.953 111.551 108.953L111.836 118.169L117.873 135.25L59.5254 168.925C61.3002 148.132 65.9054 144.704 68.5096 130.291C68.0108 122.751 64.2582 112.404 63.6202 107.149C61.393 89.001 64.38 84.2972 64.38 84.2972Z" fill="#407BFF"/>
<path d="M76.7108 75.2374C76.9312 72.6912 77.2908 67.6278 77.2908 67.6278C76.6586 68.4688 73.2308 69.6346 70.9108 66.3402C68.208 62.5412 68.6372 59.821 70.5222 57.9998C72.6682 55.9234 76.4266 56.457 77.9926 59.7398C78.9728 62.0598 80.8926 59.3222 78.9612 55.6798C78.3174 49.265 86.5012 53.5164 91.5994 40.1416C96.744 39.8516 99.847 41.3016 102.347 45.582C103.507 47.5192 104.858 50.309 104.58 58.3884C104.22 68.6776 102.672 71.914 99.0698 73.6366C97.411 74.4312 95.7058 74.7328 92.51 74.495L92.481 75.481C92.4761 75.7097 92.4877 75.9384 92.5158 76.1654C92.531 76.4502 92.6506 76.7194 92.8517 76.9217C93.0529 77.1239 93.3215 77.2449 93.6062 77.2616C94.7845 77.3077 95.9645 77.2748 97.1384 77.163C97.1384 77.163 99.76 83.7518 91.06 85.6252C83.7453 87.1841 76.112 85.9533 69.658 82.1742C70.9523 81.5102 72.1985 80.7563 73.3874 79.918C76.0728 77.975 76.56 76.8324 76.7108 75.2374Z" fill="#FFBDA7"/>
<path d="M73.3758 65.8531C73.3851 66.1003 73.4674 66.3393 73.6124 66.5399C73.7574 66.7405 73.9585 66.8936 74.1904 66.98C74.4223 67.0664 74.6746 67.0822 74.9154 67.0253C75.1563 66.9685 75.3749 66.8416 75.5437 66.6607C75.7125 66.4797 75.824 66.2529 75.864 66.0086C75.9041 65.7644 75.8709 65.5138 75.7686 65.2885C75.6664 65.0631 75.4997 64.8731 75.2896 64.7423C75.0795 64.6116 74.8354 64.546 74.588 64.5539C74.4227 64.5583 74.26 64.5956 74.1092 64.6636C73.9585 64.7315 73.8227 64.8288 73.7099 64.9497C73.5971 65.0706 73.5095 65.2127 73.4521 65.3678C73.3948 65.5229 73.3688 65.6878 73.3758 65.8531Z" fill="#FAFAFA"/>
<path d="M89.8072 64.4785L95.3984 66.2185C95.2981 66.5913 95.1243 66.9403 94.8874 67.245C94.6504 67.5497 94.355 67.8041 94.0184 67.9932C93.6819 68.1822 93.311 68.3022 92.9275 68.3461C92.5439 68.3899 92.1555 68.3567 91.785 68.2485C91.0316 67.9981 90.4046 67.4654 90.0358 66.7624C89.667 66.0593 89.5851 65.2407 89.8072 64.4785Z" fill="#B16668"/>
<path d="M90.1726 65.7659C90.9168 65.7414 91.6464 65.9762 92.2367 66.43C92.827 66.8838 93.2414 67.5286 93.409 68.2541C92.8794 68.4134 92.3146 68.4134 91.785 68.2541C91.2525 68.0796 90.779 67.7604 90.4175 67.3323C90.0559 66.9041 89.8205 66.3839 89.7376 65.8297C89.8812 65.7995 90.0264 65.7782 90.1726 65.7659Z" fill="#F28F8F"/>
<path d="M102.416 50.5003L98.8958 49.6593C98.9396 49.4276 99.0299 49.2073 99.1614 49.0116C99.293 48.8159 99.4629 48.649 99.6608 48.521C99.8588 48.393 100.081 48.3066 100.313 48.2669C100.546 48.2273 100.784 48.2353 101.013 48.2905C101.485 48.4092 101.894 48.7045 102.155 49.1156C102.416 49.5267 102.51 50.0223 102.416 50.5003Z" fill="#263238"/>
<path d="M85.26 50.3208L88.6878 49.0274C88.617 48.7964 88.4989 48.5826 88.341 48.3997C88.1831 48.2168 87.9889 48.0688 87.7706 47.9652C87.5524 47.8615 87.3149 47.8044 87.0734 47.7976C86.8319 47.7907 86.5916 47.8342 86.3678 47.9254C85.9128 48.1085 85.5449 48.4583 85.339 48.9035C85.1331 49.3486 85.1049 49.8555 85.26 50.3208Z" fill="#263238"/>
<path d="M98.9596 55.0649C98.9393 55.4612 99.0707 55.8503 99.3272 56.153C99.5836 56.4558 99.9458 56.6495 100.34 56.6947C100.534 56.7155 100.731 56.6968 100.918 56.6398C101.105 56.5829 101.279 56.4888 101.429 56.3632C101.579 56.2376 101.702 56.0831 101.791 55.9088C101.88 55.7346 101.933 55.5442 101.947 55.3491C101.968 54.9489 101.834 54.5559 101.572 54.2522C101.311 53.9486 100.942 53.7576 100.543 53.7193C100.35 53.7019 100.156 53.723 99.9716 53.7815C99.7872 53.8399 99.6163 53.9346 99.4689 54.0598C99.3215 54.1851 99.2005 54.3385 99.113 54.5111C99.0256 54.6837 98.9734 54.8719 98.9596 55.0649Z" fill="#263238"/>
<path d="M86.6926 55.1405C86.6682 55.5412 86.8003 55.9356 87.0611 56.2407C87.3219 56.5458 87.6909 56.7378 88.0904 56.7761C88.2851 56.7977 88.4821 56.7796 88.6695 56.723C88.857 56.6664 89.0311 56.5723 89.1812 56.4466C89.3313 56.3208 89.4544 56.166 89.5431 55.9913C89.6317 55.8167 89.6841 55.6259 89.697 55.4305C89.7213 55.0305 89.589 54.6368 89.3281 54.3326C89.0673 54.0284 88.6983 53.8377 88.2992 53.8007C88.1052 53.78 87.9089 53.7985 87.7222 53.8551C87.5354 53.9117 87.3619 54.0052 87.2121 54.1302C87.0622 54.2552 86.939 54.4091 86.8497 54.5826C86.7605 54.7562 86.7071 54.9459 86.6926 55.1405Z" fill="#263238"/>
<path d="M92.4868 74.5009C89.1555 74.1855 85.9081 73.274 82.8994 71.8097C81.2476 70.8592 79.9398 69.4092 79.1642 67.6685C79.202 68.6708 79.4509 69.6538 79.8947 70.5533C80.3385 71.4528 80.967 72.2485 81.7394 72.8885C84.6394 75.3245 92.4926 76.1481 92.4926 76.1481C92.459 75.9216 92.4474 75.6924 92.4578 75.4637L92.4868 74.5009Z" fill="#F0997A"/>
<path d="M88.3398 110.2C91.1702 107.793 92.6086 106.842 93.9716 106.366C95.3346 105.89 100.062 103.559 101.894 102.979C103.054 102.608 103.634 104.458 102.231 105.844C101.135 106.911 98.2056 108.408 96.9296 109.214C95.6536 110.02 93.2582 113.338 93.2582 113.338L88.3398 110.2Z" fill="#F0997A"/>
<path d="M81.9192 131.335C72.6392 136.601 64.5192 143.161 55.5234 144.513C46.7538 145.823 46.4812 138.562 46.6378 133.15C46.835 126.318 50.663 104.893 52.6524 97.7704C54.7636 90.1898 56.1324 87.3942 64.351 84.3086C71.137 88.7572 69.571 103.449 68.1268 109.057C66.5898 114.909 64.1016 125.842 64.1016 125.842C64.1016 125.842 74.7968 122.473 77.3662 121.115C79.9356 119.758 84.2392 113.981 85.9386 112.131C88.2586 109.614 89.494 109.852 90.7526 109.962C94.888 110.322 95.8102 110.606 96.7092 111.122C96.977 111.282 97.1999 111.508 97.3571 111.778C97.5143 112.048 97.6007 112.353 97.6082 112.665C98.7044 112.734 100.328 112.595 100.653 114.37C100.774 114.836 100.827 115.316 100.81 115.797C101.088 115.827 101.347 115.955 101.541 116.156C102.515 117.148 101.187 120.878 100.259 121.823C99.6034 122.49 98.6232 122.629 97.3182 122.536C96.2046 122.455 96.6454 121.301 96.6454 121.301L95.1084 121.492C91.93 124.068 91.7734 127.872 87.435 129.183C85.4987 129.619 83.6392 130.345 81.9192 131.335Z" fill="#FFBDA7"/>
<path d="M97.6082 112.636L92.684 111.94H97.44C97.5404 112.159 97.5975 112.395 97.6082 112.636Z" fill="#F0997A"/>
<path d="M100.81 115.768L95.1664 115.397L100.775 115.118C100.81 115.333 100.822 115.551 100.81 115.768Z" fill="#F0997A"/>
<path d="M100.224 118.279C100.062 118.577 99.8156 118.821 99.5164 118.981C99.2226 119.153 98.9064 119.284 98.5768 119.37L98.6464 119.312C98.5188 119.613 98.3738 119.892 98.2346 120.205L98.107 120.066C98.2607 120.027 98.4208 120.022 98.5768 120.05C98.7328 120.078 98.881 120.139 99.0118 120.228C99.2566 120.403 99.4427 120.647 99.5454 120.93C99.401 120.693 99.2022 120.494 98.9654 120.35C98.7295 120.228 98.4578 120.195 98.1998 120.257L97.9852 120.315L98.0722 120.112C98.2056 119.81 98.339 119.532 98.4898 119.219V119.173H98.5362C98.849 119.095 99.1539 118.988 99.4468 118.854C99.7478 118.727 100.014 118.53 100.224 118.279Z" fill="#F0997A"/>
<path d="M98.7856 119.097C98.1187 119.226 97.4447 119.315 96.7672 119.364C96.6747 119.791 96.4565 120.181 96.1408 120.483C95.8171 120.831 95.4723 121.158 95.1084 121.464L96.6454 121.272C96.6454 121.272 96.9818 120.559 98.3506 120.205L98.7856 119.097Z" fill="#F0997A"/>
<path d="M64.5656 123.807L64.1016 125.831C60.1518 127.118 55.9816 130.192 55.1638 132.449C55.68 128.916 57.6172 126.138 64.5656 123.807Z" fill="#F0997A"/>
<path d="M105.995 51.2485L105.415 51.1731C103.472 50.9701 100.885 50.9237 99.325 51.4399C97.3066 52.1127 96.6106 52.8551 95.4332 52.8841C94.1572 52.8841 93.3162 52.1707 90.9382 51.5269C89.001 51.0165 85.7182 51.1093 83.1082 51.3819L82.2788 51.4747C81.9946 51.5517 81.7448 51.7226 81.5701 51.9595C81.3953 52.1964 81.3057 52.4855 81.316 52.7797C81.41 53.3533 81.6818 53.8828 82.0932 54.2935C82.2183 54.4807 82.3087 54.689 82.36 54.9083C82.6268 55.9755 82.7834 58.0577 83.3286 59.2061C83.5867 59.778 83.9485 60.2972 84.3958 60.7373C84.5641 60.8983 84.7466 61.0439 84.941 61.1723L85.26 61.3695C85.5564 61.5307 85.8695 61.659 86.1938 61.7523L86.3504 61.7929L86.594 61.8509L86.855 61.8915C87.1235 61.9357 87.3949 61.9608 87.667 61.9669H88.015H88.4442C91.7096 61.7523 92.9856 60.0993 93.699 58.4869C94.4124 56.8745 94.1224 54.7459 95.5028 54.7111H95.6304C95.6708 54.7051 95.7118 54.7051 95.7522 54.7111C96.7672 54.9199 96.744 56.8745 97.4516 58.2723C97.7223 58.8274 98.0764 59.3379 98.5014 59.7861C98.5783 59.8678 98.6596 59.9452 98.745 60.0181L98.8726 60.1225L99.006 60.2269L99.1278 60.3139L99.2612 60.4009L99.3656 60.4589L99.4352 60.4995C99.8067 60.7038 100.208 60.8486 100.624 60.9287H100.729C101.19 61.008 101.66 61.0275 102.126 60.9867C102.981 60.9751 103.807 60.6749 104.469 60.1347C105.131 59.5945 105.591 58.8461 105.775 58.0113C106.082 56.9673 106.065 55.1577 106.169 54.2123C106.186 54.0381 106.246 53.8709 106.343 53.7251C106.608 53.3219 106.751 52.8506 106.755 52.3679C106.72 51.8111 106.326 51.2891 105.995 51.2485ZM92.8522 57.0485C92.7117 57.8741 92.3601 58.6494 91.8314 59.2989C91.3897 59.7801 90.8514 60.1627 90.2518 60.4216C89.6521 60.6804 89.0045 60.8098 88.3514 60.8011C87.6849 60.8817 87.009 60.7878 86.3898 60.5285C85.7706 60.2692 85.2294 59.8535 84.8192 59.3221C84.7786 59.2699 84.7438 59.2119 84.709 59.1597C84.6702 59.1103 84.6353 59.0579 84.6046 59.0031C84.5713 58.9554 84.5422 58.905 84.5176 58.8523L84.4422 58.7189L84.39 58.6087C84.3722 58.577 84.3566 58.544 84.3436 58.5101C84.3436 58.4579 84.2914 58.4057 84.2682 58.3477C84.2044 58.1853 84.1464 58.0287 84.0942 57.8721C84.0652 57.7793 84.0362 57.6807 84.013 57.5879C83.9898 57.4951 83.926 57.2689 83.897 57.1297V57.0427C83.897 57.0427 83.897 56.9905 83.897 56.9615C83.6476 55.8363 83.3576 53.6381 83.9434 53.1393C84.5292 52.6405 86.0198 52.1185 88.421 52.3157H88.6762C89.0367 52.3515 89.395 52.4076 89.7492 52.4839C89.8884 52.4839 90.0276 52.5419 90.1668 52.5767C90.5176 52.6578 90.8625 52.7624 91.1992 52.8899L91.5182 53.0117C91.64 53.0581 91.7502 53.1161 91.8604 53.1683L91.93 53.2031L92.0518 53.2669C92.3207 53.396 92.5597 53.5797 92.7536 53.8063C93.1596 54.4327 93.0726 55.8189 92.8522 57.0311V57.0485ZM105.258 56.0915C105.177 56.8803 104.997 58.6145 103.64 59.4613C103.184 59.7396 102.666 59.8991 102.132 59.9253C101.508 60.018 100.87 59.9359 100.29 59.6881C99.7091 59.4403 99.2086 59.0366 98.8436 58.5217L98.7798 58.4289C98.7538 58.394 98.7305 58.3572 98.7102 58.3187C98.6947 58.3008 98.6811 58.2813 98.6696 58.2607L98.5768 58.0983L98.4782 57.9069C98.4782 57.8721 98.4492 57.8431 98.4376 57.8083C98.4354 57.791 98.4354 57.7734 98.4376 57.7561C98.4236 57.7321 98.4119 57.7069 98.4028 57.6807V57.6169C98.3028 57.3636 98.2195 57.1039 98.1534 56.8397C97.8634 55.6797 97.672 54.3457 98.0374 53.7019C98.4028 53.0581 99.905 52.3621 101.343 52.1533C101.674 52.1069 101.981 52.0779 102.271 52.0663H102.933H103.083L103.333 52.0953C103.489 52.1124 103.644 52.1395 103.797 52.1765H103.901H103.93H104.006H104.116L104.255 52.2229L104.475 52.3099H104.516C104.701 52.3912 104.872 52.4986 105.026 52.6289C105.415 53.1335 105.357 55.0997 105.258 56.0741V56.0915Z" fill="#37474F"/>
<path d="M81.8496 51.9854L74.414 56.84C75.2104 56.9553 75.956 57.2999 76.56 57.8318L82.2672 53.9458L81.8496 51.9854Z" fill="#37474F"/>
<path d="M99.9804 61.1549L95.4564 63.4227L94.2964 56.2307C94.3142 55.9592 94.3871 55.6942 94.5108 55.4519C94.6344 55.2096 94.8062 54.995 95.0156 54.8213L99.9804 61.1549Z" fill="#F0997A"/>
<path opacity="0.9" d="M46.6726 174.237L46.6088 174.208L44.8688 173.182C44.6344 173.047 44.4337 172.86 44.282 172.636C44.1303 172.412 44.0315 172.156 43.993 171.888C43.993 171.807 43.993 171.726 43.993 171.645V168.71C44.0136 168.063 44.2145 167.434 44.573 166.895L46.6378 168.084C46.2438 168.835 46.0557 169.678 46.0926 170.525V173.228C46.096 173.369 46.1234 173.508 46.1738 173.64C46.2663 173.891 46.4425 174.102 46.6726 174.237Z" fill="#263238"/>
<path opacity="0.6" d="M133.052 118.459C132.867 118.388 132.668 118.365 132.471 118.39C132.275 118.415 132.088 118.489 131.927 118.604L47.7688 167.04C47.6056 167.137 47.4504 167.248 47.3048 167.37C47.205 167.452 47.1119 167.541 47.0264 167.637C46.882 167.783 46.7572 167.946 46.6552 168.124L44.5556 166.918C44.6603 166.75 44.7786 166.591 44.9094 166.442L45.0428 166.297L45.182 166.164L45.327 166.042C45.4224 165.965 45.5232 165.896 45.6286 165.833L129.792 117.392C129.966 117.265 130.171 117.188 130.385 117.171C130.599 117.153 130.813 117.196 131.005 117.293C131.312 117.479 132.692 118.268 133.052 118.459Z" fill="#455A64"/>
<path d="M52.4204 169V166.941C52.4204 166.79 52.5132 166.634 52.606 166.634H54.4214C54.5374 166.634 54.5374 166.895 54.4214 167.034L52.606 169.105C52.5132 169.192 52.4204 169.145 52.4204 169Z" fill="white"/>
<path d="M56.6428 166.558V164.499C56.6428 164.354 56.7356 164.198 56.8284 164.198H58.6438C58.7598 164.198 58.7598 164.459 58.6438 164.592L56.84 166.651C56.7356 166.756 56.6428 166.709 56.6428 166.558Z" fill="white"/>
<path d="M58.87 165.485C58.7946 165.532 58.7308 165.485 58.7308 165.381V163.27C58.7321 163.217 58.7453 163.166 58.7695 163.12C58.7936 163.074 58.828 163.034 58.87 163.003C58.9454 162.962 59.0092 163.003 59.0092 163.107V165.224C59.0078 165.276 58.9946 165.326 58.9704 165.371C58.9462 165.416 58.9118 165.456 58.87 165.485Z" fill="white"/>
<path d="M50.286 170.23V168.2C50.286 168.055 50.1932 168.008 50.1004 168.107L48.2908 170.183C48.169 170.323 48.169 170.584 48.2908 170.584H50.1004C50.1932 170.52 50.286 170.375 50.286 170.23Z" fill="white"/>
<path d="M48.0588 171.726C48.1006 171.696 48.135 171.657 48.1592 171.612C48.1833 171.567 48.1966 171.517 48.198 171.465V169.36C48.198 169.261 48.1342 169.215 48.0588 169.255C48.0168 169.286 47.9824 169.326 47.9583 169.373C47.9341 169.419 47.9209 169.47 47.9196 169.522V171.633C47.9196 171.726 47.9834 171.773 48.0588 171.726Z" fill="white"/>
<path d="M129.526 123.232C129.483 123.231 129.442 123.213 129.412 123.183C129.382 123.153 129.365 123.113 129.363 123.07V122.13C129.364 122.102 129.372 122.075 129.386 122.05C129.4 122.026 129.42 122.006 129.444 121.991L130.198 121.556C130.235 121.535 130.279 121.529 130.32 121.54C130.362 121.551 130.397 121.577 130.419 121.614C130.429 121.632 130.436 121.652 130.439 121.672C130.441 121.693 130.44 121.714 130.434 121.734C130.429 121.753 130.42 121.772 130.407 121.789C130.394 121.805 130.379 121.819 130.361 121.829L129.682 122.223V123.07C129.682 123.112 129.666 123.153 129.637 123.183C129.607 123.213 129.568 123.231 129.526 123.232Z" fill="white"/>
<path d="M131.579 122.043C131.537 122.043 131.496 122.027 131.466 121.998C131.436 121.969 131.418 121.929 131.416 121.887V121.22L130.906 121.515C130.869 121.537 130.825 121.542 130.784 121.532C130.743 121.521 130.707 121.494 130.686 121.457C130.675 121.44 130.669 121.42 130.666 121.399C130.663 121.379 130.665 121.358 130.67 121.338C130.675 121.318 130.685 121.299 130.697 121.283C130.71 121.267 130.726 121.253 130.744 121.243L131.498 120.808C131.522 120.794 131.55 120.786 131.579 120.786C131.607 120.786 131.635 120.794 131.66 120.808C131.683 120.821 131.703 120.841 131.716 120.864C131.729 120.888 131.736 120.914 131.735 120.941V121.887C131.735 121.928 131.719 121.968 131.69 121.997C131.66 122.027 131.62 122.043 131.579 122.043Z" fill="white"/>
<path d="M130.825 124.259C130.797 124.259 130.77 124.253 130.745 124.239C130.721 124.226 130.7 124.207 130.686 124.184C130.664 124.147 130.659 124.103 130.669 124.062C130.68 124.02 130.707 123.985 130.744 123.963L131.416 123.575V122.722C131.418 122.68 131.436 122.64 131.466 122.611C131.496 122.582 131.537 122.565 131.579 122.565C131.62 122.565 131.66 122.582 131.689 122.611C131.719 122.641 131.735 122.68 131.735 122.722V123.667C131.736 123.695 131.729 123.722 131.716 123.747C131.703 123.771 131.683 123.792 131.66 123.807L130.906 124.242L130.825 124.259Z" fill="white"/>
<path d="M129.526 125.013C129.499 125.018 129.471 125.018 129.444 125.013C129.42 124.998 129.4 124.978 129.386 124.953C129.372 124.929 129.364 124.902 129.363 124.873V123.934C129.365 123.891 129.382 123.851 129.412 123.821C129.442 123.791 129.483 123.773 129.526 123.771C129.568 123.773 129.607 123.791 129.637 123.821C129.666 123.851 129.682 123.892 129.682 123.934V124.595L130.198 124.299C130.217 124.285 130.238 124.275 130.26 124.27C130.283 124.265 130.306 124.265 130.328 124.269C130.351 124.274 130.372 124.283 130.391 124.296C130.41 124.309 130.426 124.327 130.437 124.347C130.449 124.366 130.456 124.389 130.458 124.411C130.461 124.434 130.458 124.457 130.451 124.479C130.444 124.501 130.432 124.521 130.417 124.538C130.401 124.555 130.382 124.569 130.361 124.578L129.607 125.013C129.58 125.018 129.552 125.018 129.526 125.013Z" fill="white"/>
<path d="M77.9346 153.589V152.54L61.9904 161.75C61.8396 161.835 61.7111 161.954 61.6153 162.098C61.5195 162.243 61.4592 162.407 61.4394 162.579C61.4394 162.864 61.683 162.951 61.9904 162.771L77.9346 153.589Z" fill="#407BFF"/>
<path opacity="0.5" d="M123.128 126.515C123.052 126.529 122.979 126.556 122.914 126.597L77.9346 152.54V153.567L122.914 127.6C123.071 127.508 123.206 127.381 123.308 127.229C123.354 127.155 123.392 127.077 123.424 126.997C123.451 126.925 123.465 126.848 123.465 126.771C123.467 126.729 123.459 126.687 123.441 126.65C123.424 126.612 123.397 126.579 123.364 126.554C123.331 126.529 123.292 126.512 123.251 126.505C123.21 126.499 123.168 126.502 123.128 126.515Z" fill="white"/>
<path d="M78.735 152.685C78.7278 152.983 78.6519 153.276 78.513 153.541C78.3742 153.806 78.1763 154.035 77.9346 154.21C77.4938 154.46 77.14 154.21 77.14 153.601C77.1442 153.303 77.2183 153.011 77.3563 152.747C77.4943 152.483 77.6924 152.255 77.9346 152.082C78.3696 151.826 78.735 152.093 78.735 152.685Z" fill="#407BFF"/>
<path opacity="0.5" d="M78.735 152.685C78.7278 152.983 78.6519 153.276 78.513 153.541C78.3742 153.806 78.1763 154.035 77.9346 154.21C77.4938 154.46 77.14 154.21 77.14 153.601C77.1442 153.303 77.2183 153.011 77.3563 152.747C77.4943 152.483 77.6924 152.255 77.9346 152.082C78.3696 151.826 78.735 152.093 78.735 152.685Z" fill="white"/>
<path d="M78.4508 152.847C78.447 153.04 78.3984 153.23 78.3088 153.401C78.2192 153.572 78.0911 153.72 77.9346 153.833C77.6504 153.996 77.4184 153.833 77.4184 153.439C77.4217 153.246 77.4702 153.058 77.5599 152.887C77.6495 152.717 77.7779 152.57 77.9346 152.459C78.2188 152.296 78.4508 152.464 78.4508 152.847Z" fill="#407BFF"/>
</svg>
